<?xml version="1.0" standalone="no"?>
<!DOCTYPE svg PUBLIC "-//W3C//DTD SVG 1.1//EN" "http://www.w3.org/Graphics/SVG/1.1/DTD/svg11.dtd" >
<svg xmlns="http://www.w3.org/2000/svg" xmlns:xlink="http://www.w3.org/1999/xlink" version="1.1">
<metadata>
Created by FontForge 20170731 at Sat Feb 11 17:10:20 2017
 By ,,,
</metadata>
<defs>
<font id="Vision-LightItalic" horiz-adv-x="476" >
  <font-face 
    font-family="Vision Light"
    font-weight="300"
    font-style="italic"
    font-stretch="normal"
    units-per-em="1000"
    panose-1="0 0 0 0 0 0 0 0 0 0"
    ascent="800"
    descent="-200"
    x-height="509"
    cap-height="612"
    bbox="-85 -236 994 884"
    underline-thickness="50"
    underline-position="-225"
    unicode-range="U+000D-FB04"
  />
<missing-glyph horiz-adv-x="329" 
 />
    <glyph glyph-name="f_f" unicode="ff" horiz-adv-x="622" 
d="M578 706q45 0 77 -24l-22 -38q-19 16 -55 16q-55 0 -85.5 -44.5t-39.5 -106.5h156l-6 -45h-158l-91 -645h-48l91 645h-67h-2h-156l-91 -645h-48l91 645h-69l7 45h68q11 79 56.5 138t119.5 59q43 0 77 -24l-23 -38q-17 16 -54 16q-55 0 -86 -45t-40 -106h154h3h66
q11 79 56 138t119 59z" />
    <glyph glyph-name="f_i" unicode="fi" horiz-adv-x="414" 
d="M396 509l-72 -509h-48l65 463h-157l-89 -644h-49l89 644h-68l6 46h69q11 79 56.5 137t120.5 58q45 0 74 -22l-23 -38q-25 16 -55 16q-55 0 -85 -45t-39 -106h205z" />
    <glyph glyph-name="f_l" unicode="fl" horiz-adv-x="504" 
d="M365 650q-18 10 -46 10q-23 0 -43 -9.5t-33.5 -24t-24 -35t-16 -40.5t-8.5 -42h151zM296 131q0 30 4 54l39 279h-154l-90 -645h-48l90 645h-68l6 45h69q5 37 18 70.5t34 62.5t53 46.5t70 17.5q26 0 52 -11l1 5h49l-71 -514q-4 -34 -4 -51q0 -99 69 -99q34 0 62 17l12 -41
q-36 -23 -85 -23q-58 0 -83 40t-25 102z" />
    <glyph glyph-name="f_f_l" unicode="ffl" horiz-adv-x="894" 
d="M627 655q-11 5 -49 5q-29 0 -52 -13.5t-37.5 -36.5t-23 -48t-12.5 -53h153zM557 131q0 30 4 54l39 279h-155l-91 -645h-48l91 645h-67h-2h-156l-91 -645h-48l91 645h-69l7 45h68q5 37 18 70.5t34 62.5t53.5 46.5t70.5 17.5q43 0 77 -24l-23 -38q-17 16 -54 16
q-29 0 -52 -13.5t-37.5 -36.5t-23.5 -48t-13 -53h154h3h66q5 37 18 70.5t34 62.5t53 46.5t70 17.5q38 -1 55 -6h50l-72 -514q-4 -34 -4 -51q0 -99 69 -99q34 0 62 17l12 -41q-36 -23 -85 -23q-30 0 -52 12t-33.5 32.5t-17 44.5t-5.5 53z" />
    <glyph glyph-name="f_f_j" unicode="ffj" horiz-adv-x="696" 
d="M618 464h-157l-84 -592q24 -17 61 -17q22 0 40 9.5t30 27t20.5 36t14.5 45t9 43.5t6 41q1 5 1.5 8.5t0.5 6.5zM440 -191q-39 0 -70 17l-1 -7h-48l92 645h-68h-1h-157l-92 -645h-49l93 645h-69l6 45h69q5 37 18 70.5t34 62.5t53 46.5t70 17.5q47 -2 77 -24l-22 -38
q-20 16 -59 16q-28 0 -50.5 -14t-36.5 -37.5t-22 -48t-12 -51.5h156h68q5 37 18 70.5t34 62.5t53.5 46.5t70.5 17.5q46 -2 77 -24l-23 -38q-20 16 -59 16q-28 0 -50.5 -14t-36.5 -37.5t-22 -48t-12 -51.5h156h1h48l-57 -407q-1 -4 -2 -12q-4 -32 -7 -50t-10.5 -51.5
t-15 -54.5t-21 -47.5t-30 -41.5t-40 -25.5t-51.5 -10.5z" />
    <glyph glyph-name="f_f_t" unicode="fft" horiz-adv-x="853" 
d="M590 706q57 -2 77 -17l-22 -38q-11 9 -55 9q-55 0 -85.5 -44.5t-39.5 -106.5h153h3h65l21 145h48l-20 -145h152l-6 -46h-152l-38 -276q-4 -34 -4 -52q0 -98 69 -98q23 0 61 17l12 -40q-37 -24 -84 -24q-57 0 -82.5 41.5t-25.5 102.5q0 22 3 45l40 284h-68v1h-155
l-91 -645h-48l91 645h-67h-2h-156l-91 -645h-48l91 645h-69l7 45h68q11 79 56.5 138t119.5 59q43 0 77 -24l-23 -38q-17 16 -54 16q-55 0 -86 -45t-40 -106h154h3h66q11 79 56 138t119 59z" />
    <glyph glyph-name="f_j" unicode="fj" horiz-adv-x="421" 
d="M101 -130q25 -15 53 -15q23 0 42 9t31.5 27.5t21 35.5t14.5 45.5t9 45.5t6.5 46.5t4.5 37.5l52 362h-149zM319 706q46 0 78 -24l-22 -37q-23 18 -59 18q-29 0 -51.5 -14.5t-36.5 -38.5t-22 -48.5t-12 -52.5h148h9h40l-57 -407q-1 -4 -2 -12q-4 -32 -7 -50t-10.5 -51.5
t-15 -54.5t-21 -47.5t-30 -41.5t-40 -25.5t-51.5 -10.5q-35 0 -63 13v-3h-48l92 645h-69l7 45h68q12 80 56.5 138.5t118.5 58.5z" />
    <glyph glyph-name="f_t" unicode="ft" horiz-adv-x="598" 
d="M317 706q57 -2 77 -17l-23 -38q-11 9 -54 9q-55 0 -85.5 -44.5t-39.5 -106.5h153h3h65l21 145h48l-20 -145h152l-6 -46h-152l-38 -276q-4 -23 -4 -52q0 -98 69 -98q21 0 61 17l12 -40q-38 -24 -84 -24q-57 0 -82.5 41.5t-25.5 102.5q0 22 3 45l40 284h-68v1h-155
l-91 -645h-48l91 645h-69l6 45h69q11 79 56 138t119 59z" />
    <glyph glyph-name="t_f" unicode="tf" horiz-adv-x="648" 
d="M565 706q43 0 77 -24l-23 -38q-17 16 -54 16q-55 0 -86 -45t-39 -106h156l-6 -45h-159l-90 -645h-49l91 645h-68v-1h-152l-38 -276q-4 -34 -4 -52q0 -98 69 -98q22 0 62 17l12 -40q-38 -24 -84 -24q-57 0 -83 41.5t-26 102.5q0 22 3 45l40 284h-68l7 46h67l21 145h48
l-20 -145h152h1h68q11 79 56 138t119 59z" />
    <glyph glyph-name=".notdef" horiz-adv-x="329" 
 />
    <glyph glyph-name=".null" horiz-adv-x="0" 
 />
    <glyph glyph-name="nonmarkingreturn" horiz-adv-x="333" 
 />
    <glyph glyph-name="NULL" horiz-adv-x="0" 
 />
    <glyph glyph-name="NULL" horiz-adv-x="0" 
 />
    <glyph glyph-name="CR" unicode="&#xd;" horiz-adv-x="250" 
 />
    <glyph glyph-name="space" unicode=" " horiz-adv-x="251" 
 />
    <glyph glyph-name="exclam" unicode="!" horiz-adv-x="195" 
d="M162 727h67l-94 -578h-45zM138 36q0 -19 -14.5 -32.5t-33.5 -13.5q-15 0 -25.5 10t-10.5 25q0 19 14.5 32.5t33.5 13.5q15 0 25.5 -10t10.5 -25z" />
    <glyph glyph-name="quotedbl" unicode="&#x22;" horiz-adv-x="233" 
d="M63 628h56l-40 -211h-35zM205 628h55l-41 -211h-34z" />
    <glyph glyph-name="numbersign" unicode="#" horiz-adv-x="662" 
d="M448 172l-53 -172h-52l52 172h-186l-52 -172h-53l53 172h-115l17 44h111l55 178h-113l17 45h109l53 172h53l-54 -172h187l52 172h53l-52 -172h120l-17 -45h-117l-54 -178h118l-17 -44h-115zM410 214l55 181h-189l-55 -181h189z" />
    <glyph glyph-name="dollar" unicode="$" horiz-adv-x="491" 
d="M440 196q0 -82 -55.5 -138.5t-137.5 -64.5l-10 -70h-43l10 69q-42 3 -86.5 19.5t-74.5 41.5l32 46q28 -24 70.5 -41t77.5 -17q64 0 113.5 39.5t49.5 101.5q0 37 -27.5 63.5t-67 43.5t-79.5 34.5t-67.5 47.5t-27.5 72q0 70 51.5 118.5t123.5 58.5l12 81h42l-11 -78
q100 -2 143 -48l-25 -42q-44 41 -116 41q-62 0 -114.5 -32t-52.5 -91q0 -31 28 -53t67.5 -38t79 -34.5t67.5 -51t28 -78.5z" />
    <glyph glyph-name="percent" unicode="%" horiz-adv-x="616" 
d="M198 622q52 0 79 -39t27 -94q0 -71 -42 -132t-109 -61q-53 0 -80 38.5t-27 92.5q0 71 42.5 133t109.5 62zM159 341q45 0 73 46.5t28 94.5q0 37 -17 66.5t-51 29.5q-45 0 -73 -47t-28 -95q0 -37 17 -66t51 -29zM511 612l-308 -612h-52l308 612h52zM512 320q52 0 79 -39
t27 -94q0 -71 -42 -132t-110 -61q-52 0 -79 38.5t-27 92.5q0 71 42.5 133t109.5 62zM473 39q45 0 73 46.5t28 94.5q0 37 -17 66.5t-51 29.5q-45 0 -73 -47t-28 -95q0 -37 16.5 -66t51.5 -29z" />
    <glyph glyph-name="ampersand" unicode="&#x26;" horiz-adv-x="576" 
d="M46 156q0 75 55 136t132 92q-25 58 -25 93q0 63 55 104t120 41q74 0 111 -36l-26 -36q-39 26 -89 26q-44 0 -80.5 -27t-36.5 -69q0 -81 166 -318q67 85 81 188h49q-17 -128 -100 -228q49 -67 93 -122h-68q-15 20 -64 83q-92 -92 -199 -92q-74 0 -124 45.5t-50 119.5z
M250 344q-63 -23 -108.5 -71.5t-45.5 -110.5q0 -54 37.5 -88.5t91.5 -34.5q86 0 165 84q-94 129 -140 221z" />
    <glyph glyph-name="quotesingle" unicode="'" horiz-adv-x="145" 
d="M120 628h61l-42 -211h-38z" />
    <glyph glyph-name="parenleft" unicode="(" horiz-adv-x="322" 
d="M259 -155l-37 -42q-89 72 -135 173.5t-46 218.5q0 167 86 316t229 242l25 -41q-130 -86 -208.5 -222t-78.5 -288q0 -106 42 -199t123 -158z" />
    <glyph glyph-name="parenright" unicode=")" horiz-adv-x="278" 
d="M-61 -147q130 86 208 221.5t78 287.5q0 107 -41.5 199.5t-122.5 157.5l36 43q89 -72 135.5 -174.5t46.5 -218.5q0 -167 -86 -316t-229 -243z" />
    <glyph glyph-name="asterisk" unicode="*" horiz-adv-x="373" 
d="M260 432l102 -75l-29 -36l-101 75l-20 -144h-44l20 144l-122 -75l-20 36l124 75l-101 79l29 35l100 -77l20 142h44l-20 -142l121 77l20 -35z" />
    <glyph glyph-name="plus" unicode="+" horiz-adv-x="414" 
d="M415 313l-7 -47h-157l-23 -159h-51l22 159h-158l7 47h158l22 161h52l-23 -161h158z" />
    <glyph glyph-name="comma" unicode="," horiz-adv-x="164" 
d="M58 28q0 19 15.5 34t35.5 15q39 0 39 -52q0 -40 -27 -79.5t-65 -46.5l-6 31q47 11 56 64q-19 -5 -33.5 4.5t-14.5 29.5z" />
    <glyph glyph-name="hyphen" unicode="-" horiz-adv-x="454" 
d="M420 320l-7 -46h-367l7 46h367z" />
    <glyph glyph-name="period" unicode="." horiz-adv-x="175" 
d="M136 39q0 -19 -15 -34t-34 -15q-16 0 -27 10.5t-11 26.5q0 20 15 35t35 15q16 0 26.5 -11t10.5 -27z" />
    <glyph glyph-name="slash" unicode="/" horiz-adv-x="353" 
d="M365 625l-308 -633h-51l307 633h52z" />
    <glyph glyph-name="zero" unicode="0" horiz-adv-x="558" 
d="M340 622q51 0 91.5 -22t64.5 -59t36.5 -82t12.5 -93q0 -63 -20 -128.5t-56 -121t-93.5 -91t-124.5 -35.5q-68 0 -116 37.5t-68.5 93t-20.5 122.5q0 62 20.5 128t56.5 122.5t93 92.5t124 36zM333 575q-56 0 -102.5 -32t-74 -82t-42.5 -105.5t-15 -107.5q0 -40 8.5 -76
t26.5 -67t50 -49.5t74 -18.5q56 0 102.5 32t74.5 81.5t43 105.5t15 108q0 55 -14.5 100.5t-52 78t-93.5 32.5z" />
    <glyph glyph-name="one" unicode="1" horiz-adv-x="238" 
d="M186 612h44l-86 -612h-53l78 554l-117 -51l-8 45z" />
    <glyph glyph-name="two" unicode="2" horiz-adv-x="486" 
d="M472 492q0 -51 -34.5 -99t-84.5 -86.5t-101.5 -76t-92.5 -84.5t-49 -97h315l-6 -49h-375q1 7 2.5 19.5t2.5 18.5q9 59 51 113t94 94t103.5 77t86 77.5t34.5 81.5q0 47 -38 69.5t-90 22.5q-74 0 -153 -55l-14 41q83 63 179 63q73 0 121.5 -30.5t48.5 -99.5z" />
    <glyph glyph-name="three" unicode="3" horiz-adv-x="490" 
d="M219 40q75 0 126 46.5t51 120.5q0 25 -8.5 44.5t-25 31t-33.5 18.5t-42.5 10t-42.5 4t-42 1l6 45l201 206h-266l6 45h329l-6 -46l-195 -203q75 0 123.5 -37.5t48.5 -110.5q0 -95 -69.5 -160t-164.5 -65q-45 0 -93 19.5t-78 51.5l31 40q26 -27 66.5 -44t77.5 -17z" />
    <glyph glyph-name="four" unicode="4" horiz-adv-x="510" 
d="M454 612l-57 -404h99l-7 -45h-99l-22 -163h-53l23 163h-294l6 42l346 407h58zM391 539l-282 -331h236z" />
    <glyph glyph-name="five" unicode="5" horiz-adv-x="466" 
d="M213 41q71 0 123.5 52.5t52.5 123.5q0 26 -8 46.5t-19.5 34t-33 22.5t-38 13.5t-44.5 6.5t-43.5 2t-44.5 -0.5t-39 -0.5l46 271h287l-6 -45h-242l-31 -178h73q87 0 142 -40t55 -123q0 -98 -69.5 -167t-166.5 -69q-41 0 -86.5 17t-76.5 44l33 42q63 -52 136 -52z" />
    <glyph glyph-name="six" unicode="6" horiz-adv-x="456" 
d="M444 213q0 -93 -66.5 -158t-159.5 -65q-76 0 -124 45t-48 120q0 44 16.5 81t49.5 83l210 293h56l-180 -251q35 16 77 16q74 0 121.5 -45t47.5 -119zM225 37q69 0 119 49.5t50 118.5q0 56 -36 91.5t-92 35.5q-68 0 -118.5 -50.5t-50.5 -118.5q0 -57 35.5 -91.5t92.5 -34.5
z" />
    <glyph glyph-name="seven" unicode="7" horiz-adv-x="408" 
d="M404 612l-6 -45l-324 -567h-57l325 566h-277l7 46h332z" />
    <glyph glyph-name="eight" unicode="8" horiz-adv-x="453" 
d="M302 624q58 0 96.5 -36t38.5 -94q0 -46 -24.5 -86.5t-65.5 -62.5q41 -21 63 -58.5t22 -83.5q0 -89 -65 -151t-154 -62q-73 0 -120 43t-47 115q0 63 37 117t95 80q-54 35 -54 105q0 71 53 122.5t125 51.5zM295 577q-49 0 -85.5 -36t-36.5 -85q0 -41 25.5 -66.5t66.5 -25.5
q50 0 86.5 36.5t36.5 85.5q0 40 -26 65.5t-67 25.5zM259 317q-60 0 -110.5 -49.5t-50.5 -109.5q0 -53 34.5 -86.5t87.5 -33.5q62 0 111 46.5t49 109.5q0 49 -36 86t-85 37z" />
    <glyph glyph-name="nine" unicode="9" horiz-adv-x="462" 
d="M46 400q0 92 67 157t159 65q76 0 124 -44.5t48 -119.5q0 -76 -64 -164l-210 -294h-58l179 251q-37 -17 -77 -17q-73 0 -120.5 46.5t-47.5 119.5zM266 575q-68 0 -118.5 -50t-50.5 -118q0 -56 35.5 -91.5t91.5 -35.5q69 0 119.5 50.5t50.5 118.5q0 57 -35.5 91.5
t-92.5 34.5z" />
    <glyph glyph-name="colon" unicode=":" horiz-adv-x="216" 
d="M154 39q0 -19 -15 -34t-35 -15q-16 0 -27 10.5t-11 26.5q0 19 15 34.5t35 15.5q16 0 27 -11t11 -27zM203 393q0 -20 -15 -35t-34 -15q-16 0 -27 10.5t-11 26.5q0 20 15 35t35 15q16 0 26.5 -10.5t10.5 -26.5z" />
    <glyph glyph-name="semicolon" unicode=";" horiz-adv-x="208" 
d="M106 73q19 0 30.5 -18.5t11.5 -38.5q0 -38 -27.5 -76t-63.5 -45q-5 23 -7 31q47 10 57 64q-6 -3 -14 -3q-16 0 -26 10.5t-10 27.5q0 18 15 33t34 15zM194 393q0 -20 -15 -35t-35 -15q-16 0 -26.5 10.5t-10.5 26.5q0 20 15 35t35 15q16 0 26.5 -10.5t10.5 -26.5z" />
    <glyph glyph-name="less" unicode="&#x3c;" horiz-adv-x="416" 
d="M404 515l-7 -51l-278 -109l247 -110l-7 -51l-315 144l5 34z" />
    <glyph glyph-name="equal" unicode="=" horiz-adv-x="432" 
d="M444 448l-7 -47h-367l7 47h367zM417 246l-6 -46h-367l6 46h367z" />
    <glyph glyph-name="greater" unicode="&#x3e;" horiz-adv-x="420" 
d="M89 517l316 -145l-4 -34l-357 -146l7 52l278 111l-247 111z" />
    <glyph glyph-name="question" unicode="?" horiz-adv-x="373" 
d="M128 36q0 -18 -15 -32t-33 -14q-15 0 -25.5 10t-10.5 25q0 18 14.5 32t32.5 14q15 0 26 -10t11 -25zM231 704q69 0 113.5 -37.5t44.5 -104.5q0 -98 -68.5 -160t-167.5 -62l-25 -180h-48l32 226q52 0 63 1q71 6 115.5 51t44.5 116q0 49 -34 75.5t-84 26.5q-60 0 -121 -42
l-11 44q26 20 69 33t77 13z" />
    <glyph glyph-name="at" unicode="@" horiz-adv-x="794" 
d="M421 452q32 0 67.5 -12.5t56.5 -34.5l5 37h46q-2 -13 -13 -82.5t-16.5 -117t-5.5 -83.5q0 -65 43 -65q42 0 75.5 48t48 103t14.5 95q0 115 -84.5 182.5t-202.5 67.5q-150 0 -261 -110.5t-111 -260.5q0 -120 79.5 -198t200.5 -78q67 0 157 39l11 -35q-78 -40 -172 -40
q-135 0 -224 86t-89 221q0 167 123.5 289.5t290.5 122.5q134 0 226 -74.5t92 -204.5q0 -56 -20 -120.5t-65 -117t-103 -52.5q-28 0 -49 15t-28 42q-49 -57 -147 -57q-71 0 -116 49t-45 121q0 94 61.5 159.5t154.5 65.5zM420 408q-72 -1 -120 -51t-48 -122q0 -56 35.5 -95
t90.5 -39q39 0 84 23t52 58q2 18 4 27q1 8 9 56t8 73q0 30 -41 50t-74 20z" />
    <glyph glyph-name="A" unicode="A" horiz-adv-x="522" 
d="M306 612h62l124 -612h-55l-37 178h-248l-87 -178h-56zM327 544l-154 -319h220z" />
    <glyph glyph-name="B" unicode="B" horiz-adv-x="500" 
d="M464 488q0 -42 -21.5 -80t-56.5 -64q41 -15 65 -55t24 -86q0 -75 -56 -138t-130 -65h-41h-204l86 612h203q56 0 93.5 -34.5t37.5 -89.5zM272 355h25q46 1 81 40.5t35 86.5q0 38 -25 62t-63 24h-148l-30 -213h125zM289 44q51 0 92 49.5t41 102.5q0 43 -27 78t-69 35h-186
l-37 -265h186z" />
    <glyph glyph-name="C" unicode="C" horiz-adv-x="576" 
d="M398 621q106 0 164 -62l-30 -45q-54 57 -139 57q-117 0 -203 -93t-86 -211q0 -98 59 -163t156 -65q86 0 154 58l18 -46q-74 -61 -181 -61q-115 0 -188 77t-73 192q0 142 104.5 252t244.5 110z" />
    <glyph glyph-name="D" unicode="D" horiz-adv-x="536" 
d="M521 361q0 -62 -22 -125.5t-60.5 -116t-96 -86t-121.5 -33.5h-177l86 612h177q100 0 157 -74.5t57 -176.5zM188 48h44q69 2 124 53t82.5 119.5t27.5 135.5q0 82 -41 143.5t-120 64.5h-44h-85l-73 -516h85z" />
    <glyph glyph-name="E" unicode="E" horiz-adv-x="508" 
d="M145 347h253l-6 -47h-253l-36 -252h312l-7 -48h-364l86 612h364l-7 -48h-311z" />
    <glyph glyph-name="F" unicode="F" horiz-adv-x="504" 
d="M145 347h250l-7 -49h-250l-42 -298h-52l86 612h364l-6 -48h-313z" />
    <glyph glyph-name="G" unicode="G" horiz-adv-x="591" 
d="M324 39q83 0 137 56l27 198h52l-31 -219q-26 -38 -85.5 -61t-111.5 -23q-116 0 -189.5 77.5t-73.5 193.5q0 141 106 251t247 110q48 0 96.5 -17.5t78.5 -49.5l-31 -45q-26 27 -68 45t-79 18q-117 0 -205.5 -93t-88.5 -211q0 -98 61 -164t158 -66z" />
    <glyph glyph-name="H" unicode="H" horiz-adv-x="556" 
d="M145 350h308l37 262h52l-86 -612h-52l43 301h-309l-42 -301h-52l86 612h52z" />
    <glyph glyph-name="I" unicode="I" horiz-adv-x="197" 
d="M183 612l-86 -612h-53l86 612h53z" />
    <glyph glyph-name="J" unicode="J" horiz-adv-x="442" 
d="M176 41q61 0 97.5 46t45.5 112l58 411h51l-44 -313q-10 -72 -16 -107q-14 -86 -64 -144t-132 -58q-77 0 -127 49l30 47q38 -43 101 -43z" />
    <glyph glyph-name="K" unicode="K" horiz-adv-x="498" 
d="M491 612l-298 -277l246 -335h-64l-235 310l-43 -310h-53l86 612h53l-36 -253l281 253h63z" />
    <glyph glyph-name="L" unicode="L" horiz-adv-x="325" 
d="M103 48h208l-7 -48h-260l86 612h52z" />
    <glyph glyph-name="M" unicode="M" horiz-adv-x="686" 
d="M363 339l253 273h56l-86 -612h-53l76 535l-257 -275l-180 275l-75 -535h-53l86 612h56z" />
    <glyph glyph-name="N" unicode="N" horiz-adv-x="556" 
d="M185 612l232 -516l72 516h53l-86 -612h-56l-232 512l-72 -512h-52l86 612h55z" />
    <glyph glyph-name="O" unicode="O" horiz-adv-x="592" 
d="M358 622q105 0 162.5 -74t57.5 -182q0 -67 -21 -133.5t-59.5 -121t-98 -88t-130.5 -33.5q-106 0 -163 72.5t-57 181.5q0 66 21.5 132.5t60 121.5t98 89.5t129.5 34.5zM351 575q-79 0 -137 -53.5t-83.5 -126t-25.5 -148.5q0 -90 42.5 -150t128.5 -60q60 0 108.5 30.5
t78 79.5t45 105.5t15.5 112.5q0 90 -42.5 150t-129.5 60z" />
    <glyph glyph-name="P" unicode="P" horiz-adv-x="516" 
d="M510 455q0 -9 -2 -25q-10 -69 -65.5 -126t-122.5 -57h-188l-35 -247h-53l86 612h241q61 0 100 -47.5t39 -109.5zM324 295q52 0 93.5 50t41.5 103q0 43 -27.5 79.5t-69.5 36.5h-186l-38 -269h186z" />
    <glyph glyph-name="Q" unicode="Q" horiz-adv-x="592" 
d="M358 622q105 0 162 -74t57 -182q0 -111 -53 -212t-148 -142l90 -130h-62l-80 115q-28 -7 -62 -7q-103 0 -158 73t-55 179q0 90 35.5 175.5t108 145t165.5 59.5zM351 574q-59 0 -108 -30.5t-78.5 -79.5t-45 -105t-15.5 -112q0 -90 42.5 -150t129.5 -60q59 0 108 30.5
t78.5 79.5t45 105t15.5 112q0 90 -42.5 150t-129.5 60z" />
    <glyph glyph-name="R" unicode="R" horiz-adv-x="526" 
d="M511 470q0 -67 -48.5 -125.5t-114.5 -62.5l133 -282h-61l-130 278h-155l-39 -278h-52l86 612h247q59 0 96.5 -41t37.5 -101zM333 323q49 0 87.5 45t38.5 95q0 42 -26 73t-67 31h-191l-34 -244h192z" />
    <glyph glyph-name="S" unicode="S" horiz-adv-x="491" 
d="M440 194q0 -89 -65 -146.5t-155 -57.5q-46 0 -95.5 17t-81.5 45l32 46q28 -24 70.5 -41t77.5 -17q64 0 113.5 39.5t49.5 101.5q0 37 -27.5 63.5t-67 43.5t-79.5 34.5t-67.5 47.5t-27.5 72q0 84 67.5 132t155.5 48q93 0 138 -48l-25 -43q-43 42 -116 42q-62 0 -114.5 -32
t-52.5 -91q0 -30 28 -52.5t67.5 -38.5t79 -34.5t67.5 -51.5t28 -79z" />
    <glyph glyph-name="T" unicode="T" horiz-adv-x="551" 
d="M291 565h-207l6 47h467l-6 -47h-208l-79 -565h-52z" />
    <glyph glyph-name="U" unicode="U" horiz-adv-x="530" 
d="M224 -10q-78 0 -128 51t-50 129q0 10 2 30l58 412h52l-58 -412q-1 -7 -1 -22q0 -58 37.5 -97.5t94.5 -39.5q64 0 115.5 47.5t60.5 111.5l57 412h52l-58 -412q-12 -87 -79.5 -148.5t-154.5 -61.5z" />
    <glyph glyph-name="V" unicode="V" horiz-adv-x="554" 
d="M507 612h59l-299 -612h-57l-127 612h57l110 -526z" />
    <glyph glyph-name="W" unicode="W" horiz-adv-x="982" 
d="M936 612h58l-300 -612h-57l-112 524l-258 -524h-57l-127 612h57l110 -525l258 521h58l112 -521z" />
    <glyph glyph-name="X" unicode="X" horiz-adv-x="598" 
d="M527 612h58l-230 -279l168 -333h-57l-150 291l-232 -291h-58l262 333l-147 279h59l127 -242z" />
    <glyph glyph-name="Y" unicode="Y" horiz-adv-x="500" 
d="M455 612h56l-250 -315l-41 -297h-53l42 297l-161 315h56l138 -263z" />
    <glyph glyph-name="Z" unicode="Z" horiz-adv-x="554" 
d="M541 612l-7 -47l-419 -518h346l-6 -47h-411l7 47l419 518h-330l6 47h395z" />
    <glyph glyph-name="bracketleft" unicode="[" horiz-adv-x="241" 
d="M158 818h154l-7 -49h-101l-126 -900h100l-6 -49h-154z" />
    <glyph glyph-name="backslash" unicode="\" horiz-adv-x="292" 
d="M41 739h54l184 -906h-55z" />
    <glyph glyph-name="bracketright" unicode="]" horiz-adv-x="241" 
d="M148 812h154l-141 -997h-153l7 48h101l126 901h-100z" />
    <glyph glyph-name="asciicircum" unicode="^" horiz-adv-x="361" 
d="M44 365l178 331h39l86 -331h-49l-66 263l-140 -263h-48z" />
    <glyph glyph-name="underscore" unicode="_" horiz-adv-x="576" 
d="M564 -89l-6 -46h-514l6 46h514z" />
    <glyph glyph-name="grave" unicode="`" horiz-adv-x="511" 
d="M343 739l33 -126h-47l-49 126h63z" />
    <glyph glyph-name="a" unicode="a" horiz-adv-x="545" 
d="M529 34l-19 -44q-36 0 -55 22t-33 62q-34 -40 -82.5 -62t-101.5 -22q-89 0 -138 62.5t-49 155.5q0 77 30.5 147.5t92.5 118t141 47.5q42 0 84 -18.5t65 -50.5l8 56h52l-47 -331q-4 -36 -4 -56q0 -37 12 -62.5t44 -24.5zM254 39q84 0 151 70q14 14 16 24q4 15 14 96
q17 117 20 141v5q0 43 -47.5 70t-93.5 27q-94 0 -152.5 -78t-58.5 -175q0 -76 39 -128t112 -52z" />
    <glyph glyph-name="b" unicode="b" horiz-adv-x="520" 
d="M501 316q0 -75 -31 -149t-93 -125.5t-140 -51.5q-81 0 -139 52l-6 -42h-48l98 700h48l-33 -234q73 53 156 53q89 0 138.5 -56.5t49.5 -146.5zM237 37q91 0 151.5 85.5t60.5 181.5q0 72 -40 120.5t-111 48.5q-37 0 -78 -17t-70 -43l-44 -313q20 -29 57 -46t74 -17z" />
    <glyph glyph-name="c" unicode="c" horiz-adv-x="492" 
d="M51 208q0 121 77 216t195 95q42 0 86 -16.5t69 -45.5l-29 -38q-21 25 -57.5 39t-71.5 14q-88 0 -153 -79.5t-65 -168.5q0 -75 41.5 -130.5t113.5 -55.5q37 0 77 14.5t68 38.5l19 -38q-32 -29 -80.5 -46t-92.5 -17q-92 0 -144.5 62t-52.5 156z" />
    <glyph glyph-name="d" unicode="d" horiz-adv-x="546" 
d="M51 212q0 80 29.5 149t90.5 114t142 45q84 0 137 -55l33 235h48l-98 -700h-48l6 42q-69 -53 -153 -53q-89 0 -138 65.5t-49 157.5zM311 472q-64 0 -112.5 -39t-72 -96t-23.5 -120q0 -76 37.5 -128.5t110.5 -52.5q39 0 80.5 18.5t67.5 47.5l44 310q-23 27 -60 43.5
t-72 16.5z" />
    <glyph glyph-name="e" unicode="e" horiz-adv-x="466" 
d="M109 270q-9 -40 -9 -67q0 -69 38.5 -118.5t105.5 -49.5q37 0 78 15t67 41l18 -39q-30 -29 -78.5 -45.5t-93.5 -16.5q-89 0 -136.5 58.5t-47.5 149.5q0 79 28.5 151t89.5 121t142 49q60 0 100 -35.5t40 -93.5q0 -82 -63.5 -119.5t-151.5 -37.5q-79 0 -127 37zM303 475
q-129 0 -183 -163q16 -16 53.5 -26.5t65.5 -10.5q65 0 114 26.5t49 85.5q0 40 -28.5 64t-70.5 24z" />
    <glyph glyph-name="f" unicode="f" horiz-adv-x="319" 
d="M319 706q43 0 77 -24l-23 -38q-17 16 -54 16q-55 0 -86 -45t-39 -106h156l-6 -45h-159l-90 -645h-48l90 645h-68l6 45h69q11 79 56 138t119 59z" />
    <glyph glyph-name="g" unicode="g" horiz-adv-x="535" 
d="M66 226q0 116 73.5 204.5t187.5 88.5q89 0 140 -50l5 40h48l-54 -386q-8 -57 -9 -59q-16 -104 -81.5 -179t-164.5 -75q-40 0 -88 17t-72 45l30 38q17 -21 61 -37t75 -16q73 0 127 62.5t65 139.5q-60 -44 -147 -44q-91 0 -143.5 60t-52.5 151zM330 473q-95 0 -154.5 -71
t-59.5 -168q0 -75 41 -123.5t115 -48.5q42 0 84.5 17.5t62.5 49.5q5 33 19 131.5t21 152.5q-19 28 -56 44t-73 16z" />
    <glyph glyph-name="h" unicode="h" 
d="M311 520q75 0 113 -41t38 -117q0 -19 -4 -53l-44 -309h-47l37 263q6 36 6 71q0 133 -115 133q-50 0 -87 -33.5t-54.5 -76.5t-24.5 -94l-36 -263h-49l98 700h49l-40 -285q21 45 66 75t94 30z" />
    <glyph glyph-name="i" unicode="i" horiz-adv-x="200" 
d="M166 509l-71 -509h-49l72 509h48zM192 604q0 -16 -13 -28t-29 -12q-13 0 -22 8.5t-9 21.5q0 16 12.5 28t28.5 12q13 0 22.5 -8.5t9.5 -21.5z" />
    <glyph glyph-name="j" unicode="j" horiz-adv-x="266" 
d="M230 509l-70 -496q-7 -51 -24.5 -94t-54.5 -76t-88 -33t-78 22l24 40q23 -16 58 -16q27 0 47.5 14.5t32 34t20.5 49.5t12.5 52.5t7.5 49.5q1 11 2 16l62 437h49zM254 604q0 -16 -12.5 -28t-28.5 -12q-13 0 -22 8.5t-9 21.5q0 16 12.5 28t28.5 12q13 0 22 -8.5t9 -21.5z
" />
    <glyph glyph-name="k" unicode="k" horiz-adv-x="456" 
d="M376 509h69l-263 -207l248 -302h-69l-228 276l-38 -276h-49l99 700h48l-53 -373z" />
    <glyph glyph-name="l" unicode="l" horiz-adv-x="254" 
d="M46 131q0 18 4 54l73 515h49l-72 -514q-3 -26 -3 -51q0 -99 68 -99q34 0 62 17l13 -41q-37 -23 -86 -23q-58 0 -83 40t-25 102z" />
    <glyph glyph-name="m" unicode="m" horiz-adv-x="799" 
d="M311 520q128 0 148 -114q26 51 72.5 82.5t102.5 31.5q75 0 112.5 -42t37.5 -117q0 -27 -3 -52l-44 -309h-47l36 263q6 36 6 72q0 132 -114 132q-48 0 -85 -31.5t-55 -73.5t-25 -91l-38 -271h-47l36 263q6 36 6 71q0 133 -115 133q-50 0 -87 -33.5t-54.5 -76.5t-24.5 -94
l-36 -263h-49l71 509h49l-12 -86q25 43 68 70t91 27z" />
    <glyph glyph-name="n" unicode="n" 
d="M311 520q75 0 113 -41t38 -117q0 -19 -4 -53l-44 -309h-47l37 263q6 36 6 71q0 133 -115 133q-50 0 -87 -33.5t-54.5 -76.5t-24.5 -94l-36 -263h-49l71 509h49l-13 -94q21 45 66 75t94 30z" />
    <glyph glyph-name="o" unicode="o" horiz-adv-x="525" 
d="M317 518q90 0 141 -61.5t51 -153.5q0 -77 -31.5 -148t-94 -118.5t-140.5 -47.5q-90 0 -141 62t-51 154q0 120 74.5 216.5t191.5 96.5zM311 472q-86 0 -147.5 -82.5t-61.5 -171.5q0 -72 39.5 -128t107.5 -56q60 0 109.5 41.5t74.5 100t25 117.5q0 74 -38 126.5t-109 52.5z
" />
    <glyph glyph-name="p" unicode="p" horiz-adv-x="542" 
d="M336 520q89 0 138 -65.5t49 -157.5q0 -122 -70 -214.5t-187 -92.5q-88 0 -142 55l-32 -226h-48l97 690h48l-7 -49q78 60 154 60zM323 472q-39 0 -80.5 -18.5t-68.5 -47.5l-43 -310q22 -27 58.5 -44t72.5 -17q95 0 152.5 78.5t57.5 177.5q0 77 -37.5 129t-111.5 52z" />
    <glyph glyph-name="q" unicode="q" horiz-adv-x="521" 
d="M313 520q79 0 140 -58l6 47h49l-97 -690h-49l32 226q-72 -56 -155 -56q-89 0 -138.5 56.5t-49.5 146.5q0 76 30 150t92 126t140 52zM314 471q-94 0 -152.5 -84t-58.5 -182q0 -72 39.5 -120t110.5 -48q36 0 78 17t71 43l43 308q-20 30 -56.5 48t-74.5 18z" />
    <glyph glyph-name="r" unicode="r" horiz-adv-x="314" 
d="M294 468q-39 0 -70.5 -19t-51 -50.5t-31 -65.5t-16.5 -72l-37 -261h-49l72 509h49l-14 -94q21 45 66.5 75t94.5 30q17 0 51 -8l-30 -49q-14 5 -34 5z" />
    <glyph glyph-name="s" unicode="s" horiz-adv-x="434" 
d="M386 159q0 -76 -56.5 -122.5t-132.5 -46.5q-39 0 -81.5 14.5t-71.5 39.5l31 42q24 -21 58.5 -35.5t65.5 -14.5q51 0 91.5 31t40.5 82q0 29 -23 50.5t-56 35.5t-66.5 28.5t-56.5 40t-23 61.5q0 68 57.5 111.5t126.5 43.5q34 0 73 -12t56 -34l-26 -38q-18 17 -48.5 27.5
t-57.5 10.5q-45 0 -86.5 -29t-41.5 -72q0 -25 23.5 -44t56.5 -33t66.5 -29.5t57 -42.5t23.5 -65z" />
    <glyph glyph-name="t" unicode="t" horiz-adv-x="336" 
d="M71 134q0 22 3 45l40 284h-68l7 46h67l21 145h48l-20 -145h153l-7 -46h-152l-38 -276q-4 -34 -4 -52q0 -98 69 -98q22 0 62 17l12 -40q-38 -24 -84 -24q-57 0 -83 41.5t-26 102.5z" />
    <glyph glyph-name="u" unicode="u" horiz-adv-x="477" 
d="M195 -11q-151 0 -151 161q0 29 4 52l42 307h48l-37 -265q-6 -48 -6 -72q0 -132 115 -132q73 0 113.5 60.5t52.5 143.5l38 265h48l-71 -509h-48l13 93q-21 -45 -67 -74.5t-94 -29.5z" />
    <glyph glyph-name="v" unicode="v" horiz-adv-x="450" 
d="M405 509h52l-245 -509h-48l-100 509h50l86 -423z" />
    <glyph glyph-name="w" unicode="w" horiz-adv-x="793" 
d="M748 509h52l-244 -509h-49l-86 434l-208 -434h-49l-100 509h51l86 -423l204 419h52l87 -419z" />
    <glyph glyph-name="x" unicode="x" horiz-adv-x="511" 
d="M446 509h54l-194 -240l144 -269h-55l-126 224l-190 -224h-55l221 269l-126 240h53l109 -197z" />
    <glyph glyph-name="y" unicode="y" horiz-adv-x="461" 
d="M77 -182q-16 0 -41 8t-34 18l28 38q28 -19 51 -19q34 0 67 50t48 97l-101 499h52l86 -420l205 420h51q-17 -35 -106.5 -221t-138.5 -285q-3 -6 -17 -36.5t-21 -43.5t-22.5 -37.5t-29 -36t-34 -21.5t-43.5 -10z" />
    <glyph glyph-name="z" unicode="z" horiz-adv-x="490" 
d="M475 509l-6 -46l-359 -417h307l-6 -46h-367l6 46l359 417h-280l6 46h340z" />
    <glyph glyph-name="braceleft" unicode="{" horiz-adv-x="235" 
d="M280 817h25l-7 -48q-101 0 -112 -81l-45 -320l-51 -50l38 -45l-46 -324q-1 -4 -1 -14q0 -40 24 -53t67 -13l-7 -49q-64 0 -100.5 23t-36.5 84q0 8 2 22l43 309l-45 60l62 63l44 308q8 57 48 92.5t98 35.5z" />
    <glyph glyph-name="bar" unicode="|" horiz-adv-x="246" 
d="M232 818l-140 -998h-51l140 998h51z" />
    <glyph glyph-name="braceright" unicode="}" horiz-adv-x="286" 
d="M148 817q64 0 100.5 -23t36.5 -83q0 -15 -1 -22l-44 -308l45 -62l-62 -61l-43 -309q-8 -57 -48.5 -93t-98.5 -36h-25l7 49q101 0 112 80l46 324l49 45l-36 50l45 320q1 5 1 15q0 40 -24 53t-66 13z" />
    <glyph glyph-name="asciitilde" unicode="~" horiz-adv-x="407" 
d="M163 629q25 0 64.5 -15.5t62.5 -15.5q41 0 65 35l38 -20q-42 -60 -106 -60q-27 0 -66 16t-62 16q-51 0 -80 -44l-35 21q48 67 119 67z" />
    <glyph glyph-name="exclamdown" unicode="&#xa1;" horiz-adv-x="194" 
d="M129 -14h-67l94 577h44zM153 676q0 19 14 33t33 14q15 0 25.5 -10t10.5 -25q0 -18 -14.5 -32t-32.5 -14q-15 0 -25.5 9.5t-10.5 24.5z" />
    <glyph glyph-name="cent" unicode="&#xa2;" horiz-adv-x="578" 
d="M51 257q0 131 91 238t220 121l12 84h43l-11 -82q103 -2 157 -61l-30 -45q-55 58 -137 58q-118 0 -204.5 -93.5t-86.5 -211.5q0 -97 59.5 -162t155.5 -65q86 0 154 57l18 -46q-71 -58 -175 -60l-10 -77h-44l11 79q-102 12 -162.5 87t-60.5 179z" />
    <glyph glyph-name="sterling" unicode="&#xa3;" horiz-adv-x="532" 
d="M406 575q-40 0 -72.5 -24.5t-53 -64t-32.5 -77.5t-18 -77h148l-6 -40h-148q-7 -49 -40 -140.5t-60 -107.5h275l-6 -44h-366l6 44h12q24 0 48 31t40.5 74t27.5 81.5t14 61.5h-107l6 40h107q6 49 22.5 96.5t43.5 92.5t69.5 73t93.5 28q30 0 61.5 -11.5t48.5 -32.5l-28 -38
q-30 35 -86 35z" />
    <glyph glyph-name="currency" unicode="&#xa4;" horiz-adv-x="558" 
d="M524 299q0 -93 -60 -159l62 -72l-41 -36l-60 71q-59 -45 -134 -45q-70 0 -119 43l-78 -69l-30 36l79 69q-26 40 -26 96q0 91 59 159l-57 67l40 35l57 -66q59 45 133 45q77 0 124 -47l77 69l31 -36l-80 -70q23 -37 23 -90zM297 100q76 0 130 57t54 133q0 62 -38 101
t-100 39q-71 0 -127.5 -57.5t-56.5 -128.5q0 -60 39.5 -102t98.5 -42z" />
    <glyph glyph-name="yen" unicode="&#xa5;" horiz-adv-x="535" 
d="M546 612l-245 -308h119l-5 -39h-123l-7 -45h124l-6 -39h-123l-26 -181h-52l26 181h-124l6 39h123l6 45h-123l6 39h119l-158 308h56l139 -262l212 262h56z" />
    <glyph glyph-name="brokenbar" unicode="&#xa6;" horiz-adv-x="372" 
d="M181 207l-54 -386h-52l55 386h51zM245 662l-54 -386h-52l55 386h51z" />
    <glyph glyph-name="section" unicode="&#xa7;" horiz-adv-x="548" 
d="M380 127q27 20 44.5 49.5t17.5 62.5q0 24 -11.5 43.5t-34 34.5t-42 24.5t-48 21.5t-40.5 18q-40 -14 -67 -43t-27 -67q0 -34 37.5 -60.5t96 -49.5t74.5 -34zM495 251q0 -46 -21 -89t-58 -70q25 -32 25 -77q0 -88 -64.5 -146t-152.5 -58q-47 0 -97 16.5t-83 45.5l33 46
q28 -24 70.5 -41t76.5 -17q64 0 113.5 39t49.5 101q0 36 -27.5 62.5t-67 44.5t-79.5 36.5t-67.5 49t-27.5 71.5q0 46 27 86.5t69 62.5q-43 35 -43 83q0 85 68 133.5t156 48.5q91 0 138 -48l-25 -43q-44 41 -116 41q-59 0 -113 -31.5t-54 -86.5q0 -5 1 -7q6 -30 36 -53.5
t68.5 -39.5t76 -34.5t63 -50t25.5 -75.5z" />
    <glyph glyph-name="dieresis" unicode="&#xa8;" horiz-adv-x="363" 
d="M91 762q14 0 23.5 -10t9.5 -24q0 -18 -13.5 -31t-30.5 -13q-14 0 -24 9.5t-10 23.5q0 17 13.5 31t31.5 14zM301 762q14 0 23.5 -10t9.5 -24q0 -18 -13.5 -31t-30.5 -13q-14 0 -24.5 9.5t-10.5 23.5q0 18 14 31.5t32 13.5z" />
    <glyph glyph-name="copyright" unicode="&#xa9;" horiz-adv-x="729" 
d="M426 632q122 0 204.5 -81t82.5 -203q0 -149 -115 -262.5t-265 -113.5q-123 0 -205 81t-82 203q0 149 115 262.5t265 113.5zM337 1q136 0 241 103t105 239q0 111 -75 185t-186 74q-136 0 -241 -103.5t-105 -239.5q0 -111 75 -184.5t186 -73.5zM358 142q65 0 115 40l15 -29
q-26 -22 -64 -35t-73 -13q-72 0 -114.5 46t-42.5 118q0 92 61 161t152 69q33 0 68 -12.5t55 -34.5l-23 -30q-18 19 -47 29.5t-56 10.5q-68 0 -119 -57t-51 -125q0 -57 34 -97.5t90 -40.5z" />
    <glyph glyph-name="ordfeminine" unicode="&#xaa;" horiz-adv-x="347" 
d="M204 584q-58 0 -94.5 -48t-36.5 -108q0 -46 24 -78t69 -32q24 0 60.5 17.5t42.5 38.5q2 9 4 27.5t2 20.5q2 10 6 32.5t6.5 40t2.5 31.5q0 25 -29.5 41.5t-56.5 16.5zM345 314l-15 -34q-45 0 -60 49q-43 -48 -114 -48q-58 0 -90 40t-32 100q0 77 46.5 138.5t121.5 61.5
q58 0 95 -39l4 31h40q-1 -7 -11 -67t-16.5 -108.5t-6.5 -74.5q0 -48 38 -49z" />
    <glyph glyph-name="guillemotleft" unicode="&#xab;" horiz-adv-x="422" 
d="M243 498l-141 -209l82 -209h-54l-86 209l144 209h55zM410 498l-141 -209l82 -209h-55l-85 209l144 209h55z" />
    <glyph glyph-name="logicalnot" unicode="&#xac;" horiz-adv-x="468" 
d="M456 405l-27 -189h-49l20 141h-356l6 48h406z" />
    <glyph glyph-name="uni00AD" unicode="&#xad;" horiz-adv-x="430" 
d="M412 296h-368l6 47h368z" />
    <glyph glyph-name="registered" unicode="&#xae;" horiz-adv-x="726" 
d="M426 632q122 0 204.5 -81t82.5 -203q0 -149 -115 -262.5t-265 -113.5q-123 0 -205 81t-82 203q0 149 115 262.5t265 113.5zM337 1q136 0 241 103t105 239q0 111 -75 185t-186 74q-136 0 -241 -103.5t-105 -239.5q0 -111 75 -184.5t186 -73.5zM512 393q0 -38 -26.5 -72.5
t-63.5 -38.5l76 -162h-44v1l-75 158h-83l-22 -159h-36l50 357h144q35 0 57.5 -24.5t22.5 -59.5zM407 312q27 0 47.5 24.5t20.5 51.5q0 23 -13.5 39.5t-35.5 16.5h-106l-19 -132h106z" />
    <glyph glyph-name="macron" unicode="&#xaf;" horiz-adv-x="428" 
d="M416 706l-5 -41h-367l5 41h367z" />
    <glyph glyph-name="degree" unicode="&#xb0;" horiz-adv-x="358" 
d="M197 635q48 0 80.5 -31t32.5 -79q0 -60 -45 -104.5t-105 -44.5q-49 0 -81.5 31t-32.5 80q0 60 45.5 104t105.5 44zM165 417q41 0 72.5 31t31.5 72q0 33 -22.5 53.5t-56.5 20.5q-41 0 -71.5 -29.5t-30.5 -70.5q0 -34 22 -55.5t55 -21.5z" />
    <glyph glyph-name="plusminus" unicode="&#xb1;" horiz-adv-x="468" 
d="M454 360l-7 -45h-158l-22 -161h-52l23 161h-158l7 45h157l23 161h51l-22 -161h158zM411 40h-367l6 46h367z" />
    <glyph glyph-name="twosuperior" unicode="&#xb2;" horiz-adv-x="258" 
d="M158 622q39 0 67 -18.5t28 -56.5q0 -28 -16.5 -52.5t-41 -43.5t-50 -37t-47.5 -40.5t-30 -46.5h163l-6 -40h-210q4 30 9 46q11 33 42.5 64t62.5 50t55.5 43.5t24.5 47.5q0 22 -18 32t-42 10q-42 0 -84 -33l-10 36q44 39 103 39z" />
    <glyph glyph-name="threesuperior" unicode="&#xb3;" horiz-adv-x="261" 
d="M117 319q34 0 58 22t24 57q0 12 -4.5 21.5t-14.5 14.5l-17 8.5t-23 4.5t-21 1h-21l5 32l94 97h-130l5 36h184l-4 -33l-92 -95q36 -4 58.5 -25.5t22.5 -56.5q0 -51 -39 -87t-90 -36q-26 0 -54 11.5t-43 30.5l25 31q29 -34 77 -34z" />
    <glyph glyph-name="acute" unicode="&#xb4;" horiz-adv-x="206" 
d="M114 613h-48l68 126h63z" />
    <glyph glyph-name="paragraph" unicode="&#xb6;" horiz-adv-x="437" 
d="M448 615l-5 -40h-69l-94 -668h-44l94 668h-117l-93 -668h-44l68 484q-41 0 -69.5 27.5t-28.5 68.5q0 51 39 89.5t90 38.5h273z" />
    <glyph glyph-name="cedilla" unicode="&#xb8;" horiz-adv-x="581" 
d="M357 8l-74 -143l-62 1l93 142h43z" />
    <glyph glyph-name="onesuperior" unicode="&#xb9;" horiz-adv-x="139" 
d="M108 613h28l-46 -325h-42l39 279l-56 -26l-6 37q54 26 83 35z" />
    <glyph glyph-name="ordmasculine" unicode="&#xba;" horiz-adv-x="361" 
d="M174 281q-58 0 -90.5 40.5t-32.5 99.5q0 75 48.5 136t121.5 61q59 0 92 -39.5t33 -99.5q0 -76 -49 -137t-123 -61zM93 429q0 -43 22.5 -76.5t63.5 -33.5q54 0 89.5 49t35.5 104q0 44 -23 76t-65 32q-51 0 -87 -49t-36 -102z" />
    <glyph glyph-name="guillemotright" unicode="&#xbb;" horiz-adv-x="422" 
d="M352 294l-83 209h55l86 -209l-144 -209h-55zM185 294l-83 209h55l86 -209l-144 -209h-55z" />
    <glyph glyph-name="questiondown" unicode="&#xbf;" horiz-adv-x="399" 
d="M356 691q15 0 25.5 -10t10.5 -25q0 -18 -14.5 -32t-32.5 -14q-16 0 -26.5 9.5t-10.5 25.5q0 19 14.5 32.5t33.5 13.5zM204 -23q-68 0 -113 37.5t-45 104.5q0 98 68.5 160t167.5 62l25 180h48l-31 -225h-38q-81 0 -133.5 -44.5t-52.5 -124.5q0 -50 34 -76t85 -26
q55 0 121 42l11 -44q-28 -19 -70.5 -32.5t-76.5 -13.5z" />
    <glyph glyph-name="Agrave" unicode="&#xc0;" horiz-adv-x="522" 
d="M306 612h62l124 -612h-55l-37 178h-248l-87 -178h-56zM327 544l-154 -319h220zM338 827l33 -126h-47l-49 126h63z" />
    <glyph glyph-name="Aacute" unicode="&#xc1;" horiz-adv-x="522" 
d="M306 612h62l124 -612h-55l-37 178h-248l-87 -178h-56zM327 544l-154 -319h220zM372 700h-47l68 126h63z" />
    <glyph glyph-name="Acircumflex" unicode="&#xc2;" horiz-adv-x="522" 
d="M306 612h62l124 -612h-55l-37 178h-248l-87 -178h-56zM327 544l-154 -319h220zM363 797l-59 -98h-41l77 134h55l40 -134h-41z" />
    <glyph glyph-name="Atilde" unicode="&#xc3;" horiz-adv-x="554" 
d="M306 612h62l124 -612h-55l-37 178h-248l-87 -178h-56zM327 544l-154 -319h220zM215 689l-35 22q45 65 119 65q25 0 65 -15.5t63 -15.5q42 0 66 34l38 -19q-40 -59 -104 -59q-28 0 -67.5 15.5t-63.5 15.5q-51 0 -81 -43z" />
    <glyph glyph-name="Adieresis" unicode="&#xc4;" horiz-adv-x="530" 
d="M306 612h62l124 -612h-55l-37 178h-248l-87 -178h-56zM327 544l-154 -319h220zM254 775q14 0 24 -10t10 -24q0 -17 -13.5 -30.5t-31.5 -13.5q-14 0 -23.5 9.5t-9.5 23.5q0 17 13.5 31t30.5 14zM464 775q14 0 24 -10t10 -24q0 -17 -13.5 -30.5t-31.5 -13.5q-14 0 -24 9.5
t-10 23.5q0 18 14 31.5t31 13.5z" />
    <glyph glyph-name="Aring" unicode="&#xc5;" horiz-adv-x="516" 
d="M306 612h62l124 -612h-55l-37 178h-248l-87 -178h-56zM327 544l-154 -319h220zM368 837q32 0 54 -21t22 -53q0 -40 -30 -70t-70 -30q-33 0 -55 21t-22 54q0 40 30.5 69.5t70.5 29.5zM362 799q-21 0 -38.5 -16.5t-17.5 -37.5q0 -18 12 -31t30 -13q21 0 39.5 17.5
t18.5 38.5q0 18 -13 30t-31 12z" />
    <glyph glyph-name="AE" unicode="&#xc6;" horiz-adv-x="728" 
d="M694 564h-312l-31 -217h254l-7 -46h-253l-36 -253h312l-6 -48h-364l25 178h-125l-87 -178h-55l299 612h393zM282 225l45 319l-154 -319h109z" />
    <glyph glyph-name="Ccedilla" unicode="&#xc7;" horiz-adv-x="576" 
d="M49 259q0 141 104.5 251.5t244.5 110.5q106 0 164 -62l-30 -45q-54 57 -139 57q-117 0 -203 -93t-86 -211q0 -98 59 -163t156 -65q85 0 154 58l18 -46q-73 -60 -188 -60h-12l-64 -122l-59 5l80 123q-92 19 -145.5 92.5t-53.5 169.5z" />
    <glyph glyph-name="Egrave" unicode="&#xc8;" horiz-adv-x="508" 
d="M145 347h253l-6 -47h-253l-36 -252h312l-7 -48h-364l86 612h364l-7 -48h-311zM326 826l33 -126h-47l-49 126h63z" />
    <glyph glyph-name="Eacute" unicode="&#xc9;" horiz-adv-x="508" 
d="M145 347h253l-6 -47h-253l-36 -252h312l-7 -48h-364l86 612h364l-7 -48h-311zM348 700h-47l68 126h63z" />
    <glyph glyph-name="Ecircumflex" unicode="&#xca;" horiz-adv-x="508" 
d="M145 347h253l-6 -47h-253l-36 -252h312l-7 -48h-364l86 612h364l-7 -48h-311zM346 798l-59 -98h-41l78 134h55l40 -134h-41z" />
    <glyph glyph-name="Edieresis" unicode="&#xcb;" horiz-adv-x="508" 
d="M145 347h253l-6 -47h-253l-36 -252h312l-7 -48h-364l86 612h364l-7 -48h-311zM233 772q14 0 23.5 -9.5t9.5 -23.5q0 -18 -13.5 -31.5t-30.5 -13.5q-14 0 -24 9.5t-10 23.5q0 18 13.5 31.5t31.5 13.5zM443 772q14 0 23.5 -9.5t9.5 -23.5q0 -18 -13.5 -31.5t-30.5 -13.5
q-15 0 -25 9.5t-10 24.5q0 17 14 30.5t32 13.5z" />
    <glyph glyph-name="Igrave" unicode="&#xcc;" horiz-adv-x="212" 
d="M183 612l-86 -612h-53l86 612h53zM161 827l33 -126h-47l-49 126h63z" />
    <glyph glyph-name="Iacute" unicode="&#xcd;" horiz-adv-x="224" 
d="M183 612l-86 -612h-53l86 612h53zM192 701h-48l69 126h63z" />
    <glyph glyph-name="Icircumflex" unicode="&#xce;" horiz-adv-x="206" 
d="M183 612l-86 -612h-53l86 612h53zM183 798l-59 -98h-41l77 134h55l40 -134h-41z" />
    <glyph glyph-name="Idieresis" unicode="&#xcf;" horiz-adv-x="215" 
d="M178 612l-86 -612h-52l86 612h52zM70 772q14 0 24 -9.5t10 -23.5q0 -18 -13.5 -31.5t-31.5 -13.5q-14 0 -23.5 9.5t-9.5 23.5q0 18 13 31.5t31 13.5zM280 772q14 0 23.5 -9.5t9.5 -23.5q0 -18 -13 -31.5t-31 -13.5q-14 0 -24 9.5t-10 24.5q0 17 13.5 30.5t31.5 13.5z" />
    <glyph glyph-name="Eth" unicode="&#xd0;" horiz-adv-x="583" 
d="M354 612q99 0 156.5 -75t57.5 -177q0 -61 -22.5 -124.5t-61 -116t-95.5 -86t-121 -33.5h-182l40 285h-82l6 43h82l40 284h182zM275 48q53 0 99 30t76 76t47 99t17 102q0 84 -43.5 146.5t-123.5 62.5h-130l-33 -236h173l-6 -43h-173l-34 -237h131z" />
    <glyph glyph-name="Ntilde" unicode="&#xd1;" horiz-adv-x="556" 
d="M542 612l-86 -612h-56l-232 512l-72 -512h-52l86 612h55l232 -516l72 516h53zM213 689l-34 22q19 29 51.5 47t67.5 18q24 0 64 -15.5t63 -15.5q41 0 66 35l37 -20q-40 -59 -103 -59q-28 0 -67.5 16t-63.5 16q-50 0 -81 -44z" />
    <glyph glyph-name="Ograve" unicode="&#xd2;" horiz-adv-x="592" 
d="M358 622q105 0 162.5 -74t57.5 -182q0 -67 -21 -133.5t-59.5 -121t-98 -88t-130.5 -33.5q-106 0 -163 72.5t-57 181.5q0 66 21.5 132.5t60 121.5t98 89.5t129.5 34.5zM351 575q-79 0 -137 -53.5t-83.5 -126t-25.5 -148.5q0 -90 42.5 -150t128.5 -60q60 0 108.5 30.5
t78 79.5t45 105.5t15.5 112.5q0 90 -42.5 150t-129.5 60zM373 828l33 -126h-48l-48 126h63z" />
    <glyph glyph-name="Oacute" unicode="&#xd3;" horiz-adv-x="592" 
d="M358 622q105 0 162.5 -74t57.5 -182q0 -67 -21 -133.5t-59.5 -121t-98 -88t-130.5 -33.5q-106 0 -163 72.5t-57 181.5q0 66 21.5 132.5t60 121.5t98 89.5t129.5 34.5zM351 575q-79 0 -137 -53.5t-83.5 -126t-25.5 -148.5q0 -90 42.5 -150t128.5 -60q60 0 108.5 30.5
t78 79.5t45 105.5t15.5 112.5q0 90 -42.5 150t-129.5 60zM382 701h-48l68 126h63z" />
    <glyph glyph-name="Ocircumflex" unicode="&#xd4;" horiz-adv-x="592" 
d="M358 622q105 0 162.5 -74t57.5 -182q0 -67 -21 -133.5t-59.5 -121t-98 -88t-130.5 -33.5q-106 0 -163 72.5t-57 181.5q0 66 21.5 132.5t60 121.5t98 89.5t129.5 34.5zM351 575q-79 0 -137 -53.5t-83.5 -126t-25.5 -148.5q0 -90 42.5 -150t128.5 -60q60 0 108.5 30.5
t78 79.5t45 105.5t15.5 112.5q0 90 -42.5 150t-129.5 60zM382 798l-58 -98h-42l78 134h55l40 -134h-41z" />
    <glyph glyph-name="Otilde" unicode="&#xd5;" horiz-adv-x="592" 
d="M358 622q105 0 162.5 -74t57.5 -182q0 -67 -21 -133.5t-59.5 -121t-98 -88t-130.5 -33.5q-106 0 -163 72.5t-57 181.5q0 66 21.5 132.5t60 121.5t98 89.5t129.5 34.5zM351 575q-79 0 -137 -53.5t-83.5 -126t-25.5 -148.5q0 -90 42.5 -150t128.5 -60q60 0 108.5 30.5
t78 79.5t45 105.5t15.5 112.5q0 90 -42.5 150t-129.5 60zM235 689l-35 22q45 65 119 65q24 0 64.5 -15.5t63.5 -15.5q42 0 65 34l38 -19q-39 -59 -103 -59q-28 0 -67.5 15.5t-63.5 15.5q-51 0 -81 -43z" />
    <glyph glyph-name="Odieresis" unicode="&#xd6;" horiz-adv-x="592" 
d="M358 622q105 0 162.5 -74t57.5 -182q0 -67 -21 -133.5t-59.5 -121t-98 -88t-130.5 -33.5q-106 0 -163 72.5t-57 181.5q0 66 21.5 132.5t60 121.5t98 89.5t129.5 34.5zM351 575q-79 0 -137 -53.5t-83.5 -126t-25.5 -148.5q0 -90 42.5 -150t128.5 -60q60 0 108.5 30.5
t78 79.5t45 105.5t15.5 112.5q0 90 -42.5 150t-129.5 60zM276 783q14 0 23.5 -10t9.5 -24q0 -18 -13.5 -31t-30.5 -13q-14 0 -24 9.5t-10 23.5q0 17 13.5 31t31.5 14zM486 783q14 0 23.5 -10t9.5 -24q0 -18 -13.5 -31t-30.5 -13q-14 0 -24.5 9.5t-10.5 23.5q0 18 14 31.5
t32 13.5z" />
    <glyph glyph-name="multiply" unicode="&#xd7;" horiz-adv-x="379" 
d="M335 203l-38 -32l-96 111l-129 -114l-31 36l130 113l-97 113l37 33l97 -113l129 113l31 -35l-130 -114z" />
    <glyph glyph-name="Oslash" unicode="&#xd8;" horiz-adv-x="594" 
d="M358 622q60 0 105 -28l63 105h45l-76 -125q83 -71 83 -208q0 -67 -21 -133.5t-59.5 -121t-98 -88t-130.5 -33.5q-61 0 -109 29l-56 -92h-45l68 113q-78 71 -78 204q0 66 21.5 132.5t60 121.5t98 89.5t129.5 34.5zM351 575q-59 0 -108 -30.5t-78 -79.5t-44.5 -105
t-15.5 -112q0 -103 50 -160l283 463q-37 24 -87 24zM276 37q79 0 137 53t83.5 125t25.5 149q0 107 -53 163l-284 -463q38 -27 91 -27z" />
    <glyph glyph-name="Ugrave" unicode="&#xd9;" horiz-adv-x="530" 
d="M224 -10q-78 0 -128 51t-50 129q0 10 2 30l58 412h52l-58 -412q-1 -7 -1 -22q0 -58 37.5 -97.5t94.5 -39.5q64 0 115.5 47.5t60.5 111.5l57 412h52l-58 -412q-12 -87 -79.5 -148.5t-154.5 -61.5zM327 826l33 -126h-48l-48 126h63z" />
    <glyph glyph-name="Uacute" unicode="&#xda;" horiz-adv-x="530" 
d="M224 -10q-78 0 -128 51t-50 129q0 10 2 30l58 412h52l-58 -412q-1 -7 -1 -22q0 -58 37.5 -97.5t94.5 -39.5q64 0 115.5 47.5t60.5 111.5l57 412h52l-58 -412q-12 -87 -79.5 -148.5t-154.5 -61.5zM341 700h-48l68 126h63z" />
    <glyph glyph-name="Ucircumflex" unicode="&#xdb;" horiz-adv-x="530" 
d="M224 -10q-78 0 -128 51t-50 129q0 10 2 30l58 412h52l-58 -412q-1 -7 -1 -22q0 -58 37.5 -97.5t94.5 -39.5q64 0 115.5 47.5t60.5 111.5l57 412h52l-58 -412q-12 -87 -79.5 -148.5t-154.5 -61.5zM337 798l-59 -98h-41l78 134h54l41 -134h-42z" />
    <glyph glyph-name="Udieresis" unicode="&#xdc;" horiz-adv-x="530" 
d="M224 -10q-78 0 -128 51t-50 129q0 10 2 30l58 412h52l-58 -412q-1 -7 -1 -22q0 -58 37.5 -97.5t94.5 -39.5q64 0 115.5 47.5t60.5 111.5l57 412h52l-58 -412q-12 -87 -79.5 -148.5t-154.5 -61.5zM228 772q14 0 23.5 -10t9.5 -24q0 -18 -13.5 -31t-30.5 -13q-15 0 -24.5 9
t-9.5 24q0 17 13.5 31t31.5 14zM438 772q14 0 23.5 -10t9.5 -24q0 -18 -13.5 -31t-30.5 -13q-15 0 -25 9t-10 24q0 17 14 31t32 14z" />
    <glyph glyph-name="Yacute" unicode="&#xdd;" horiz-adv-x="500" 
d="M455 612h56l-250 -315l-41 -297h-53l42 297l-161 315h56l138 -263zM315 701h-48l69 126h63z" />
    <glyph glyph-name="Thorn" unicode="&#xde;" horiz-adv-x="481" 
d="M165 512q9 0 37.5 0.5t43 0t42.5 -1.5t44.5 -5t39.5 -10t36.5 -16.5t27 -24.5t19.5 -34.5t6 -45.5q0 -10 -2 -32q-5 -35 -18 -62.5t-31 -45t-42 -29.5t-50 -17.5t-55 -9t-58.5 -3.5h-58.5h-28l-25 -176h-49l94 663h48zM218 224q33 0 58.5 3t52 12t44 24t28.5 41t11 61
q0 32 -14 53t-39.5 30t-48.5 12t-55 3h-97l-33 -239h93z" />
    <glyph glyph-name="germandbls" unicode="&#xdf;" horiz-adv-x="480" 
d="M455 515q0 -31 -16.5 -59t-35.5 -44t-35.5 -34.5t-16.5 -34.5q0 -13 11.5 -27t28.5 -28.5t33.5 -30.5t28 -40.5t11.5 -52.5q0 -68 -54 -121t-122 -53q-52 0 -93 28l24 43q38 -23 73 -23q47 0 83.5 39.5t36.5 86.5q0 30 -18.5 54.5t-40 38.5t-40 35.5t-18.5 45.5
q0 21 11 39t26.5 31.5t31.5 27t27 31.5t11 39q0 34 -27.5 51t-63.5 17q-67 0 -108.5 -51t-50.5 -122l-56 -401h-52l56 397q14 96 70 160t148 64q56 0 96.5 -26.5t40.5 -79.5z" />
    <glyph glyph-name="agrave" unicode="&#xe0;" horiz-adv-x="548" 
d="M532 33l-21 -43q-36 0 -55 21.5t-34 62.5q-33 -40 -81.5 -62t-101.5 -22q-90 0 -139 62.5t-49 155.5q0 77 30.5 147.5t92.5 118t141 47.5q42 0 84.5 -18.5t65.5 -50.5l8 56h54l-47 -331q-5 -32 -5 -57q0 -36 12.5 -62t44.5 -25zM255 39q40 0 81 19.5t70 50.5q15 17 16 24
q4 17 8.5 52t5.5 44q2 19 9.5 67t10.5 74v5q0 43 -47.5 70t-93.5 27q-94 0 -153 -78.5t-59 -174.5q0 -76 39.5 -128t112.5 -52zM356 741l32 -126h-47l-48 126h63z" />
    <glyph glyph-name="aacute" unicode="&#xe1;" horiz-adv-x="548" 
d="M532 33l-21 -43q-36 0 -55 21.5t-34 62.5q-33 -40 -81.5 -62t-101.5 -22q-90 0 -139 62.5t-49 155.5q0 77 30.5 147.5t92.5 118t141 47.5q42 0 84.5 -18.5t65.5 -50.5l8 56h54l-47 -331q-5 -32 -5 -57q0 -36 12.5 -62t44.5 -25zM255 39q40 0 81 19.5t70 50.5q15 17 16 24
q4 17 8.5 52t5.5 44q2 19 9.5 67t10.5 74v5q0 43 -47.5 70t-93.5 27q-94 0 -153 -78.5t-59 -174.5q0 -76 39.5 -128t112.5 -52zM376 612h-47l68 126h63z" />
    <glyph glyph-name="acircumflex" unicode="&#xe2;" horiz-adv-x="548" 
d="M532 33l-21 -43q-36 0 -55 21.5t-34 62.5q-33 -40 -81.5 -62t-101.5 -22q-90 0 -139 62.5t-49 155.5q0 77 30.5 147.5t92.5 118t141 47.5q42 0 84.5 -18.5t65.5 -50.5l8 56h54l-47 -331q-5 -32 -5 -57q0 -36 12.5 -62t44.5 -25zM255 39q40 0 81 19.5t70 50.5q15 17 16 24
q4 17 8.5 52t5.5 44q2 19 9.5 67t10.5 74v5q0 43 -47.5 70t-93.5 27q-94 0 -153 -78.5t-59 -174.5q0 -76 39.5 -128t112.5 -52zM368 710l-58 -98h-42l78 134h55l40 -134h-41z" />
    <glyph glyph-name="atilde" unicode="&#xe3;" horiz-adv-x="552" 
d="M532 33l-21 -43q-36 0 -55 21.5t-34 62.5q-33 -40 -81.5 -62t-101.5 -22q-90 0 -139 62.5t-49 155.5q0 77 30.5 147.5t92.5 118t141 47.5q42 0 84.5 -18.5t65.5 -50.5l8 56h54l-47 -331q-5 -32 -5 -57q0 -36 12.5 -62t44.5 -25zM255 39q40 0 81 19.5t70 50.5q15 17 16 24
q4 17 8.5 52t5.5 44q2 19 9.5 67t10.5 74v5q0 43 -47.5 70t-93.5 27q-94 0 -153 -78.5t-59 -174.5q0 -76 39.5 -128t112.5 -52zM219 625l-35 22q45 65 119 65q24 0 64.5 -15.5t63.5 -15.5q42 0 65 34l38 -19q-39 -59 -103 -59q-28 0 -67.5 15.5t-63.5 15.5q-51 0 -81 -43z
" />
    <glyph glyph-name="adieresis" unicode="&#xe4;" horiz-adv-x="548" 
d="M532 33l-21 -43q-36 0 -55 21.5t-34 62.5q-33 -40 -81.5 -62t-101.5 -22q-90 0 -139 62.5t-49 155.5q0 77 30.5 147.5t92.5 118t141 47.5q42 0 84.5 -18.5t65.5 -50.5l8 56h54l-47 -331q-5 -32 -5 -57q0 -36 12.5 -62t44.5 -25zM255 39q40 0 81 19.5t70 50.5q15 17 16 24
q4 17 8.5 52t5.5 44q2 19 9.5 67t10.5 74v5q0 43 -47.5 70t-93.5 27q-94 0 -153 -78.5t-59 -174.5q0 -76 39.5 -128t112.5 -52zM276 719q15 0 24.5 -10t9.5 -24q0 -18 -13.5 -31t-30.5 -13q-14 0 -24 9.5t-10 23.5q0 17 13.5 31t30.5 14zM486 719q15 0 24.5 -10t9.5 -24
q0 -18 -13.5 -31t-31.5 -13q-14 0 -24 9.5t-10 23.5q0 18 14 31.5t31 13.5z" />
    <glyph glyph-name="aring" unicode="&#xe5;" horiz-adv-x="548" 
d="M532 33l-21 -43q-36 0 -55 21.5t-34 62.5q-33 -40 -81.5 -62t-101.5 -22q-90 0 -139 62.5t-49 155.5q0 77 30.5 147.5t92.5 118t141 47.5q42 0 84.5 -18.5t65.5 -50.5l8 56h54l-47 -331q-5 -32 -5 -57q0 -36 12.5 -62t44.5 -25zM255 39q40 0 81 19.5t70 50.5q15 17 16 24
q4 17 8.5 52t5.5 44q2 19 9.5 67t10.5 74v5q0 43 -47.5 70t-93.5 27q-94 0 -153 -78.5t-59 -174.5q0 -76 39.5 -128t112.5 -52zM361 770q32 0 54 -21t22 -53q0 -40 -30 -70t-70 -30q-33 0 -55 21t-22 54q0 40 30.5 69.5t70.5 29.5zM355 732q-21 0 -38.5 -16.5t-17.5 -37.5
q0 -18 12 -31t30 -13q21 0 39.5 17t18.5 38q0 18 -13 30.5t-31 12.5z" />
    <glyph glyph-name="ae" unicode="&#xe6;" horiz-adv-x="790" 
d="M432 270q-8 -44 -8 -67q0 -68 38 -117.5t104 -49.5q38 0 79 15t68 40l18 -39q-30 -29 -78.5 -45.5t-93.5 -16.5q-108 0 -155 87q-38 -38 -94 -62.5t-108 -24.5q-68 0 -109.5 37.5t-41.5 104.5q0 81 58 139.5t139 58.5q33 0 75 -12.5t61 -32.5q7 35 7 57q0 131 -112 131
q-75 0 -143 -57l-13 40q32 28 77 45.5t86 17.5q64 0 99.5 -29t45.5 -92q74 121 207 121q60 0 98 -37t38 -97q0 -41 -20 -72t-53 -47.5t-69 -24.5t-75 -8q-77 0 -125 37zM627 475q-129 0 -183 -163q15 -16 53 -26.5t66 -10.5q65 0 114 26.5t49 85.5q0 40 -28.5 64t-70.5 24z
M212 32q44 0 91.5 23t81.5 57q-11 36 -11 80q0 22 3 44q-55 52 -129 52q-56 0 -101 -44t-45 -100q0 -51 29.5 -81.5t80.5 -30.5z" />
    <glyph glyph-name="ccedilla" unicode="&#xe7;" horiz-adv-x="492" 
d="M51 208q0 121 77 215.5t195 94.5q42 0 86 -16t69 -46l-29 -37q-21 25 -58 39t-72 14q-87 0 -152 -79.5t-65 -168.5q0 -75 41.5 -131t113.5 -56q37 0 77.5 14.5t67.5 38.5l19 -37q-62 -54 -175 -63l-69 -133l-60 5l85 133q-74 15 -112.5 75t-38.5 138z" />
    <glyph glyph-name="egrave" unicode="&#xe8;" horiz-adv-x="466" 
d="M109 270q-9 -40 -9 -67q0 -69 38 -118.5t105 -49.5q38 0 79 15t67 41l18 -39q-30 -29 -78.5 -45.5t-93.5 -16.5q-89 0 -136.5 58.5t-47.5 149.5q0 79 28.5 151t89.5 121t142 49q59 0 99 -35.5t40 -93.5q0 -43 -19 -75t-51 -49t-68 -25t-77 -8q-78 0 -126 37zM304 475
q-130 0 -184 -163q15 -16 53 -26.5t66 -10.5q65 0 114 26.5t49 85.5q0 41 -28.5 64.5t-69.5 23.5zM325 741l32 -126h-47l-48 126h63z" />
    <glyph glyph-name="eacute" unicode="&#xe9;" horiz-adv-x="466" 
d="M109 270q-9 -40 -9 -67q0 -69 38 -118.5t105 -49.5q38 0 79 15t67 41l18 -39q-30 -29 -78.5 -45.5t-93.5 -16.5q-89 0 -136.5 58.5t-47.5 149.5q0 79 28.5 151t89.5 121t142 49q59 0 99 -35.5t40 -93.5q0 -43 -19 -75t-51 -49t-68 -25t-77 -8q-78 0 -126 37zM304 475
q-130 0 -184 -163q15 -16 53 -26.5t66 -10.5q65 0 114 26.5t49 85.5q0 41 -28.5 64.5t-69.5 23.5zM440 739l-84 -126h-47l62 126h69z" />
    <glyph glyph-name="ecircumflex" unicode="&#xea;" horiz-adv-x="466" 
d="M109 270q-9 -40 -9 -67q0 -69 38 -118.5t105 -49.5q38 0 79 15t67 41l18 -39q-30 -29 -78.5 -45.5t-93.5 -16.5q-89 0 -136.5 58.5t-47.5 149.5q0 79 28.5 151t89.5 121t142 49q59 0 99 -35.5t40 -93.5q0 -43 -19 -75t-51 -49t-68 -25t-77 -8q-78 0 -126 37zM304 475
q-130 0 -184 -163q15 -16 53 -26.5t66 -10.5q65 0 114 26.5t49 85.5q0 41 -28.5 64.5t-69.5 23.5zM408 612h-41l-32 98l-58 -98h-42l78 134h55z" />
    <glyph glyph-name="edieresis" unicode="&#xeb;" horiz-adv-x="494" 
d="M109 270q-9 -40 -9 -67q0 -69 38 -118.5t105 -49.5q38 0 79 15t67 41l18 -39q-30 -29 -78.5 -45.5t-93.5 -16.5q-89 0 -136.5 58.5t-47.5 149.5q0 79 28.5 151t89.5 121t142 49q59 0 99 -35.5t40 -93.5q0 -43 -19 -75t-51 -49t-68 -25t-77 -8q-78 0 -126 37zM304 475
q-130 0 -184 -163q15 -16 53 -26.5t66 -10.5q65 0 114 26.5t49 85.5q0 41 -28.5 64.5t-69.5 23.5zM231 718q14 0 23.5 -10t9.5 -24q0 -17 -13.5 -30.5t-30.5 -13.5q-14 0 -24 9.5t-10 23.5q0 17 13.5 31t31.5 14zM441 718q14 0 23.5 -10t9.5 -24q0 -17 -13.5 -30.5
t-30.5 -13.5q-14 0 -24.5 9.5t-10.5 23.5q0 18 14 31.5t32 13.5z" />
    <glyph glyph-name="igrave" unicode="&#xec;" horiz-adv-x="188" 
d="M166 509l-71 -509h-49l72 509h48zM84 739h63l33 -126h-48z" />
    <glyph glyph-name="iacute" unicode="&#xed;" horiz-adv-x="195" 
d="M166 509l-71 -509h-49l72 509h48zM183 613h-48l68 126h63z" />
    <glyph glyph-name="icircumflex" unicode="&#xee;" horiz-adv-x="201" 
d="M166 509l-71 -509h-49l72 509h48zM171 711l-60 -99h-40l78 134h53l41 -134h-39z" />
    <glyph glyph-name="idieresis" unicode="&#xef;" horiz-adv-x="173" 
d="M167 509l-71 -509h-49l72 509h48zM67 718q15 0 24.5 -10t9.5 -24q0 -17 -13.5 -30.5t-30.5 -13.5q-14 0 -24 9.5t-10 23.5q0 17 13.5 31t30.5 14zM277 718q15 0 24.5 -10t9.5 -24q0 -17 -13.5 -30.5t-31.5 -13.5q-14 0 -24 9.5t-10 23.5q0 18 14 31.5t31 13.5z" />
    <glyph glyph-name="eth" unicode="&#xf0;" horiz-adv-x="438" 
d="M263 418q44 0 70 -20l-78 153l-95 -57l-13 26l96 59l-57 120h58l43 -93l85 52l14 -26l-87 -53q6 -13 19.5 -37t18.5 -34q86 -170 86 -270q0 -94 -62 -171t-154 -77q-73 0 -114.5 50t-41.5 125q0 62 24.5 119t74 95.5t113.5 38.5zM260 375q-70 0 -116 -64t-46 -137
q0 -57 30 -99.5t84 -42.5q73 0 118.5 65t45.5 141q0 59 -29.5 98t-86.5 39z" />
    <glyph glyph-name="ntilde" unicode="&#xf1;" horiz-adv-x="510" 
d="M311 520q75 0 113 -41t38 -117q0 -19 -4 -53l-44 -309h-47l37 263q6 36 6 71q0 133 -115 133q-50 0 -87 -33.5t-54.5 -76.5t-24.5 -94l-36 -263h-49l71 509h49l-13 -94q21 45 66 75t94 30zM184 625l-36 22q45 65 120 65q24 0 64.5 -15.5t63.5 -15.5q41 0 65 34l38 -19
q-40 -59 -103 -59q-29 0 -68 15.5t-63 15.5q-52 0 -81 -43z" />
    <glyph glyph-name="ograve" unicode="&#xf2;" horiz-adv-x="525" 
d="M317 518q90 0 141 -61.5t51 -153.5q0 -77 -31.5 -148t-94 -118.5t-140.5 -47.5q-90 0 -141 62t-51 154q0 120 74.5 216.5t191.5 96.5zM311 472q-86 0 -147.5 -82.5t-61.5 -171.5q0 -72 39.5 -128t107.5 -56q60 0 109.5 41.5t74.5 100t25 117.5q0 74 -38 126.5t-109 52.5z
M337 739l33 -126h-47l-49 126h63z" />
    <glyph glyph-name="oacute" unicode="&#xf3;" horiz-adv-x="525" 
d="M317 518q90 0 141 -61.5t51 -153.5q0 -77 -31.5 -148t-94 -118.5t-140.5 -47.5q-90 0 -141 62t-51 154q0 120 74.5 216.5t191.5 96.5zM311 472q-86 0 -147.5 -82.5t-61.5 -171.5q0 -72 39.5 -128t107.5 -56q60 0 109.5 41.5t74.5 100t25 117.5q0 74 -38 126.5t-109 52.5z
M350 613h-47l68 126h63z" />
    <glyph glyph-name="ocircumflex" unicode="&#xf4;" horiz-adv-x="525" 
d="M317 518q90 0 141 -61.5t51 -153.5q0 -77 -31.5 -148t-94 -118.5t-140.5 -47.5q-90 0 -141 62t-51 154q0 120 74.5 216.5t191.5 96.5zM311 472q-86 0 -147.5 -82.5t-61.5 -171.5q0 -72 39.5 -128t107.5 -56q60 0 109.5 41.5t74.5 100t25 117.5q0 74 -38 126.5t-109 52.5z
M345 710l-59 -98h-41l78 134h55l40 -134h-41z" />
    <glyph glyph-name="otilde" unicode="&#xf5;" horiz-adv-x="553" 
d="M343 518q90 0 141 -61.5t51 -153.5q0 -120 -75 -217t-192 -97q-90 0 -141 62t-51 154q0 120 75 216.5t192 96.5zM336 472q-86 0 -147 -82.5t-61 -171.5q0 -72 39 -128t108 -56q89 0 148.5 83t59.5 176q0 74 -38 126.5t-109 52.5zM222 602l-35 22q46 66 119 66
q25 0 65 -16t63 -16q42 0 66 34l38 -19q-40 -59 -103 -59q-29 0 -68.5 15.5t-63.5 15.5q-51 0 -81 -43z" />
    <glyph glyph-name="odieresis" unicode="&#xf6;" horiz-adv-x="525" 
d="M317 518q90 0 141 -61.5t51 -153.5q0 -77 -31.5 -148t-94 -118.5t-140.5 -47.5q-90 0 -141 62t-51 154q0 120 74.5 216.5t191.5 96.5zM311 472q-86 0 -147.5 -82.5t-61.5 -171.5q0 -72 39.5 -128t107.5 -56q60 0 109.5 41.5t74.5 100t25 117.5q0 74 -38 126.5t-109 52.5z
M241 718q14 0 23.5 -10t9.5 -24q0 -17 -13.5 -30.5t-30.5 -13.5q-14 0 -24 9.5t-10 23.5q0 17 13.5 31t31.5 14zM451 718q14 0 23.5 -10t9.5 -24q0 -17 -13.5 -30.5t-30.5 -13.5q-14 0 -24.5 9.5t-10.5 23.5q0 18 14 31.5t32 13.5z" />
    <glyph glyph-name="divide" unicode="&#xf7;" horiz-adv-x="376" 
d="M290 474q0 -19 -14 -33t-33 -14q-15 0 -25 10t-10 25q0 19 14 33t33 14q15 0 25 -10t10 -25zM238 105q0 -19 -14 -32.5t-32 -13.5q-15 0 -25.5 10t-10.5 25q0 18 14 32t33 14q15 0 25 -10t10 -25zM407 262h-373l7 47h373z" />
    <glyph glyph-name="oslash" unicode="&#xf8;" horiz-adv-x="563" 
d="M337 517q48 0 89 -23l74 124h40l-85 -142q74 -61 74 -175q0 -120 -75 -216.5t-191 -96.5q-47 0 -88 21l-76 -125h-40l87 143q-75 61 -75 176q0 77 31.5 148t94 118.5t140.5 47.5zM331 471q-86 0 -147.5 -82.5t-61.5 -171.5q0 -87 51 -141l229 375q-30 20 -71 20zM269 33
q90 0 149.5 82.5t59.5 176.5q0 89 -48 138l-230 -376q30 -21 69 -21z" />
    <glyph glyph-name="ugrave" unicode="&#xf9;" horiz-adv-x="477" 
d="M195 -11q-151 0 -151 161q0 29 4 52l42 307h48l-37 -265q-6 -48 -6 -72q0 -132 115 -132q73 0 113.5 60.5t52.5 143.5l38 265h48l-71 -509h-48l13 93q-21 -45 -67 -74.5t-94 -29.5zM294 739l32 -126h-47l-48 126h63z" />
    <glyph glyph-name="uacute" unicode="&#xfa;" horiz-adv-x="477" 
d="M195 -11q-151 0 -151 161q0 29 4 52l42 307h48l-37 -265q-6 -48 -6 -72q0 -132 115 -132q73 0 113.5 60.5t52.5 143.5l38 265h48l-71 -509h-48l13 93q-21 -45 -67 -74.5t-94 -29.5zM304 613h-47l68 126h63z" />
    <glyph glyph-name="ucircumflex" unicode="&#xfb;" horiz-adv-x="477" 
d="M195 -11q-151 0 -151 161q0 29 4 52l42 307h48l-37 -265q-6 -48 -6 -72q0 -132 115 -132q73 0 113.5 60.5t52.5 143.5l38 265h48l-71 -509h-48l13 93q-21 -45 -67 -74.5t-94 -29.5zM305 710l-59 -98h-42l78 134h55l40 -134h-41z" />
    <glyph glyph-name="udieresis" unicode="&#xfc;" horiz-adv-x="477" 
d="M195 -11q-151 0 -151 161q0 29 4 52l42 307h48l-37 -265q-6 -48 -6 -72q0 -132 115 -132q73 0 113.5 60.5t52.5 143.5l38 265h48l-71 -509h-48l13 93q-21 -45 -67 -74.5t-94 -29.5zM200 718q14 0 24 -10t10 -24q0 -17 -13.5 -30.5t-31.5 -13.5q-14 0 -23.5 9.5t-9.5 23.5
q0 17 13.5 31t30.5 14zM410 718q14 0 24 -10t10 -24q0 -17 -13.5 -30.5t-31.5 -13.5q-14 0 -24 9.5t-10 23.5q0 18 14 31.5t31 13.5z" />
    <glyph glyph-name="yacute" unicode="&#xfd;" horiz-adv-x="461" 
d="M77 -182q-16 0 -41 8t-34 18l28 38q28 -19 51 -19q34 0 67 50t48 97l-101 499h52l86 -420l205 420h51q-17 -35 -106.5 -221t-138.5 -285q-3 -6 -17 -36.5t-21 -43.5t-22.5 -37.5t-29 -36t-34 -21.5t-43.5 -10zM328 613h-48l68 126h63z" />
    <glyph glyph-name="thorn" unicode="&#xfe;" horiz-adv-x="519" 
d="M310 520q89 0 139.5 -57t50.5 -147q0 -76 -31 -149.5t-93.5 -125t-140.5 -51.5q-77 0 -138 56l-26 -181h-48l117 835h49l-33 -234q71 54 154 54zM297 473q-37 0 -78.5 -17t-70.5 -43l-43 -309q20 -31 56.5 -49t74.5 -18q94 0 153 84t59 182q0 73 -40 121.5t-111 48.5z
" />
    <glyph glyph-name="ydieresis" unicode="&#xff;" horiz-adv-x="461" 
d="M77 -182q-16 0 -41 8t-34 18l28 38q28 -19 51 -19q34 0 67 50t48 97l-101 499h52l86 -420l205 420h51q-17 -35 -106.5 -221t-138.5 -285q-3 -6 -17 -36.5t-21 -43.5t-22.5 -37.5t-29 -36t-34 -21.5t-43.5 -10zM215 718q14 0 24 -10t10 -24q0 -17 -13.5 -30.5t-31.5 -13.5
q-14 0 -23.5 9.5t-9.5 23.5q0 17 13.5 31t30.5 14zM425 718q14 0 24 -10t10 -24q0 -17 -13.5 -30.5t-31.5 -13.5q-14 0 -24 9.5t-10 23.5q0 18 14 31.5t31 13.5z" />
    <glyph glyph-name="Amacron" unicode="&#x100;" horiz-adv-x="524" 
d="M306 612h62l124 -612h-55l-37 178h-248l-87 -178h-56zM327 544l-154 -319h220zM538 743l-5 -40h-367l5 40h367z" />
    <glyph glyph-name="amacron" unicode="&#x101;" horiz-adv-x="553" 
d="M532 33l-21 -43q-36 0 -55 21.5t-34 62.5q-33 -40 -81.5 -62t-101.5 -22q-90 0 -139 62.5t-49 155.5q0 77 30.5 147.5t92.5 118t141 47.5q42 0 84.5 -18.5t65.5 -50.5l8 56h54l-47 -331q-5 -32 -5 -57q0 -36 12.5 -62t44.5 -25zM255 39q40 0 81 19.5t70 50.5q15 17 16 24
q4 17 8.5 52t5.5 44q2 19 9.5 67t10.5 74v5q0 43 -47.5 70t-93.5 27q-94 0 -153 -78.5t-59 -174.5q0 -76 39.5 -128t112.5 -52zM537 657l-6 -41h-367l6 41h367z" />
    <glyph glyph-name="Abreve" unicode="&#x102;" horiz-adv-x="522" 
d="M306 612h62l124 -612h-55l-37 178h-248l-87 -178h-56zM327 544l-154 -319h220zM353 727q21 0 38 15.5t20 36.5h43q-6 -39 -36.5 -66t-69.5 -27q-35 0 -58 22t-23 57q0 10 1 14h42q-2 -20 10.5 -36t32.5 -16z" />
    <glyph glyph-name="abreve" unicode="&#x103;" horiz-adv-x="548" 
d="M532 33l-21 -43q-36 0 -55 21.5t-34 62.5q-33 -40 -81.5 -62t-101.5 -22q-90 0 -139 62.5t-49 155.5q0 77 30.5 147.5t92.5 118t141 47.5q42 0 84.5 -18.5t65.5 -50.5l8 56h54l-47 -331q-5 -32 -5 -57q0 -36 12.5 -62t44.5 -25zM255 39q40 0 81 19.5t70 50.5q15 17 16 24
q4 17 8.5 52t5.5 44q2 19 9.5 67t10.5 74v5q0 43 -47.5 70t-93.5 27q-94 0 -153 -78.5t-59 -174.5q0 -76 39.5 -128t112.5 -52zM356 640q21 0 38 16t20 37h43q-6 -39 -36.5 -66t-69.5 -27q-35 0 -58 21.5t-23 56.5q0 10 1 15h42q-2 -21 10.5 -37t32.5 -16z" />
    <glyph glyph-name="Aogonek" unicode="&#x104;" horiz-adv-x="518" 
d="M492 0q-52 -33 -52 -83q0 -42 45 -42q15 0 34 13l13 -29q-23 -20 -62 -20q-32 0 -52 19.5t-20 50.5q0 23 11 49.5t27 41.5l-36 178h-248l-87 -178h-56l297 612h62zM327 544l-154 -319h220z" />
    <glyph glyph-name="aogonek" unicode="&#x105;" horiz-adv-x="592" 
d="M561 -108l14 -29q-24 -20 -65 -20q-30 0 -49.5 20t-19.5 50q0 43 34 82q-9 5 -16.5 10.5t-13 15t-8.5 14.5t-8 18.5t-7 17.5q-32 -40 -82 -61.5t-102 -21.5q-90 0 -138.5 61t-48.5 154q0 78 30 149.5t91.5 119.5t141.5 48q43 0 85 -18.5t66 -50.5l7 56h55l-31 -220
q-2 -11 -8.5 -51.5t-9.5 -67t-3 -51.5q0 -87 57 -87q-2 -5 -9 -19.5t-11 -21.5q-4 -8 -12.5 -19.5t-12.5 -21.5t-4 -26q0 -21 12 -32t33 -11q14 0 33 13zM255 37q40 0 81 19.5t70 50.5q15 18 16 23q4 18 8.5 53t5.5 44q3 25 10 72t10 70v5q0 43 -47.5 70t-93.5 27
q-64 0 -113.5 -40t-74 -98t-24.5 -120q0 -75 39 -125.5t113 -50.5z" />
    <glyph glyph-name="Cacute" unicode="&#x106;" horiz-adv-x="576" 
d="M398 621q106 0 164 -62l-30 -45q-54 57 -139 57q-117 0 -203 -93t-86 -211q0 -98 59 -163t156 -65q86 0 154 58l18 -46q-74 -61 -181 -61q-115 0 -188 77t-73 192q0 142 104.5 252t244.5 110zM416 701h-48l69 126h63z" />
    <glyph glyph-name="cacute" unicode="&#x107;" horiz-adv-x="492" 
d="M51 208q0 121 77 216t195 95q42 0 86 -16.5t69 -45.5l-29 -38q-21 25 -57.5 39t-71.5 14q-88 0 -153 -79.5t-65 -168.5q0 -75 41.5 -130.5t113.5 -55.5q37 0 77 14.5t68 38.5l19 -38q-32 -29 -80.5 -46t-92.5 -17q-92 0 -144.5 62t-52.5 156zM358 613h-47l68 126h63z" />
    <glyph glyph-name="Ccircumflex" unicode="&#x108;" horiz-adv-x="576" 
d="M398 621q106 0 164 -62l-30 -45q-54 57 -139 57q-117 0 -203 -93t-86 -211q0 -98 59 -163t156 -65q86 0 154 58l18 -46q-74 -61 -181 -61q-115 0 -188 77t-73 192q0 142 104.5 252t244.5 110zM398 797l-59 -98h-41l77 134h55l40 -134h-41z" />
    <glyph glyph-name="ccircumflex" unicode="&#x109;" horiz-adv-x="492" 
d="M51 208q0 121 77 216t195 95q42 0 86 -16.5t69 -45.5l-29 -38q-21 25 -57.5 39t-71.5 14q-88 0 -153 -79.5t-65 -168.5q0 -75 41.5 -130.5t113.5 -55.5q37 0 77 14.5t68 38.5l19 -38q-32 -29 -80.5 -46t-92.5 -17q-92 0 -144.5 62t-52.5 156zM347 710l-59 -98h-41l78 134
h55l40 -134h-41z" />
    <glyph glyph-name="Cdotaccent" unicode="&#x10a;" horiz-adv-x="576" 
d="M398 621q106 0 164 -62l-30 -45q-54 57 -139 57q-117 0 -203 -93t-86 -211q0 -98 59 -163t156 -65q86 0 154 58l18 -46q-74 -61 -181 -61q-115 0 -188 77t-73 192q0 142 104.5 252t244.5 110zM387 786q18 0 30 -12.5t12 -29.5q0 -21 -17 -38t-38 -17q-17 0 -29.5 12.5
t-12.5 29.5q0 22 17 38.5t38 16.5z" />
    <glyph glyph-name="cdotaccent" unicode="&#x10b;" horiz-adv-x="492" 
d="M51 208q0 121 77 216t195 95q42 0 86 -16.5t69 -45.5l-29 -38q-21 25 -57.5 39t-71.5 14q-88 0 -153 -79.5t-65 -168.5q0 -75 41.5 -130.5t113.5 -55.5q37 0 77 14.5t68 38.5l19 -38q-32 -29 -80.5 -46t-92.5 -17q-92 0 -144.5 62t-52.5 156zM324 704q17 0 29 -12t12 -29
q0 -21 -17 -38t-38 -17q-17 0 -29 12t-12 30q0 22 16.5 38t38.5 16z" />
    <glyph glyph-name="Ccaron" unicode="&#x10c;" horiz-adv-x="576" 
d="M398 621q106 0 164 -62l-30 -45q-54 57 -139 57q-117 0 -203 -93t-86 -211q0 -98 59 -163t156 -65q86 0 154 58l18 -46q-74 -61 -181 -61q-115 0 -188 77t-73 192q0 142 104.5 252t244.5 110zM379 734l60 100h40l-78 -134h-54l-40 134h41z" />
    <glyph glyph-name="ccaron" unicode="&#x10d;" horiz-adv-x="492" 
d="M51 208q0 121 77 216t195 95q42 0 86 -16.5t69 -45.5l-29 -38q-21 25 -57.5 39t-71.5 14q-88 0 -153 -79.5t-65 -168.5q0 -75 41.5 -130.5t113.5 -55.5q37 0 77 14.5t68 38.5l19 -38q-32 -29 -80.5 -46t-92.5 -17q-92 0 -144.5 62t-52.5 156zM309 646l60 99h40l-78 -134
h-54l-40 134h41z" />
    <glyph glyph-name="Dcaron" unicode="&#x10e;" horiz-adv-x="536" 
d="M521 361q0 -62 -22 -125.5t-60.5 -116t-96 -86t-121.5 -33.5h-177l86 612h177q100 0 157 -74.5t57 -176.5zM188 48h44q69 2 124 53t82.5 119.5t27.5 135.5q0 82 -41 143.5t-120 64.5h-44h-85l-73 -516h85zM319 734l59 100h40l-78 -134h-54l-40 134h41z" />
    <glyph glyph-name="dcaron" unicode="&#x10f;" horiz-adv-x="569" 
d="M630 613h-47l68 126h63zM51 212q0 80 29.5 149t90.5 114t142 45q84 0 137 -55l33 235h48l-98 -700h-48l6 42q-69 -53 -153 -53q-89 0 -138 65.5t-49 157.5zM311 472q-64 0 -112.5 -39t-72 -96t-23.5 -120q0 -76 37.5 -128.5t110.5 -52.5q39 0 80.5 18.5t67.5 47.5l44 310
q-23 27 -60 43.5t-72 16.5z" />
    <glyph glyph-name="Dcroat" unicode="&#x110;" horiz-adv-x="583" 
d="M568 360q0 -61 -22.5 -124.5t-61 -116t-95.5 -86t-121 -33.5h-183l40 285h-81l6 43h81l40 284h183q99 0 156.5 -75t57.5 -177zM275 48q69 0 125.5 51t84.5 120.5t28 136.5q0 83 -43 145.5t-123 62.5h-130l-33 -236l142 -1l-5 -42h-143l-34 -237h131z" />
    <glyph glyph-name="dcroat" unicode="&#x111;" horiz-adv-x="538" 
d="M616 620l-5 -41h-97l-81 -578h-48l6 42q-69 -53 -153 -53q-89 0 -138 65.5t-49 157.5q0 124 71 215.5t191 91.5q37 0 74.5 -14.5t62.5 -39.5l16 114h-96l6 40h96l11 81h48l-11 -81h96zM399 103l44 309q-23 27 -60 43.5t-72 16.5q-64 0 -112.5 -39t-72 -96t-23.5 -119
q0 -77 37 -129.5t111 -52.5q39 0 80.5 19t67.5 48z" />
    <glyph glyph-name="Emacron" unicode="&#x112;" horiz-adv-x="534" 
d="M145 347h253l-6 -47h-253l-36 -252h312l-7 -48h-364l86 612h364l-7 -48h-311zM520 743l-6 -40h-367l6 40h367z" />
    <glyph glyph-name="emacron" unicode="&#x113;" horiz-adv-x="509" 
d="M109 270q-9 -40 -9 -67q0 -69 38 -118.5t105 -49.5q38 0 79 15t67 41l18 -39q-30 -29 -78.5 -45.5t-93.5 -16.5q-89 0 -136.5 58.5t-47.5 149.5q0 79 28.5 151t89.5 121t142 49q59 0 99 -35.5t40 -93.5q0 -43 -19 -75t-51 -49t-68 -25t-77 -8q-78 0 -126 37zM304 475
q-130 0 -184 -163q15 -16 53 -26.5t66 -10.5q65 0 114 26.5t49 85.5q0 41 -28.5 64.5t-69.5 23.5zM509 657l-6 -40h-367l6 40h367z" />
    <glyph glyph-name="Ebreve" unicode="&#x114;" horiz-adv-x="508" 
d="M145 347h253l-6 -47h-253l-36 -252h312l-7 -48h-364l86 612h364l-7 -48h-311zM329 725q21 0 38 16t20 37h43q-6 -39 -36.5 -66t-69.5 -27q-35 0 -58 21.5t-23 56.5q0 10 1 15h42q-2 -21 10.5 -37t32.5 -16z" />
    <glyph glyph-name="ebreve" unicode="&#x115;" horiz-adv-x="466" 
d="M109 270q-9 -40 -9 -67q0 -69 38 -118.5t105 -49.5q38 0 79 15t67 41l18 -39q-30 -29 -78.5 -45.5t-93.5 -16.5q-89 0 -136.5 58.5t-47.5 149.5q0 79 28.5 151t89.5 121t142 49q59 0 99 -35.5t40 -93.5q0 -43 -19 -75t-51 -49t-68 -25t-77 -8q-78 0 -126 37zM304 475
q-130 0 -184 -163q15 -16 53 -26.5t66 -10.5q65 0 114 26.5t49 85.5q0 41 -28.5 64.5t-69.5 23.5zM328 645q21 0 38.5 15.5t19.5 36.5h43q-5 -39 -35.5 -66t-70.5 -27q-35 0 -58 22t-23 57q0 9 1 14h42q-2 -21 10 -36.5t33 -15.5z" />
    <glyph glyph-name="Edotaccent" unicode="&#x116;" horiz-adv-x="508" 
d="M145 347h253l-6 -47h-253l-36 -252h312l-7 -48h-364l86 612h364l-7 -48h-311zM330 798q18 0 29.5 -12t11.5 -30q0 -21 -16.5 -37.5t-37.5 -16.5q-18 0 -30 12t-12 29q0 22 17 38.5t38 16.5z" />
    <glyph glyph-name="edotaccent" unicode="&#x117;" horiz-adv-x="466" 
d="M109 270q-9 -40 -9 -67q0 -69 38 -118.5t105 -49.5q38 0 79 15t67 41l18 -39q-30 -29 -78.5 -45.5t-93.5 -16.5q-89 0 -136.5 58.5t-47.5 149.5q0 79 28.5 151t89.5 121t142 49q59 0 99 -35.5t40 -93.5q0 -43 -19 -75t-51 -49t-68 -25t-77 -8q-78 0 -126 37zM304 475
q-130 0 -184 -163q15 -16 53 -26.5t66 -10.5q65 0 114 26.5t49 85.5q0 41 -28.5 64.5t-69.5 23.5zM326 707q18 0 29.5 -12t11.5 -30q0 -21 -16.5 -38t-37.5 -17q-18 0 -30 12.5t-12 29.5q0 22 17 38.5t38 16.5z" />
    <glyph glyph-name="Eogonek" unicode="&#x118;" horiz-adv-x="508" 
d="M408 0q-21 -8 -38.5 -34t-17.5 -49q0 -21 12 -32t33 -11q15 0 33 14l14 -29q-23 -20 -62 -20q-31 0 -51.5 19.5t-20.5 50.5q0 51 44 91h-310l86 612h364l-6 -48h-312l-30 -217h252l-6 -46h-253l-36 -253h312z" />
    <glyph glyph-name="eogonek" unicode="&#x119;" horiz-adv-x="466" 
d="M363 -104q14 0 34 13l13 -28q-21 -20 -60 -20q-32 0 -53 20t-21 52q0 30 22 65q-34 -8 -65 -8q-88 0 -135 59t-47 149q0 79 28.5 151t89.5 121t142 49q59 0 99 -35t40 -93q0 -57 -33.5 -94t-79 -50.5t-101.5 -13.5q-80 0 -127 37q-9 -40 -9 -67q0 -69 38 -118t105 -49
q38 0 79 15t67 40l18 -39q-9 -9 -36.5 -27.5t-39.5 -37t-12 -48.5q0 -43 44 -43zM304 475q-130 0 -184 -163q16 -16 53.5 -26.5t65.5 -10.5q65 0 114 26.5t49 85.5q0 40 -28.5 64t-69.5 24z" />
    <glyph glyph-name="Ecaron" unicode="&#x11a;" horiz-adv-x="508" 
d="M145 347h253l-6 -47h-253l-36 -252h312l-7 -48h-364l86 612h364l-7 -48h-311zM330 734l60 99h40l-78 -134h-54l-40 134h40z" />
    <glyph glyph-name="ecaron" unicode="&#x11b;" horiz-adv-x="466" 
d="M109 270q-9 -40 -9 -67q0 -69 38 -118.5t105 -49.5q38 0 79 15t67 41l18 -39q-30 -29 -78.5 -45.5t-93.5 -16.5q-89 0 -136.5 58.5t-47.5 149.5q0 79 28.5 151t89.5 121t142 49q59 0 99 -35.5t40 -93.5q0 -43 -19 -75t-51 -49t-68 -25t-77 -8q-78 0 -126 37zM304 475
q-130 0 -184 -163q15 -16 53 -26.5t66 -10.5q65 0 114 26.5t49 85.5q0 41 -28.5 64.5t-69.5 23.5zM336 647l60 99h40l-78 -134h-54l-40 134h41z" />
    <glyph glyph-name="Gcircumflex" unicode="&#x11c;" horiz-adv-x="591" 
d="M488 293h52l-31 -219q-26 -38 -85.5 -61t-111.5 -23q-116 0 -189.5 77.5t-73.5 193.5q0 141 106 251t247 110q48 0 96.5 -17.5t78.5 -49.5l-31 -45q-26 27 -68 45t-79 18q-117 0 -205.5 -93t-88.5 -211q0 -98 61 -164t158 -66q36 0 75 15t62 41zM395 798l-59 -98h-42
l78 134h54l40 -134h-40z" />
    <glyph glyph-name="gcircumflex" unicode="&#x11d;" horiz-adv-x="535" 
d="M66 226q0 116 73.5 204.5t187.5 88.5q89 0 140 -50l5 40h48l-54 -386q-8 -57 -9 -59q-16 -104 -81.5 -179t-164.5 -75q-40 0 -88 17t-72 45l30 38q17 -21 61 -37t75 -16q73 0 127 62.5t65 139.5q-60 -44 -147 -44q-91 0 -143.5 60t-52.5 151zM330 473q-95 0 -154.5 -71
t-59.5 -168q0 -75 41 -123.5t115 -48.5q42 0 84.5 17.5t62.5 49.5q5 33 19 131.5t21 152.5q-19 28 -56 44t-73 16zM357 710l-58 -98h-42l78 134h55l40 -134h-41z" />
    <glyph glyph-name="Gbreve" unicode="&#x11e;" horiz-adv-x="591" 
d="M488 293h52l-31 -219q-26 -38 -85.5 -61t-111.5 -23q-116 0 -189.5 77.5t-73.5 193.5q0 141 106 251t247 110q48 0 96.5 -17.5t78.5 -49.5l-31 -45q-26 27 -68 45t-79 18q-117 0 -205.5 -93t-88.5 -211q0 -98 61 -164t158 -66q36 0 75 15t62 41zM365 733q21 0 38.5 16
t20.5 37h42q-5 -40 -35 -67t-70 -27q-36 0 -59 22t-23 57q0 3 0.5 8t0.5 7h43q-3 -21 9.5 -37t32.5 -16z" />
    <glyph glyph-name="gbreve" unicode="&#x11f;" horiz-adv-x="535" 
d="M66 226q0 116 73.5 204.5t187.5 88.5q89 0 140 -50l5 40h48l-54 -386q-8 -57 -9 -59q-16 -104 -81.5 -179t-164.5 -75q-40 0 -88 17t-72 45l30 38q17 -21 61 -37t75 -16q73 0 127 62.5t65 139.5q-60 -44 -147 -44q-91 0 -143.5 60t-52.5 151zM330 473q-95 0 -154.5 -71
t-59.5 -168q0 -75 41 -123.5t115 -48.5q42 0 84.5 17.5t62.5 49.5q5 33 19 131.5t21 152.5q-19 28 -56 44t-73 16zM331 641q21 0 38 16t20 37h42q-5 -40 -35 -67t-70 -27q-35 0 -58 22t-23 57q0 10 1 15h42q-2 -21 10 -37t33 -16z" />
    <glyph glyph-name="Gdotaccent" unicode="&#x120;" horiz-adv-x="591" 
d="M540 292l-31 -218q-26 -38 -85.5 -61t-111.5 -23q-116 0 -189.5 77.5t-73.5 193.5q0 141 106 251t247 110q48 0 96.5 -17.5t78.5 -49.5l-31 -45q-25 28 -67 45.5t-80 17.5q-117 0 -205.5 -93t-88.5 -211q0 -98 61 -164t158 -66q86 0 137 56l27 197h52zM359 786
q18 0 30 -12.5t12 -29.5q0 -21 -17 -37.5t-38 -16.5q-17 0 -29.5 12t-12.5 29q0 22 17 38.5t38 16.5z" />
    <glyph glyph-name="gdotaccent" unicode="&#x121;" horiz-adv-x="535" 
d="M66 226q0 116 73.5 204.5t187.5 88.5q89 0 140 -50l5 40h48l-54 -386q-8 -57 -9 -59q-16 -104 -81.5 -179t-164.5 -75q-40 0 -88 17t-72 45l30 38q17 -21 61 -37t75 -16q73 0 127 62.5t65 139.5q-60 -44 -147 -44q-91 0 -143.5 60t-52.5 151zM330 473q-95 0 -154.5 -71
t-59.5 -168q0 -75 41 -123.5t115 -48.5q42 0 84.5 17.5t62.5 49.5q5 33 19 131.5t21 152.5q-19 28 -56 44t-73 16zM345 707q17 0 29 -12.5t12 -29.5q0 -21 -16.5 -38t-37.5 -17q-18 0 -30 12.5t-12 29.5q0 22 17 38.5t38 16.5z" />
    <glyph glyph-name="Gcommaaccent" unicode="&#x122;" horiz-adv-x="591" 
d="M540 292l-31 -218q-26 -38 -85.5 -61t-111.5 -23q-116 0 -189.5 77.5t-73.5 193.5q0 141 106 251t247 110q48 0 96.5 -17.5t78.5 -49.5l-31 -45q-25 28 -67 45.5t-80 17.5q-117 0 -205.5 -93t-88.5 -211q0 -98 61 -164t158 -66q86 0 137 56l27 197h52zM291 -66
q19 0 29.5 -14.5t10.5 -39.5q0 -36 -26.5 -72.5t-61.5 -43.5q-1 5 -2.5 14.5t-2.5 14.5q44 10 55 63q-8 -3 -14 -3q-14 0 -24 11.5t-10 26.5q0 18 13.5 30.5t32.5 12.5z" />
    <glyph glyph-name="gcommaaccent" unicode="&#x123;" horiz-adv-x="535" 
d="M472 509h48l-54 -386q-8 -57 -9 -59q-16 -104 -81.5 -179t-164.5 -75q-40 0 -88 17t-72 45l30 38q17 -21 61 -37t75 -16q73 0 127 62.5t65 139.5q-60 -44 -147 -44q-91 0 -143.5 60t-52.5 151q0 116 73.5 204.5t187.5 88.5q89 0 140 -50zM419 129q5 33 19 131.5t21 152.5
q-19 28 -56 44t-73 16q-95 0 -154.5 -71t-59.5 -168q0 -75 41 -123.5t115 -48.5q42 0 84.5 17.5t62.5 49.5zM316 665q0 39 25.5 76t62.5 44l6 -29q-48 -11 -56 -63q6 3 13 3q15 0 25 -9t10 -24q0 -19 -14.5 -33.5t-33.5 -14.5q-38 0 -38 50z" />
    <glyph glyph-name="Hcircumflex" unicode="&#x124;" horiz-adv-x="556" 
d="M145 350h308l37 262h52l-86 -612h-52l43 301h-309l-42 -301h-52l86 612h52zM361 798l-59 -98h-41l78 134h55l40 -134h-41z" />
    <glyph glyph-name="hcircumflex" unicode="&#x125;" 
d="M311 520q75 0 113 -41t38 -117q0 -19 -4 -53l-44 -309h-47l37 263q6 36 6 71q0 133 -115 133q-50 0 -87 -33.5t-54.5 -76.5t-24.5 -94l-36 -263h-49l98 700h49l-40 -285q21 45 66 75t94 30zM363 848l-59 -98h-41l78 134h54l40 -134h-41z" />
    <glyph glyph-name="Hbar" unicode="&#x126;" horiz-adv-x="598" 
d="M475 476h-308l-18 -126h308zM546 612l-13 -96h51l-6 -40h-51l-67 -476h-52l42 301h-308l-42 -301h-52l67 476h-60l6 40h60l13 96h52l-14 -96h308l14 96h52z" />
    <glyph glyph-name="hbar" unicode="&#x127;" horiz-adv-x="487" 
d="M321 520q76 0 114 -41.5t38 -117.5q0 -18 -4 -52l-44 -309h-47l37 264q5 38 5 71q0 132 -114 132q-51 0 -88 -33.5t-54 -76t-24 -93.5l-37 -264h-49l83 592h-91l6 40h91l9 68h49l-10 -68h112l-6 -40h-111l-25 -176q21 45 66 74.5t94 29.5z" />
    <glyph glyph-name="Itilde" unicode="&#x128;" horiz-adv-x="223" 
d="M162 612l-86 -612h-52l86 612h52zM15 681l-36 22q45 65 120 65q24 0 64 -15.5t63 -15.5q42 0 66 34l38 -19q-40 -59 -103 -59q-29 0 -68.5 15.5t-63.5 15.5q-51 0 -80 -43z" />
    <glyph glyph-name="itilde" unicode="&#x129;" horiz-adv-x="178" 
d="M151 509l-71 -509h-49l72 509h48zM8 598l-35 22q46 66 119 66q24 0 64 -16t63 -16q40 0 64 35l37 -20q-42 -59 -105 -59q-27 0 -65.5 16t-61.5 16q-51 0 -80 -44z" />
    <glyph glyph-name="Imacron" unicode="&#x12a;" horiz-adv-x="245" 
d="M174 612l-86 -612h-53l86 612h53zM349 743l-6 -40h-367l6 40h367z" />
    <glyph glyph-name="imacron" unicode="&#x12b;" horiz-adv-x="202" 
d="M173 509l-72 -509h-49l72 509h49zM353 657l-6 -41h-367l6 41h367z" />
    <glyph glyph-name="Ibreve" unicode="&#x12c;" horiz-adv-x="208" 
d="M183 612l-86 -612h-53l86 612h53zM174 737q22 0 39 15.5t19 36.5h43q-5 -39 -35.5 -66t-70.5 -27q-35 0 -58 22t-23 57q0 9 1 14h42q-2 -21 10 -36.5t33 -15.5z" />
    <glyph glyph-name="ibreve" unicode="&#x12d;" horiz-adv-x="267" 
d="M166 509l-71 -509h-49l72 509h48zM163 657q20 0 37.5 15.5t20.5 35.5h42q-5 -39 -35 -66t-70 -27q-35 0 -58.5 22t-23.5 57q0 3 0.5 7.5t0.5 6.5h43q-3 -20 9.5 -35.5t33.5 -15.5z" />
    <glyph glyph-name="Iogonek" unicode="&#x12e;" horiz-adv-x="196" 
d="M-4 -86q0 24 16 51t34 35l84 612h52l-86 -612q-22 -9 -39.5 -33.5t-17.5 -47.5q0 -43 43 -43q16 0 34 14l14 -29q-24 -21 -62 -21q-32 0 -52 21t-20 53z" />
    <glyph glyph-name="iogonek" unicode="&#x12f;" horiz-adv-x="196" 
d="M148 553q-14 -1 -23 8t-9 22q0 16 12.5 28t28.5 12q13 0 22 -8.5t9 -21.5q0 -16 -12 -28t-28 -12zM116 -122l14 -29q-25 -20 -62 -20q-32 0 -52 19t-20 51q0 59 51 101l68 497h49l-69 -497q-21 -9 -38.5 -39t-17.5 -53q0 -43 44 -43q13 0 33 13z" />
    <glyph glyph-name="Idotaccent" unicode="&#x130;" horiz-adv-x="228" 
d="M183 612l-86 -612h-53l86 612h53zM182 786q17 0 29 -12.5t12 -29.5q0 -21 -17 -37.5t-38 -16.5q-17 0 -29.5 12t-12.5 29q0 22 17 38.5t39 16.5z" />
    <glyph glyph-name="dotlessi" unicode="&#x131;" horiz-adv-x="242" 
d="M104 483h173l-68 -480h-51l61 433h-122z" />
    <glyph glyph-name="Jcircumflex" unicode="&#x134;" horiz-adv-x="452" 
d="M176 41q61 0 97.5 46t45.5 112l58 411h51l-44 -313q-10 -72 -16 -107q-14 -86 -64 -144t-132 -58q-77 0 -127 49l30 47q38 -43 101 -43zM429 797l-59 -98h-42l78 134h55l40 -134h-41z" />
    <glyph glyph-name="jcircumflex" unicode="&#x135;" horiz-adv-x="261" 
d="M-1 -144q88 0 111 157l70 496h49l-57 -407q-19 -131 -40 -184q-44 -108 -137 -108q-52 0 -80 23l24 40q21 -17 60 -17zM235 711l-61 -99h-40l78 134h55l40 -134h-40z" />
    <glyph glyph-name="Kcommaaccent" unicode="&#x136;" horiz-adv-x="498" 
d="M193 335l246 -335h-64l-235 310l-43 -310h-53l86 612h53l-36 -253l281 253h63zM245 -66q19 0 29.5 -14.5t10.5 -39.5q0 -36 -26.5 -72.5t-61.5 -43.5q-1 5 -2.5 14.5t-2.5 14.5q44 10 55 63q-7 -3 -14 -3q-14 0 -24 11.5t-10 26.5q0 18 13.5 30.5t32.5 12.5z" />
    <glyph glyph-name="kcommaaccent" unicode="&#x137;" horiz-adv-x="458" 
d="M182 302l248 -302h-69l-228 276l-38 -276h-49l99 700h48l-53 -373l236 182h69zM236 -66q40 0 40 -54q0 -37 -26 -73t-62 -43q-2 9 -4 29q45 10 54 63q-6 -3 -13 -3q-15 0 -24.5 11.5t-9.5 26.5q0 18 13.5 30.5t31.5 12.5z" />
    <glyph glyph-name="Lacute" unicode="&#x139;" horiz-adv-x="325" 
d="M311 48l-7 -48h-260l86 612h52l-79 -564h208zM277 827l-83 -126h-47l67 126h63z" />
    <glyph glyph-name="lacute" unicode="&#x13a;" horiz-adv-x="277" 
d="M240 12q-40 -23 -86 -23q-107 0 -107 142q0 29 8 85l68 484h49l-72 -514q-3 -26 -3 -51q0 -99 68 -99q34 0 62 17zM180 741h-48l68 126h63z" />
    <glyph glyph-name="Lcommaaccent" unicode="&#x13b;" horiz-adv-x="325" 
d="M311 48l-7 -48h-260l86 612h52l-79 -564h208zM182 -66q40 0 40 -54q0 -37 -26 -73t-61 -43q-3 9 -5 29q44 10 55 63q-7 -3 -14 -3q-14 0 -24 11.5t-10 26.5q0 18 13.5 30.5t31.5 12.5z" />
    <glyph glyph-name="lcommaaccent" unicode="&#x13c;" horiz-adv-x="254" 
d="M240 12q-40 -23 -86 -23q-107 0 -107 142q0 29 8 85l68 484h49l-72 -514q-3 -26 -3 -51q0 -99 68 -99q34 0 62 17zM141 -66q19 0 29.5 -14.5t10.5 -39.5q0 -36 -26.5 -72.5t-61.5 -43.5q-1 5 -2.5 14.5t-2.5 14.5q46 10 55 63q-6 -3 -14 -3q-14 0 -24 11.5t-10 26.5
q0 18 13.5 30.5t32.5 12.5z" />
    <glyph glyph-name="Lcaron" unicode="&#x13d;" horiz-adv-x="395" 
d="M386 685l-73 -109h-45l59 109h59zM311 48l-7 -48h-260l86 612h52l-79 -564h208z" />
    <glyph glyph-name="lcaron" unicode="&#x13e;" horiz-adv-x="348" 
d="M314 612h-48l68 126h63zM240 12q-40 -23 -86 -23q-107 0 -107 142q0 29 8 85l68 484h49l-72 -514q-3 -26 -3 -51q0 -99 68 -99q34 0 62 17z" />
    <glyph glyph-name="Ldot" unicode="&#x13f;" horiz-adv-x="345" 
d="M311 48l-7 -48h-260l86 612h52l-79 -564h208zM298 360q17 0 29 -12t12 -30q0 -21 -17 -37.5t-38 -16.5q-17 0 -29.5 12t-12.5 30q0 21 17 37.5t39 16.5z" />
    <glyph glyph-name="ldot" unicode="&#x140;" horiz-adv-x="349" 
d="M239 13q-37 -24 -84 -24q-58 0 -83 40t-25 102q0 29 8 85l68 484h49l-72 -514q-4 -23 -4 -51q0 -98 68 -98q36 0 62 17zM339 355q0 -21 -16.5 -38t-37.5 -17q-18 0 -30 12t-12 30q0 21 17 37.5t38 16.5q17 0 29 -12t12 -29z" />
    <glyph glyph-name="Lslash" unicode="&#x141;" horiz-adv-x="427" 
d="M191 48h207l-7 -48h-259l41 296l-129 -83l8 51l128 82l38 266h52l-33 -233l176 111l-7 -50l-176 -112z" />
    <glyph glyph-name="lslash" unicode="&#x142;" horiz-adv-x="429" 
d="M342 41l13 -40q-38 -24 -80 -24q-112 0 -112 144q0 27 3 55t10 72t8 54l-138 -88l7 50l138 88l47 336h50l-43 -306l169 108l-6 -49l-169 -108q-2 -13 -10.5 -63.5t-12.5 -84t-4 -64.5q0 -96 67 -96q37 0 63 16z" />
    <glyph glyph-name="Nacute" unicode="&#x143;" horiz-adv-x="556" 
d="M542 612l-86 -612h-56l-232 512l-72 -512h-52l86 612h55l232 -516l72 516h53zM367 701h-48l68 126h63z" />
    <glyph glyph-name="nacute" unicode="&#x144;" 
d="M311 520q75 0 113 -41t38 -117q0 -19 -4 -53l-44 -309h-47l37 263q6 36 6 71q0 133 -115 133q-50 0 -87 -33.5t-54.5 -76.5t-24.5 -94l-36 -263h-49l71 509h49l-13 -94q21 45 66 75t94 30zM328 613h-47l68 126h63z" />
    <glyph glyph-name="Ncommaaccent" unicode="&#x145;" horiz-adv-x="556" 
d="M542 612l-86 -612h-56l-232 512l-72 -512h-52l86 612h55l232 -516l72 516h53zM275 -66q19 0 29.5 -14.5t10.5 -39.5q0 -36 -26.5 -72.5t-61.5 -43.5q-1 5 -2.5 14.5t-2.5 14.5q44 10 55 63q-7 -3 -14 -3q-14 0 -24 11.5t-10 26.5q0 18 13.5 30.5t32.5 12.5z" />
    <glyph glyph-name="ncommaaccent" unicode="&#x146;" 
d="M311 520q75 0 113 -41t38 -117q0 -19 -4 -53l-44 -309h-46l36 263q6 36 6 71q0 133 -115 133q-50 0 -87 -33.5t-54.5 -76.5t-24.5 -94l-36 -263h-49l71 509h49l-13 -94q21 45 66 75t94 30zM245 -66q40 0 40 -54q0 -37 -26 -73t-62 -43q-2 9 -4 29q45 10 54 63
q-6 -3 -13 -3q-15 0 -24.5 11.5t-9.5 26.5q0 18 13.5 30.5t31.5 12.5z" />
    <glyph glyph-name="Ncaron" unicode="&#x147;" horiz-adv-x="556" 
d="M542 612l-86 -612h-56l-232 512l-72 -512h-52l86 612h55l232 -516l72 516h53zM351 734l60 100h41l-78 -134h-55l-40 134h41z" />
    <glyph glyph-name="ncaron" unicode="&#x148;" 
d="M311 520q75 0 113 -41t38 -117q0 -19 -4 -53l-44 -309h-47l37 263q6 36 6 71q0 133 -115 133q-50 0 -87 -33.5t-54.5 -76.5t-24.5 -94l-36 -263h-49l71 509h49l-13 -94q21 45 66 75t94 30zM321 647l59 99h40l-78 -134h-53l-41 134h41z" />
    <glyph glyph-name="napostrophe" unicode="&#x149;" horiz-adv-x="522" 
d="M357 520q150 0 150 -158q0 -30 -4 -53l-43 -309h-47l37 263q6 48 6 71q0 133 -115 133q-73 0 -113.5 -61t-52.5 -143l-37 -263h-49l72 509h48l-13 -94q21 46 66 75.5t95 29.5zM106 672q14 -14 14 -41q0 -37 -26 -72.5t-61 -42.5q-1 5 -2.5 14.5t-2.5 14.5q46 9 55 62
q-8 -2 -14 -2q-14 0 -24 9.5t-10 23.5q0 18 14 32.5t32 14.5t25 -13z" />
    <glyph glyph-name="Omacron" unicode="&#x14c;" horiz-adv-x="592" 
d="M358 622q105 0 162.5 -74t57.5 -182q0 -67 -21 -133.5t-59.5 -121t-98 -88t-130.5 -33.5q-106 0 -163 72.5t-57 181.5q0 66 21.5 132.5t60 121.5t98 89.5t129.5 34.5zM351 575q-79 0 -137 -53.5t-83.5 -126t-25.5 -148.5q0 -90 42.5 -150t128.5 -60q60 0 108.5 30.5
t78 79.5t45 105.5t15.5 112.5q0 90 -42.5 150t-129.5 60zM558 743l-6 -40h-367l6 40h367z" />
    <glyph glyph-name="omacron" unicode="&#x14d;" horiz-adv-x="536" 
d="M317 518q90 0 141 -61.5t51 -153.5q0 -77 -31.5 -148t-94 -118.5t-140.5 -47.5q-90 0 -141 62t-51 154q0 120 74.5 216.5t191.5 96.5zM311 472q-86 0 -147.5 -82.5t-61.5 -171.5q0 -72 39.5 -128t107.5 -56q60 0 109.5 41.5t74.5 100t25 117.5q0 74 -38 126.5t-109 52.5z
M521 657l-6 -41h-367l6 41h367z" />
    <glyph glyph-name="Obreve" unicode="&#x14e;" horiz-adv-x="592" 
d="M358 622q105 0 162.5 -74t57.5 -182q0 -67 -21 -133.5t-59.5 -121t-98 -88t-130.5 -33.5q-106 0 -163 72.5t-57 181.5q0 66 21.5 132.5t60 121.5t98 89.5t129.5 34.5zM351 575q-79 0 -137 -53.5t-83.5 -126t-25.5 -148.5q0 -90 42.5 -150t128.5 -60q60 0 108.5 30.5
t78 79.5t45 105.5t15.5 112.5q0 90 -42.5 150t-129.5 60zM373 734q21 0 38 15.5t20 36.5h42q-5 -39 -35 -66t-70 -27q-35 0 -58.5 22t-23.5 57q0 3 0.5 7.5t0.5 6.5h43q-3 -20 9.5 -36t33.5 -16z" />
    <glyph glyph-name="obreve" unicode="&#x14f;" horiz-adv-x="525" 
d="M317 518q90 0 141 -61.5t51 -153.5q0 -77 -31.5 -148t-94 -118.5t-140.5 -47.5q-90 0 -141 62t-51 154q0 120 74.5 216.5t191.5 96.5zM311 472q-86 0 -147.5 -82.5t-61.5 -171.5q0 -72 39.5 -128t107.5 -56q60 0 109.5 41.5t74.5 100t25 117.5q0 74 -38 126.5t-109 52.5z
M336 653q21 0 38 16t20 37h43q-6 -39 -36.5 -66t-69.5 -27q-35 0 -58 21.5t-23 56.5q0 10 1 15h42q-2 -21 10.5 -37t32.5 -16z" />
    <glyph glyph-name="Ohungarumlaut" unicode="&#x150;" horiz-adv-x="592" 
d="M358 622q105 0 162.5 -74t57.5 -182q0 -67 -21 -133.5t-59.5 -121t-98 -88t-130.5 -33.5q-106 0 -163 72.5t-57 181.5q0 66 21.5 132.5t60 121.5t98 89.5t129.5 34.5zM351 575q-79 0 -137 -53.5t-83.5 -126t-25.5 -148.5q0 -90 42.5 -150t128.5 -60q60 0 108.5 30.5
t78 79.5t45 105.5t15.5 112.5q0 90 -42.5 150t-129.5 60zM293 703h-47l62 126h69zM474 703h-48l62 126h69z" />
    <glyph glyph-name="ohungarumlaut" unicode="&#x151;" horiz-adv-x="533" 
d="M317 518q90 0 141 -61.5t51 -153.5q0 -77 -31.5 -148t-94 -118.5t-140.5 -47.5q-90 0 -141 62t-51 154q0 120 74.5 216.5t191.5 96.5zM311 472q-86 0 -147.5 -82.5t-61.5 -171.5q0 -72 39.5 -128t107.5 -56q60 0 109.5 41.5t74.5 100t25 117.5q0 74 -38 126.5t-109 52.5z
M253 613h-48l63 126h69zM433 613h-47l62 126h69z" />
    <glyph glyph-name="OE" unicode="&#x152;" horiz-adv-x="940" 
d="M919 564h-312l-30 -217h253l-6 -45h-254l-36 -254h313l-7 -48h-364l18 130q-40 -61 -98 -96t-127 -35q-106 0 -163 72t-57 181q0 90 35.5 175.5t108 144.5t165.5 59q66 0 115 -35t73 -98l16 114h364zM276 46q59 0 108 30.5t78.5 79.5t45 105t15.5 112q0 90 -42.5 150
t-129.5 60q-59 0 -108 -30.5t-78.5 -79.5t-45 -105t-15.5 -112q0 -90 42.5 -150t129.5 -60z" />
    <glyph glyph-name="oe" unicode="&#x153;" horiz-adv-x="871" 
d="M311 472q-86 0 -147.5 -82.5t-61.5 -171.5q0 -72 39.5 -128t107.5 -56q60 0 109.5 41.5t74.5 100t25 117.5q0 74 -38 126.5t-109 52.5zM511 268q-8 -44 -8 -67q0 -69 38 -118t105 -49q38 0 79 15t67 40l18 -38q-21 -20 -51 -34.5t-61 -21.5t-60 -7q-70 0 -115 37.5
t-61 100.5q-24 -41 -55.5 -71t-74 -48t-89.5 -18q-90 0 -141 62t-51 154q0 37 8.5 75t24 73t39 65t52.5 52t65.5 35t76.5 13q69 0 116 -37.5t65 -99.5q34 62 89 99.5t127 37.5q59 0 99 -36t40 -94q0 -43 -19 -75t-51 -49t-68 -25t-77 -8q-77 0 -127 37zM706 474
q-130 -1 -184 -164q16 -16 53.5 -26.5t65.5 -10.5q23 0 44.5 3.5t43.5 11.5t38.5 20.5t26.5 32t10 44.5q0 41 -28.5 65t-69.5 24z" />
    <glyph glyph-name="Racute" unicode="&#x154;" horiz-adv-x="551" 
d="M512 470q0 -67 -48.5 -125.5t-114.5 -62.5l133 -282h-62l-130 278h-155l-39 -278h-51l86 612h246q59 0 97 -41t38 -101zM334 323q49 0 87 45t38 95q0 42 -26 73t-66 31h-191l-34 -244h192zM350 701h-47l67 126h63z" />
    <glyph glyph-name="racute" unicode="&#x155;" horiz-adv-x="314" 
d="M294 468q-39 0 -70.5 -19t-51 -50.5t-31 -65.5t-16.5 -72l-37 -261h-49l72 509h49l-14 -94q21 45 66.5 75t94.5 30q17 0 51 -8l-30 -49q-14 5 -34 5zM250 613h-48l68 126h63z" />
    <glyph glyph-name="Rcommaaccent" unicode="&#x156;" horiz-adv-x="526" 
d="M512 470q0 -67 -48.5 -125.5t-114.5 -62.5l133 -282h-62l-130 278h-155l-39 -278h-51l86 612h246q59 0 97 -41t38 -101zM334 323q49 0 87 45t38 95q0 42 -26 73t-66 31h-191l-34 -244h192zM266 -66q19 0 29.5 -14.5t10.5 -39.5q0 -36 -26.5 -72.5t-61.5 -43.5
q-1 5 -2.5 14.5t-2.5 14.5q44 10 55 63q-8 -3 -14 -3q-14 0 -24 11.5t-10 26.5q0 18 13.5 30.5t32.5 12.5z" />
    <glyph glyph-name="rcommaaccent" unicode="&#x157;" horiz-adv-x="317" 
d="M331 463q-14 5 -34 5q-74 0 -115.5 -62t-53.5 -145l-37 -261h-49l72 509h48l-13 -94q21 45 66.5 75t94.5 30q17 0 51 -8zM162 -66q19 0 29.5 -14.5t10.5 -39.5q0 -36 -26.5 -72.5t-61.5 -43.5q-1 5 -2.5 14.5t-2.5 14.5q46 10 55 63q-6 -3 -14 -3q-14 0 -24 11.5
t-10 26.5q0 18 13.5 30.5t32.5 12.5z" />
    <glyph glyph-name="Rcaron" unicode="&#x158;" horiz-adv-x="526" 
d="M512 470q0 -67 -48.5 -125.5t-114.5 -62.5l133 -282h-62l-130 278h-155l-39 -278h-51l86 612h246q59 0 97 -41t38 -101zM334 323q49 0 87 45t38 95q0 42 -26 73t-66 31h-191l-34 -244h192zM322 734l59 100h40l-78 -134h-54l-40 134h41z" />
    <glyph glyph-name="rcaron" unicode="&#x159;" horiz-adv-x="314" 
d="M294 468q-39 0 -70.5 -19t-51 -50.5t-31 -65.5t-16.5 -72l-37 -261h-49l72 509h49l-14 -94q21 45 66.5 75t94.5 30q17 0 51 -8l-30 -49q-14 5 -34 5zM233 647l60 99h40l-78 -134h-54l-40 134h41z" />
    <glyph glyph-name="Sacute" unicode="&#x15a;" horiz-adv-x="491" 
d="M440 194q0 -89 -65 -146.5t-155 -57.5q-46 0 -95.5 17t-81.5 45l32 46q28 -24 70.5 -41t77.5 -17q64 0 113.5 39.5t49.5 101.5q0 37 -27.5 63.5t-67 43.5t-79.5 34.5t-67.5 47.5t-27.5 72q0 84 67.5 132t155.5 48q93 0 138 -48l-25 -43q-43 42 -116 42q-62 0 -114.5 -32
t-52.5 -91q0 -30 28 -52.5t67.5 -38.5t79 -34.5t67.5 -51.5t28 -79zM342 701h-47l68 126h63z" />
    <glyph glyph-name="sacute" unicode="&#x15b;" horiz-adv-x="434" 
d="M386 159q0 -76 -56.5 -122.5t-132.5 -46.5q-39 0 -81.5 14.5t-71.5 39.5l31 42q24 -21 58.5 -35.5t65.5 -14.5q51 0 91.5 31t40.5 82q0 29 -23 50.5t-56 35.5t-66.5 28.5t-56.5 40t-23 61.5q0 68 57.5 111.5t126.5 43.5q34 0 73 -12t56 -34l-26 -38q-18 17 -48.5 27.5
t-57.5 10.5q-45 0 -86.5 -29t-41.5 -72q0 -25 23.5 -44t56.5 -33t66.5 -29.5t57 -42.5t23.5 -65zM310 613h-48l69 126h63z" />
    <glyph glyph-name="Scircumflex" unicode="&#x15c;" horiz-adv-x="491" 
d="M440 194q0 -89 -65 -146.5t-155 -57.5q-46 0 -95.5 17t-81.5 45l32 46q28 -24 70.5 -41t77.5 -17q64 0 113.5 39.5t49.5 101.5q0 37 -27.5 63.5t-67 43.5t-79.5 34.5t-67.5 47.5t-27.5 72q0 84 67.5 132t155.5 48q93 0 138 -48l-25 -43q-43 42 -116 42q-62 0 -114.5 -32
t-52.5 -91q0 -30 28 -52.5t67.5 -38.5t79 -34.5t67.5 -51.5t28 -79zM339 798l-59 -98h-41l78 134h55l40 -134h-41z" />
    <glyph glyph-name="scircumflex" unicode="&#x15d;" horiz-adv-x="434" 
d="M386 159q0 -76 -56.5 -122.5t-132.5 -46.5q-39 0 -81.5 14.5t-71.5 39.5l31 42q24 -21 58.5 -35.5t65.5 -14.5q51 0 91.5 31t40.5 82q0 29 -23 50.5t-56 35.5t-66.5 28.5t-56.5 40t-23 61.5q0 68 57.5 111.5t126.5 43.5q34 0 73 -12t56 -34l-26 -38q-18 17 -48.5 27.5
t-57.5 10.5q-45 0 -86.5 -29t-41.5 -72q0 -25 23.5 -44t56.5 -33t66.5 -29.5t57 -42.5t23.5 -65zM318 710l-59 -98h-41l78 134h55l40 -134h-41z" />
    <glyph glyph-name="Scedilla" unicode="&#x15e;" horiz-adv-x="491" 
d="M337 573q-62 0 -114.5 -32t-52.5 -91q0 -30 28 -52t67.5 -38.5t79 -35t67.5 -51.5t28 -79q0 -82 -56.5 -138t-138.5 -64l-67 -127l-61 2l80 125q-40 3 -83 19.5t-72 41.5l33 45q28 -23 71 -40t77 -17q65 0 114 39t49 102q0 31 -20 55t-50 38t-64.5 30.5t-64.5 32t-50 43
t-20 62.5q0 84 68 131.5t155 47.5q93 0 138 -48l-25 -42q-44 41 -116 41z" />
    <glyph glyph-name="scedilla" unicode="&#x15f;" horiz-adv-x="434" 
d="M386 158q0 -67 -46 -112t-115 -54l-67 -128l-61 2l80 124q-79 7 -133 53l31 43q24 -21 58.5 -35.5t65.5 -14.5q52 0 92 31t40 82q0 29 -23 50t-56 35t-66.5 28.5t-56.5 40t-23 61.5q0 68 57.5 111.5t126.5 43.5q34 0 73 -12t56 -34l-26 -38q-18 17 -48.5 27.5t-57.5 10.5
q-45 0 -86 -30.5t-41 -74.5q0 -28 35.5 -50t77.5 -36.5t77.5 -46.5t35.5 -77z" />
    <glyph glyph-name="Scaron" unicode="&#x160;" horiz-adv-x="491" 
d="M440 194q0 -89 -65 -146.5t-155 -57.5q-46 0 -95.5 17t-81.5 45l32 46q28 -24 70.5 -41t77.5 -17q64 0 113.5 39.5t49.5 101.5q0 37 -27.5 63.5t-67 43.5t-79.5 34.5t-67.5 47.5t-27.5 72q0 84 67.5 132t155.5 48q93 0 138 -48l-25 -43q-43 42 -116 42q-62 0 -114.5 -32
t-52.5 -91q0 -30 28 -52.5t67.5 -38.5t79 -34.5t67.5 -51.5t28 -79zM332 734l60 100h40l-78 -134h-54l-40 134h41z" />
    <glyph glyph-name="scaron" unicode="&#x161;" horiz-adv-x="434" 
d="M386 159q0 -76 -56.5 -122.5t-132.5 -46.5q-39 0 -81.5 14.5t-71.5 39.5l31 42q24 -21 58.5 -35.5t65.5 -14.5q51 0 91.5 31t40.5 82q0 29 -23 50.5t-56 35.5t-66.5 28.5t-56.5 40t-23 61.5q0 68 57.5 111.5t126.5 43.5q34 0 73 -12t56 -34l-26 -38q-18 17 -48.5 27.5
t-57.5 10.5q-45 0 -86.5 -29t-41.5 -72q0 -25 23.5 -44t56.5 -33t66.5 -29.5t57 -42.5t23.5 -65zM308 646l60 99h39l-77 -134h-54l-40 134h40z" />
    <glyph glyph-name="Tcommaaccent" unicode="&#x162;" horiz-adv-x="516" 
d="M308 565l-79 -565h-52l79 565h-207l6 47h467l-6 -47h-208zM205 -66q39 0 39 -54q0 -37 -26 -73t-61 -43q-4 20 -5 29q44 10 55 63q-7 -3 -14 -3q-14 0 -24 11.5t-10 26.5q0 18 13.5 30.5t32.5 12.5z" />
    <glyph glyph-name="tcommaaccent" unicode="&#x163;" horiz-adv-x="336" 
d="M251 54l13 -40q-38 -24 -84 -24q-57 0 -83 41.5t-26 102.5q0 22 3 46l40 284h-68l7 45h67l21 145h48l-20 -145h153l-7 -45h-152l-38 -277q-4 -34 -4 -52q0 -98 69 -98q23 0 61 17zM160 -66q40 0 40 -54q0 -37 -26 -73t-62 -43q-2 9 -4 29q45 10 54 63q-6 -3 -13 -3
q-15 0 -24.5 11.5t-9.5 26.5q0 18 13.5 30.5t31.5 12.5z" />
    <glyph glyph-name="Tcaron" unicode="&#x164;" horiz-adv-x="551" 
d="M291 565h-207l6 47h467l-6 -47h-208l-79 -565h-52zM341 734l60 100h39l-77 -134h-54l-40 134h40z" />
    <glyph glyph-name="tcaron" unicode="&#x165;" horiz-adv-x="421" 
d="M251 54l13 -40q-38 -24 -84 -24q-57 0 -83 41.5t-26 102.5q0 22 3 45l40 284h-68l7 46h67l21 145h48l-20 -145h153l-7 -46h-152l-38 -276q-4 -34 -4 -52q0 -98 69 -98q23 0 61 17zM403 613h-47l68 126h63z" />
    <glyph glyph-name="Tbar" unicode="&#x166;" horiz-adv-x="551" 
d="M551 565h-208l-21 -150h157l-5 -40h-157l-53 -375h-52l52 375h-157l5 40h158l21 150h-207l6 47h467z" />
    <glyph glyph-name="tbar" unicode="&#x167;" horiz-adv-x="363" 
d="M278 54l13 -40q-37 -24 -84 -24q-58 0 -83.5 41.5t-25.5 102.5q0 21 2.5 43t7 53t6.5 43h-68l6 40h68l21 151h-68l6 45h68l21 145h48l-20 -145h152l-6 -45h-152l-21 -151h146l-6 -40h-146q-15 -112 -15 -138q0 -98 69 -98q23 0 61 17z" />
    <glyph glyph-name="Utilde" unicode="&#x168;" horiz-adv-x="530" 
d="M224 -10q-78 0 -128 51t-50 129q0 10 2 30l58 412h52l-58 -412q-1 -7 -1 -22q0 -58 37.5 -97.5t94.5 -39.5q64 0 115.5 47.5t60.5 111.5l57 412h52l-58 -412q-12 -87 -79.5 -148.5t-154.5 -61.5zM190 689l-36 22q45 65 120 65q24 0 64.5 -15.5t63.5 -15.5q41 0 65 34
l38 -19q-40 -59 -103 -59q-29 0 -68.5 15.5t-62.5 15.5q-52 0 -81 -43z" />
    <glyph glyph-name="utilde" unicode="&#x169;" horiz-adv-x="487" 
d="M195 -11q-151 0 -151 161q0 29 4 52l42 307h48l-37 -265q-6 -48 -6 -72q0 -132 115 -132q73 0 113.5 60.5t52.5 143.5l38 265h48l-71 -509h-48l13 93q-21 -45 -67 -74.5t-94 -29.5zM157 602l-35 22q46 66 119 66q25 0 65 -16t63 -16q42 0 66 34l38 -19q-40 -59 -103 -59
q-29 0 -68.5 15.5t-63.5 15.5q-51 0 -81 -43z" />
    <glyph glyph-name="Umacron" unicode="&#x16a;" horiz-adv-x="530" 
d="M224 -10q-78 0 -128 51t-50 129q0 10 2 30l58 412h52l-58 -412q-1 -7 -1 -22q0 -58 37.5 -97.5t94.5 -39.5q64 0 115.5 47.5t60.5 111.5l57 412h52l-58 -412q-12 -87 -79.5 -148.5t-154.5 -61.5zM512 743l-5 -40h-367l5 40h367z" />
    <glyph glyph-name="umacron" unicode="&#x16b;" horiz-adv-x="497" 
d="M195 -11q-151 0 -151 161q0 29 4 52l42 307h48l-37 -265q-6 -48 -6 -72q0 -132 115 -132q73 0 113.5 60.5t52.5 143.5l38 265h48l-71 -509h-48l13 93q-21 -45 -67 -74.5t-94 -29.5zM483 657l-6 -41h-367l6 41h367z" />
    <glyph glyph-name="Ubreve" unicode="&#x16c;" horiz-adv-x="530" 
d="M224 -10q-78 0 -128 51t-50 129q0 10 2 30l58 412h52l-58 -412q-1 -7 -1 -22q0 -58 37.5 -97.5t94.5 -39.5q64 0 115.5 47.5t60.5 111.5l57 412h52l-58 -412q-12 -87 -79.5 -148.5t-154.5 -61.5zM326 729q21 0 38.5 15.5t20.5 36.5h42q-5 -39 -35 -66t-70 -27
q-36 0 -59 22t-23 57q0 3 0.5 7t0.5 7h43q-3 -21 9 -36.5t33 -15.5z" />
    <glyph glyph-name="ubreve" unicode="&#x16d;" horiz-adv-x="477" 
d="M195 -11q-151 0 -151 161q0 29 4 52l42 307h48l-37 -265q-6 -48 -6 -72q0 -132 115 -132q73 0 113.5 60.5t52.5 143.5l38 265h48l-71 -509h-48l13 93q-21 -45 -67 -74.5t-94 -29.5zM294 641q21 0 38 16t20 37h43q-6 -40 -36 -67t-70 -27q-35 0 -58 22t-23 57q0 10 1 15
h42q-2 -21 10.5 -37t32.5 -16z" />
    <glyph glyph-name="Uring" unicode="&#x16e;" horiz-adv-x="530" 
d="M224 -10q-78 0 -128 51t-50 129q0 10 2 30l58 412h52l-58 -412q-1 -7 -1 -22q0 -58 37.5 -97.5t94.5 -39.5q64 0 115.5 47.5t60.5 111.5l57 412h52l-58 -412q-12 -87 -79.5 -148.5t-154.5 -61.5zM346 861q32 0 54 -21t22 -53q0 -40 -30.5 -70t-70.5 -30q-33 0 -54.5 21
t-21.5 54q0 40 30.5 69.5t70.5 29.5zM340 823q-21 0 -38.5 -16.5t-17.5 -37.5q0 -18 12 -31t30 -13q21 0 39 17t18 38q0 18 -13 30.5t-30 12.5z" />
    <glyph glyph-name="uring" unicode="&#x16f;" horiz-adv-x="477" 
d="M195 -11q-151 0 -151 161q0 29 4 52l42 307h48l-37 -265q-6 -48 -6 -72q0 -132 115 -132q73 0 113.5 60.5t52.5 143.5l38 265h48l-71 -509h-48l13 93q-21 -45 -67 -74.5t-94 -29.5zM313 768q32 0 54 -21t22 -53q0 -40 -30.5 -70t-70.5 -30q-33 0 -54.5 21t-21.5 54
q0 40 30 69.5t71 29.5zM307 730q-21 0 -39 -16.5t-18 -37.5q0 -18 12.5 -31t30.5 -13q21 0 39 17t18 39q0 17 -13 29.5t-30 12.5z" />
    <glyph glyph-name="Uhungarumlaut" unicode="&#x170;" horiz-adv-x="530" 
d="M224 -10q-78 0 -128 51t-50 129q0 10 2 30l58 412h52l-58 -412q-1 -7 -1 -22q0 -58 37.5 -97.5t94.5 -39.5q64 0 115.5 47.5t60.5 111.5l57 412h52l-58 -412q-12 -87 -79.5 -148.5t-154.5 -61.5zM251 696h-48l62 126h69zM431 696h-47l62 126h69z" />
    <glyph glyph-name="uhungarumlaut" unicode="&#x171;" horiz-adv-x="494" 
d="M195 -11q-151 0 -151 161q0 29 4 52l42 307h48l-37 -265q-6 -48 -6 -72q0 -132 115 -132q73 0 113.5 60.5t52.5 143.5l38 265h48l-71 -509h-48l13 93q-21 -45 -67 -74.5t-94 -29.5zM215 613h-47l62 126h69zM396 613h-48l62 126h69z" />
    <glyph glyph-name="Uogonek" unicode="&#x172;" horiz-adv-x="530" 
d="M464 612h52q-50 -368 -59 -418q-23 -137 -164 -193q-18 -6 -33.5 -34.5t-15.5 -48.5q0 -44 44 -44q16 0 34 14l13 -29q-23 -20 -61 -20q-33 0 -52.5 18.5t-19.5 51.5q0 42 34 81q-84 0 -137 47.5t-53 130.5q0 22 9 78l51 366h52l-58 -412q-1 -7 -1 -22q0 -58 37.5 -97.5
t94.5 -39.5q64 0 115 47.5t61 111.5l3 23z" />
    <glyph glyph-name="uogonek" unicode="&#x173;" horiz-adv-x="477" 
d="M415 -135l13 -30q-25 -20 -62 -20q-32 0 -52 19.5t-20 50.5q0 62 48 115l14 93q-22 -47 -68.5 -75t-99.5 -28q-73 0 -108.5 42.5t-35.5 117.5q0 31 4 55l42 304h48l-36 -262q-6 -36 -6 -74q0 -64 25.5 -98.5t87.5 -34.5q137 0 169 214l36 255h48l-71 -509
q-22 -19 -37.5 -49.5t-15.5 -57.5q0 -42 42 -42q17 0 35 14z" />
    <glyph glyph-name="Wcircumflex" unicode="&#x174;" horiz-adv-x="982" 
d="M936 612h58l-300 -612h-57l-112 524l-258 -524h-57l-127 612h57l110 -525l258 521h58l112 -521zM563 795l-59 -98h-41l78 134h55l40 -134h-41z" />
    <glyph glyph-name="wcircumflex" unicode="&#x175;" horiz-adv-x="793" 
d="M748 509h52l-244 -509h-49l-86 434l-208 -434h-49l-100 509h51l86 -423l204 419h52l87 -419zM460 710l-59 -98h-41l77 134h55l40 -134h-41z" />
    <glyph glyph-name="Ycircumflex" unicode="&#x176;" horiz-adv-x="500" 
d="M455 612h56l-250 -315l-41 -297h-53l42 297l-161 315h56l138 -263zM305 797l-58 -98h-42l78 134h55l40 -134h-41z" />
    <glyph glyph-name="ycircumflex" unicode="&#x177;" horiz-adv-x="461" 
d="M77 -182q-16 0 -41 8t-34 18l28 38q28 -19 51 -19q34 0 67 50t48 97l-101 499h52l86 -420l205 420h51q-17 -35 -106.5 -221t-138.5 -285q-3 -6 -17 -36.5t-21 -43.5t-22.5 -37.5t-29 -36t-34 -21.5t-43.5 -10zM320 710l-59 -98h-42l78 134h55l40 -134h-41z" />
    <glyph glyph-name="Ydieresis" unicode="&#x178;" horiz-adv-x="500" 
d="M455 612h56l-250 -315l-41 -297h-53l42 297l-161 315h56l138 -263zM196 772q15 0 24.5 -9.5t9.5 -23.5q0 -18 -13.5 -31.5t-31.5 -13.5q-14 0 -23.5 9.5t-9.5 23.5q0 18 13.5 31.5t30.5 13.5zM406 772q14 0 24 -9.5t10 -23.5q0 -18 -13.5 -31.5t-31.5 -13.5
q-14 0 -24 9.5t-10 24.5q0 17 14 30.5t31 13.5z" />
    <glyph glyph-name="Zacute" unicode="&#x179;" horiz-adv-x="554" 
d="M541 612l-7 -47l-419 -518h346l-6 -47h-411l7 47l419 518h-330l6 47h395zM366 701h-48l69 126h63z" />
    <glyph glyph-name="zacute" unicode="&#x17a;" horiz-adv-x="490" 
d="M475 509l-6 -46l-359 -417h307l-6 -46h-367l6 46l359 417h-280l6 46h340zM335 613h-48l69 126h63z" />
    <glyph glyph-name="Zdotaccent" unicode="&#x17b;" horiz-adv-x="554" 
d="M541 612l-7 -47l-419 -518h346l-6 -47h-411l7 47l419 518h-330l6 47h395zM359 786q18 0 30 -12.5t12 -29.5q0 -21 -17 -37.5t-38 -16.5q-17 0 -29.5 12t-12.5 29q0 22 17 38.5t38 16.5z" />
    <glyph glyph-name="zdotaccent" unicode="&#x17c;" horiz-adv-x="490" 
d="M475 509l-6 -46l-359 -417h307l-6 -46h-367l6 46l359 417h-280l6 46h340zM330 707q17 0 29 -12.5t12 -29.5q0 -21 -17 -38t-38 -17q-17 0 -29.5 12.5t-12.5 29.5q0 22 17 38.5t39 16.5z" />
    <glyph glyph-name="Zcaron" unicode="&#x17d;" horiz-adv-x="554" 
d="M541 612l-7 -47l-419 -518h346l-6 -47h-411l7 47l419 518h-330l6 47h395zM361 734l59 100h40l-77 -134h-54l-41 134h41z" />
    <glyph glyph-name="zcaron" unicode="&#x17e;" horiz-adv-x="490" 
d="M475 509l-6 -46l-359 -417h307l-6 -46h-367l6 46l359 417h-280l6 46h340zM321 647l60 99h40l-78 -134h-54l-40 134h40z" />
    <glyph glyph-name="AEacute" unicode="&#x1fc;" horiz-adv-x="715" 
d="M456 701h-48l68 126h63zM694 564h-312l-31 -217h254l-7 -46h-253l-36 -253h312l-6 -48h-364l25 178h-125l-87 -178h-55l299 612h393zM282 225l45 319l-154 -319h109z" />
    <glyph glyph-name="aeacute" unicode="&#x1fd;" horiz-adv-x="790" 
d="M432 270q-8 -44 -8 -66q0 -68 38 -118t104 -50q38 0 79 15t68 40l18 -38q-30 -29 -78.5 -46t-93.5 -17q-108 0 -155 87q-39 -38 -94.5 -62.5t-107.5 -24.5q-68 0 -109.5 37.5t-41.5 105.5q0 80 58 138.5t139 58.5q33 0 74.5 -12t61.5 -32q7 35 7 57q0 130 -112 130
q-77 0 -143 -57l-13 40q32 28 77 46t86 18q125 0 145 -122q74 122 207 122q59 0 97.5 -37.5t38.5 -96.5q0 -55 -35.5 -91t-82 -49t-99.5 -13q-75 0 -125 37zM627 476q-129 0 -183 -164q15 -16 53 -26.5t66 -10.5q40 0 74.5 9.5t61.5 36t27 66.5q0 41 -29 65t-70 24zM212 32
q44 0 91.5 23.5t81.5 57.5q-11 34 -11 79q0 23 3 44q-55 53 -129 53q-57 0 -101.5 -44t-44.5 -101q0 -51 29.5 -81.5t80.5 -30.5zM410 613h-47l68 126h63z" />
    <glyph glyph-name="Scommaaccent" unicode="&#x218;" horiz-adv-x="491" 
d="M340 622q93 0 138 -48l-25 -43q-43 42 -116 42q-62 0 -114.5 -32t-52.5 -91q0 -30 28 -52.5t67.5 -38.5t79 -34.5t67.5 -52t28 -79.5q0 -88 -65 -145.5t-155 -57.5q-46 0 -95.5 17t-81.5 45l32 46q28 -24 70.5 -41t77.5 -17q64 0 113.5 39.5t49.5 101.5q0 31 -20 55
t-50 38t-64.5 30.5t-64.5 32t-50 43t-20 62.5q0 84 67.5 132t155.5 48zM258 -66q19 0 29.5 -14.5t10.5 -39.5q0 -37 -26 -73t-62 -43q-2 9 -4 29q45 11 54 63q-6 -3 -13 -3q-15 0 -24.5 11.5t-9.5 26.5q0 18 13.5 30.5t31.5 12.5z" />
    <glyph glyph-name="scommaaccent" unicode="&#x219;" horiz-adv-x="434" 
d="M290 520q34 0 73 -12t56 -34l-26 -38q-18 17 -48.5 27.5t-57.5 10.5q-45 0 -86.5 -29t-41.5 -72q0 -25 23.5 -44t56.5 -32.5t66 -29.5t56.5 -44t23.5 -66q0 -74 -56 -120.5t-132 -46.5q-39 0 -81.5 14.5t-71.5 39.5l31 42q24 -21 58.5 -35.5t65.5 -14.5q51 0 91.5 31
t40.5 81q0 30 -23 51.5t-56 35t-66.5 28.5t-56.5 40.5t-23 61.5q0 68 57.5 111.5t126.5 43.5zM216 -66q40 0 40 -54q0 -37 -26 -73t-62 -43q-2 9 -4 29q45 10 54 63q-6 -3 -13 -3q-15 0 -24.5 11.5t-9.5 26.5q0 18 13.5 30.5t31.5 12.5z" />
    <glyph glyph-name="circumflex" unicode="&#x2c6;" horiz-adv-x="545" 
d="M373 710l-59 -98h-42l78 134h55l40 -134h-41z" />
    <glyph glyph-name="caron" unicode="&#x2c7;" horiz-adv-x="519" 
d="M303 646l60 99h40l-78 -134h-54l-40 134h41z" />
    <glyph glyph-name="breve" unicode="&#x2d8;" horiz-adv-x="522" 
d="M350 622q21 0 38 15.5t20 36.5h42q-5 -39 -35 -66t-70 -27q-35 0 -58 22t-23 57q0 9 1 14h42q-2 -21 10 -36.5t33 -15.5z" />
    <glyph glyph-name="dotaccent" unicode="&#x2d9;" horiz-adv-x="158" 
d="M102 717q17 0 29 -12t12 -29q0 -21 -17 -38t-38 -17q-17 0 -29.5 12t-12.5 30q0 22 17 38t39 16z" />
    <glyph glyph-name="ring" unicode="&#x2da;" horiz-adv-x="509" 
d="M345 671q32 0 54 -21t22 -53q0 -40 -30 -70t-70 -30q-33 0 -55 21t-22 54q0 40 30.5 69.5t70.5 29.5zM339 633q-21 0 -38.5 -16.5t-17.5 -37.5q0 -18 12 -31t30 -13q21 0 39.5 17.5t18.5 38.5q0 18 -13 30t-31 12z" />
    <glyph glyph-name="ogonek" unicode="&#x2db;" horiz-adv-x="581" 
d="M311 -111l13 -28q-23 -21 -62 -21q-32 0 -52 19.5t-20 51.5q0 26 17 56.5t39 45.5l35 -10q-49 -36 -49 -84q0 -21 12 -32t33 -11q15 0 34 13z" />
    <glyph glyph-name="tilde" unicode="&#x2dc;" horiz-adv-x="534" 
d="M206 650l-35 22q21 29 53 47t66 18q24 0 64.5 -15.5t63.5 -15.5q42 0 65 34l38 -19q-38 -59 -103 -59q-28 0 -67.5 15.5t-63.5 15.5q-51 0 -81 -43z" />
    <glyph glyph-name="hungarumlaut" unicode="&#x2dd;" horiz-adv-x="553" 
d="M269 590h-47l62 126h69zM450 590h-48l62 126h69z" />
    <glyph glyph-name="Wgrave" unicode="&#x1e80;" horiz-adv-x="982" 
d="M936 612h58l-300 -612h-57l-112 524l-258 -524h-57l-127 612h57l110 -525l258 521h58l112 -521zM541 827l33 -126h-47l-49 126h63z" />
    <glyph glyph-name="wgrave" unicode="&#x1e81;" horiz-adv-x="793" 
d="M748 509h52l-244 -509h-49l-86 434l-208 -434h-49l-100 509h51l86 -423l204 419h52l87 -419zM441 739l33 -126h-47l-49 126h63z" />
    <glyph glyph-name="Wacute" unicode="&#x1e82;" horiz-adv-x="982" 
d="M936 612h58l-300 -612h-57l-112 524l-258 -524h-57l-127 612h57l110 -525l258 521h58l112 -521zM568 701h-47l68 126h63z" />
    <glyph glyph-name="wacute" unicode="&#x1e83;" horiz-adv-x="793" 
d="M748 509h52l-244 -509h-49l-86 434l-208 -434h-49l-100 509h51l86 -423l204 419h52l87 -419zM468 613h-47l68 126h63z" />
    <glyph glyph-name="Wdieresis" unicode="&#x1e84;" horiz-adv-x="982" 
d="M936 612h58l-300 -612h-57l-112 524l-258 -524h-57l-127 612h57l110 -525l258 521h58l112 -521zM452 772q14 0 23.5 -10t9.5 -24q0 -18 -13.5 -31t-30.5 -13q-15 0 -24.5 9t-9.5 24q0 17 13.5 31t31.5 14zM666 772q14 0 24 -10t10 -24q0 -18 -13.5 -31t-31.5 -13
q-15 0 -24.5 9t-9.5 24q0 17 14 31t31 14z" />
    <glyph glyph-name="wdieresis" unicode="&#x1e85;" horiz-adv-x="793" 
d="M748 509h52l-244 -509h-49l-86 434l-208 -434h-49l-100 509h51l86 -423l204 419h52l87 -419zM356 717q14 0 24 -10t10 -24q0 -17 -13.5 -30.5t-31.5 -13.5q-14 0 -23.5 9.5t-9.5 23.5q0 18 13 31.5t31 13.5zM566 717q14 0 23.5 -10t9.5 -24q0 -17 -13 -30.5t-31 -13.5
q-14 0 -24 9.5t-10 23.5q0 18 13.5 31.5t31.5 13.5z" />
    <glyph glyph-name="Ygrave" unicode="&#x1ef2;" horiz-adv-x="500" 
d="M455 612h56l-250 -315l-41 -297h-53l42 297l-161 315h56l138 -263zM299 828l33 -126h-48l-48 126h63z" />
    <glyph glyph-name="ygrave" unicode="&#x1ef3;" horiz-adv-x="461" 
d="M77 -182q-16 0 -41 8t-34 18l28 38q28 -19 51 -19q34 0 67 50t48 97l-101 499h52l86 -420l205 420h51q-17 -35 -106.5 -221t-138.5 -285q-3 -6 -17 -36.5t-21 -43.5t-22.5 -37.5t-29 -36t-34 -21.5t-43.5 -10zM291 739l33 -126h-48l-48 126h63z" />
    <glyph glyph-name="endash" unicode="&#x2013;" horiz-adv-x="515" 
d="M515 333l-7 -46h-464l6 46h465z" />
    <glyph glyph-name="emdash" unicode="&#x2014;" horiz-adv-x="840" 
d="M834 333l-7 -46h-783l6 46h784z" />
    <glyph glyph-name="quoteleft" unicode="&#x2018;" horiz-adv-x="136" 
d="M46 518q0 39 25.5 76.5t62.5 44.5l5 -30q-46 -9 -55 -62q12 3 13 3q15 0 25 -9.5t10 -24.5q0 -18 -15 -32.5t-33 -14.5q-38 0 -38 49z" />
    <glyph glyph-name="quoteright" unicode="&#x2019;" horiz-adv-x="135" 
d="M103 626q18 0 28.5 -17.5t10.5 -36.5q0 -36 -26 -72.5t-61 -43.5q-1 5 -2.5 15t-2.5 15q44 9 55 62q-8 -2 -14 -2q-14 0 -24 9.5t-10 23.5q0 18 14 32.5t32 14.5z" />
    <glyph glyph-name="quotesinglbase" unicode="&#x201a;" horiz-adv-x="162" 
d="M106 82q19 0 30.5 -18.5t11.5 -38.5q0 -38 -27.5 -76.5t-63.5 -45.5q-3 19 -7 32q46 9 57 63q-8 -2 -14 -2q-16 0 -26 10.5t-10 26.5q0 19 15 34t34 15z" />
    <glyph glyph-name="quotedblleft" unicode="&#x201c;" horiz-adv-x="336" 
d="M108 452q-29 6 -45.5 34t-16.5 59t15.5 58.5t44.5 27.5q16 0 27.5 -11t11.5 -27q0 -19 -14.5 -33.5t-33.5 -14.5q-5 0 -13 2v-8q0 -47 38 -55zM282 452q-29 6 -45 34t-16 59t15 58.5t44 27.5q17 0 28 -11t11 -27q0 -19 -14.5 -33.5t-33.5 -14.5q-3 0 -13 2v-8
q0 -46 39 -55z" />
    <glyph glyph-name="quotedblright" unicode="&#x201d;" horiz-adv-x="263" 
d="M59 582q0 19 16 33.5t35 14.5q39 0 39 -53q0 -39 -27 -78.5t-65 -46.5l-7 32q46 9 57 63q-19 -5 -33.5 5t-14.5 30zM223 582q0 19 15.5 33.5t34.5 14.5q39 0 39 -53q0 -39 -27 -78.5t-64 -46.5l-7 32q46 9 57 63q-19 -5 -33.5 5t-14.5 30z" />
    <glyph glyph-name="quotedblbase" unicode="&#x201e;" horiz-adv-x="304" 
d="M77 82q19 0 30.5 -18.5t11.5 -38.5q0 -38 -27.5 -76.5t-63.5 -45.5q-3 19 -7 32q46 9 57 63q-8 -2 -14 -2q-16 0 -26 10.5t-10 26.5q0 19 15 34t34 15zM241 82q19 0 30.5 -18.5t11.5 -38.5q0 -38 -27.5 -76.5t-63.5 -45.5q-2 6 -3.5 16.5t-3.5 15.5q46 9 57 63
q-8 -2 -14 -2q-16 0 -26 10.5t-10 26.5q0 19 15 34t34 15z" />
    <glyph glyph-name="dagger" unicode="&#x2020;" horiz-adv-x="467" 
d="M423 445h-166l-86 -614h-51l86 614h-165l6 47h166l49 347h50l-49 -347h167z" />
    <glyph glyph-name="daggerdbl" unicode="&#x2021;" horiz-adv-x="478" 
d="M460 475h-178l-30 -215h178l-7 -46h-177l-54 -383h-49l54 383h-156l6 46h156l31 215h-157l6 47h157l45 317h48l-44 -317h178z" />
    <glyph glyph-name="bullet" unicode="&#x2022;" horiz-adv-x="182" 
d="M190 331q0 -26 -19.5 -45.5t-45.5 -19.5q-21 0 -35 13.5t-14 34.5q0 26 19.5 45.5t45.5 19.5q21 0 35 -13.5t14 -34.5z" />
    <glyph glyph-name="ellipsis" unicode="&#x2026;" horiz-adv-x="768" 
d="M127 39q0 -19 -15 -34t-35 -15q-16 0 -27 10.5t-11 26.5q0 19 15.5 34.5t34.5 15.5q16 0 27 -11t11 -27zM433 39q0 -19 -15 -34t-35 -15q-16 0 -27 10.5t-11 26.5q0 19 15.5 34.5t34.5 15.5q16 0 27 -11t11 -27zM738 39q0 -19 -15 -34t-34 -15q-16 0 -27 10.5t-11 26.5
q0 20 15 35t35 15q16 0 26.5 -11t10.5 -27z" />
    <glyph glyph-name="perthousand" unicode="&#x2030;" horiz-adv-x="946" 
d="M198 622q52 0 79 -39t27 -94q0 -71 -42 -132t-109 -61q-53 0 -80 38.5t-27 92.5q0 71 42.5 133t109.5 62zM159 341q45 0 73 46.5t28 94.5q0 37 -17 66.5t-51 29.5q-45 0 -73 -47t-28 -95q0 -37 17 -66t51 -29zM515 320q52 0 79 -39t27 -94q0 -71 -42 -132t-109 -61
q-53 0 -80 38.5t-27 92.5q0 71 42.5 133t109.5 62zM476 39q45 0 73 46.5t28 94.5q0 37 -17 66.5t-51 29.5q-45 0 -73 -47t-28 -95q0 -37 17 -66t51 -29zM814 321q52 0 79 -39.5t27 -93.5q0 -71 -42 -132t-109 -61q-53 0 -80 38.5t-27 92.5q0 71 42.5 133t109.5 62zM775 40
q45 0 73 46.5t28 94.5q0 37 -17 66.5t-51 29.5q-45 0 -73 -47.5t-28 -95.5q0 -36 17 -65t51 -29zM511 612l-308 -612h-52l308 612h52z" />
    <glyph glyph-name="guilsinglleft" unicode="&#x2039;" horiz-adv-x="255" 
d="M243 498l-141 -209l82 -209h-54l-86 209l144 209h55z" />
    <glyph glyph-name="guilsinglright" unicode="&#x203a;" horiz-adv-x="255" 
d="M185 288l-83 209h55l86 -209l-144 -209h-55z" />
    <glyph glyph-name="fraction" unicode="&#x2044;" horiz-adv-x="321" 
d="M378 623l-307 -631h-51l307 631h51z" />
    <glyph glyph-name="zerosuperior" unicode="&#x2070;" horiz-adv-x="297" 
d="M244 477q0 42 -18.5 72.5t-58.5 30.5q-53 0 -83.5 -50.5t-30.5 -106.5q0 -42 19 -73t58 -31q52 0 83 51t31 107zM172 618q55 0 83.5 -40.5t28.5 -97.5q0 -73 -44.5 -136t-114.5 -63q-56 0 -85 40t-29 98q0 73 45.5 136t115.5 63z" />
    <glyph glyph-name="foursuperior" unicode="&#x2074;" horiz-adv-x="270" 
d="M193 550l-124 -144h104zM208 370l-12 -83h-40l12 83h-153l4 30l183 213h40l-29 -207h52l-5 -36h-52z" />
    <glyph glyph-name="fivesuperior" unicode="&#x2075;" horiz-adv-x="248" 
d="M15 317l27 32q34 -30 71 -30q33 0 58.5 26t25.5 59q0 14 -5 24.5t-15.5 16.5t-20.5 9.5t-26.5 5t-26 1.5t-26 -0.5t-21.5 -0.5l25 153h163l-5 -36h-126l-14 -78q28 0 48.5 -2.5t43.5 -10.5t35.5 -27t12.5 -47q0 -55 -38 -93.5t-93 -38.5q-53 0 -93 37z" />
    <glyph glyph-name="sixsuperior" unicode="&#x2076;" horiz-adv-x="241" 
d="M55 377q0 -26 17.5 -43t43.5 -17q33 0 57 23.5t24 56.5q0 26 -17.5 42t-43.5 16q-33 0 -57 -23t-24 -55zM162 613h46l-90 -124q12 4 27 4q39 0 65.5 -25.5t26.5 -64.5q0 -51 -37.5 -87t-88.5 -36q-41 0 -68.5 25t-27.5 66q0 11 1 17q2 17 22.5 51.5t42 64t49.5 66.5
t32 43z" />
    <glyph glyph-name="sevensuperior" unicode="&#x2077;" horiz-adv-x="228" 
d="M63 288h-48l170 288h-139l6 37h185q-3 -22 -4 -25q-4 -12 -12 -27.5t-24 -40.5t-16 -26q-19 -34 -58.5 -102.5t-59.5 -103.5z" />
    <glyph glyph-name="eightsuperior" unicode="&#x2078;" horiz-adv-x="239" 
d="M56 375q0 -25 17 -41t42 -16q30 0 53 22t23 52q0 23 -17 41t-40 18q-29 0 -53.5 -23.5t-24.5 -52.5zM153 585q-23 0 -40.5 -17t-17.5 -40q0 -18 13 -29.5t31 -11.5q22 0 38.5 16.5t16.5 39.5q0 18 -11.5 30t-29.5 12zM77 472q-21 18 -21 49q0 42 30 71t72 29
q31 0 53.5 -20.5t22.5 -52.5q0 -49 -42 -76q39 -25 39 -74t-36 -83t-85 -34q-40 0 -67 24t-27 63q0 31 17 59.5t44 44.5z" />
    <glyph glyph-name="ninesuperior" unicode="&#x2079;" horiz-adv-x="242" 
d="M197 524q0 26 -17 42.5t-43 16.5q-33 0 -57 -23t-24 -56q0 -26 17.5 -42.5t43.5 -16.5q32 0 56 23.5t24 55.5zM90 288h-45l89 123q-12 -3 -26 -3q-40 0 -66 25t-26 65q0 51 37.5 87t88.5 36q41 0 68 -25t27 -66q0 -10 -1 -16q-2 -14 -14.5 -37.5t-33 -53t-37 -52.5
t-37.5 -50.5t-24 -32.5z" />
    <glyph glyph-name="parenleftsuperior" unicode="&#x207d;" horiz-adv-x="124" 
d="M141 305v-4l-26 -28q-35 26 -55.5 68.5t-20.5 87.5q0 117 124 210l4 3l19 -33q-44 -24 -75.5 -75t-31.5 -101q0 -74 62 -128z" />
    <glyph glyph-name="parenrightsuperior" unicode="&#x207e;" horiz-adv-x="143" 
d="M37 302l1 5q46 31 75.5 77t29.5 97q0 35 -18 73.5t-46 56.5l28 32q35 -26 55.5 -70t20.5 -88q0 -119 -123 -208l-4 -3z" />
    <glyph glyph-name="zeroinferior" unicode="&#x2080;" horiz-adv-x="299" 
d="M253 188q0 42 -18.5 72.5t-57.5 30.5q-53 0 -84 -49.5t-31 -106.5q0 -42 19 -72.5t59 -30.5q52 0 82.5 50.5t30.5 105.5zM182 330q55 0 83.5 -40.5t28.5 -97.5q0 -73 -44.5 -136t-114.5 -63q-56 0 -84.5 39.5t-28.5 97.5q0 74 45 137t115 63z" />
    <glyph glyph-name="oneinferior" unicode="&#x2081;" horiz-adv-x="130" 
d="M127 326l-46 -326h-42l40 280l-56 -26l-7 36l75 36h36z" />
    <glyph glyph-name="twoinferior" unicode="&#x2082;" horiz-adv-x="258" 
d="M158 334q40 0 67.5 -18t27.5 -56q0 -34 -25 -64.5t-56.5 -50.5t-63 -48.5t-40.5 -56.5h163l-6 -40h-210q4 32 9 46q11 32 42.5 63t62.5 50.5t55.5 44t24.5 46.5q0 23 -18 33t-42 10q-42 0 -84 -33l-10 35q44 39 103 39z" />
    <glyph glyph-name="threeinferior" unicode="&#x2083;" horiz-adv-x="261" 
d="M15 35l25 31q29 -34 77 -34q35 0 58.5 21.5t23.5 56.5q0 18 -9.5 29.5t-28 15.5t-31 5t-32.5 1l5 31l93 96h-130l6 37h184l-5 -33l-91 -95q36 -4 58.5 -25.5t22.5 -56.5q0 -51 -39 -86.5t-90 -35.5q-26 0 -54 11.5t-43 30.5z" />
    <glyph glyph-name="fourinferior" unicode="&#x2084;" horiz-adv-x="270" 
d="M193 268l-122 -141h102zM207 90l-12 -90h-40l13 90h-153l4 30l182 206h40l-29 -201h53l-5 -35h-53z" />
    <glyph glyph-name="fiveinferior" unicode="&#x2085;" horiz-adv-x="248" 
d="M15 29l27 33q30 -30 71 -30q34 0 59 25.5t25 58.5q0 14 -4.5 24.5t-16.5 16.5l-20 10t-27 5t-25.5 1.5t-27 -0.5t-21.5 -1l26 153h163l-5 -37h-126l-15 -77q29 0 49.5 -2.5t43.5 -10.5t35.5 -27t12.5 -47q0 -55 -38 -93t-93 -38q-52 0 -93 36z" />
    <glyph glyph-name="sixinferior" unicode="&#x2086;" horiz-adv-x="242" 
d="M56 90q0 -26 18 -42.5t44 -16.5q33 0 56.5 23t23.5 56q0 26 -17.5 42.5t-43.5 16.5q-32 0 -56.5 -23.5t-24.5 -55.5zM163 326h45l-90 -124q18 4 28 4q40 0 65.5 -24.5t25.5 -63.5q0 -52 -36 -88.5t-88 -36.5q-43 0 -70.5 24t-27.5 66q0 38 27 77q23 33 69.5 96.5
t51.5 69.5z" />
    <glyph glyph-name="seveninferior" unicode="&#x2087;" horiz-adv-x="226" 
d="M235 326l-4 -31l-149 -257q-2 -3 -10.5 -17t-11.5 -21h-45l168 287h-139l6 39h185z" />
    <glyph glyph-name="eightinferior" unicode="&#x2088;" horiz-adv-x="239" 
d="M56 85q0 -24 17.5 -40t41.5 -16q29 0 52.5 22t23.5 51q0 23 -17 41.5t-40 18.5q-29 0 -53.5 -24t-24.5 -53zM153 294q-23 0 -40.5 -16.5t-17.5 -38.5q0 -18 13 -30t31 -12q22 0 38.5 17t16.5 39q0 18 -12 29.5t-29 11.5zM78 182q-22 19 -22 54q0 40 31 67.5t71 27.5
q32 0 54 -20t22 -52q0 -48 -42 -77q39 -25 39 -74q0 -48 -36 -82.5t-85 -34.5q-40 0 -67 24t-27 63q0 32 17 60.5t45 43.5z" />
    <glyph glyph-name="nineinferior" unicode="&#x2089;" horiz-adv-x="243" 
d="M197 237q0 25 -17 41.5t-43 16.5q-32 0 -56.5 -23.5t-24.5 -55.5q0 -26 17.5 -42.5t43.5 -16.5q32 0 56 24t24 56zM90 0h-45l89 124q-13 -5 -26 -5q-40 0 -66 26t-26 66q0 51 37 86.5t89 35.5q41 0 68 -24.5t27 -65.5q0 -38 -27 -77q-10 -15 -120 -166z" />
    <glyph glyph-name="parenleftinferior" unicode="&#x208d;" horiz-adv-x="159" 
d="M139 6v-6l-26 -28q-35 27 -55.5 69.5t-20.5 86.5q0 119 124 210l4 4l20 -33q-45 -24 -76 -74.5t-31 -100.5q0 -75 61 -128z" />
    <glyph glyph-name="parenrightinferior" unicode="&#x208e;" horiz-adv-x="159" 
d="M15 -8l1 5q46 32 75 78t29 97q0 36 -17.5 73.5t-45.5 55.5l27 33q35 -26 56 -70.5t21 -88.5q0 -117 -124 -208l-4 -3z" />
    <glyph glyph-name="franc" unicode="&#x20a3;" horiz-adv-x="538" 
d="M522 567h-307l-30 -217h246l-7 -46h-246l-18 -130h169l-6 -42h-169l-18 -132h-50l19 132h-61l6 42h61l61 438h356z" />
    <glyph glyph-name="lira" unicode="&#x20a4;" horiz-adv-x="490" 
d="M406 575q-40 0 -72.5 -24.5t-53 -64t-32.5 -77.5t-18 -77h148l-6 -40h-148q-7 -49 -40 -140.5t-60 -107.5h275l-6 -44h-366l6 44h12q24 0 48 31t40.5 74t27.5 81.5t14 61.5h-107l6 40h107q6 49 22.5 96.5t43.5 92.5t69.5 73t93.5 28q30 0 61.5 -11.5t48.5 -32.5l-28 -38
q-30 35 -86 35z" />
    <glyph glyph-name="Euro" unicode="&#x20ac;" horiz-adv-x="649" 
d="M391 39q87 0 155 57l17 -46q-73 -60 -181 -60q-104 0 -175.5 65t-82.5 169h-82l5 37h76q-3 35 10 80h-74l5 37h80q39 104 129 173t198 69t164 -62l-30 -45q-55 58 -139 58q-87 0 -159.5 -54.5t-106.5 -138.5h231l-5 -37h-240q-10 -38 -10 -73v-7h238l-5 -37h-229
q13 -83 70 -134t141 -51z" />
    <glyph glyph-name="afii61352" unicode="&#x2116;" horiz-adv-x="882" 
d="M489 611h53l-86 -612h-56l-232 515l-72 -515h-52l86 612h55l232 -517zM838 270l-6 -41h-244l5 41h245zM753 572q48 0 80.5 -31t32.5 -79q0 -60 -45 -104.5t-104 -44.5q-49 0 -81.5 31t-32.5 80q0 60 45 104t105 44zM746 530q-40 0 -70 -29.5t-30 -69.5q0 -32 21.5 -54
t54.5 -22q40 0 71 31t31 71q0 32 -22.5 52.5t-55.5 20.5z" />
    <glyph glyph-name="minus" unicode="&#x2212;" horiz-adv-x="430" 
d="M383 296h-368l6 47h368z" />
    <glyph glyph-name="uni2215" unicode="&#x2215;" horiz-adv-x="380" 
d="M369 623l-307 -631h-50l306 631h51z" />
    <glyph glyph-name="uni2219" unicode="&#x2219;" horiz-adv-x="147" 
d="M134 324q0 -19 -15 -34t-35 -15q-16 0 -27 10.5t-11 26.5q0 20 15 35t35 15q16 0 27 -11t11 -27z" />
    <glyph glyph-name="radical" unicode="&#x221a;" horiz-adv-x="818" 
d="M826 796l-498 -818l-134 285h-129l6 44h160l105 -232l436 721h54z" />
    <glyph glyph-name="approxequal" unicode="&#x2248;" horiz-adv-x="428" 
d="M99 320l-35 20q49 68 120 68q25 0 64 -15.5t62 -15.5q41 0 66 34l37 -19q-42 -61 -106 -61q-27 0 -65.5 16t-62.5 16q-49 0 -80 -43zM79 172l-35 20q47 68 119 68q25 0 64.5 -16t62.5 -16q41 0 65 35l38 -20q-43 -60 -106 -60q-27 0 -66 16t-62 16q-49 0 -80 -43z" />
    <glyph glyph-name="notequal" unicode="&#x2260;" horiz-adv-x="456" 
d="M424 621l-87 -173h107l-7 -47h-124l-78 -155h182l-6 -46h-199l-105 -208h-46l105 208h-122l6 46h139l79 155h-198l7 47h215l87 173h45z" />
    <glyph glyph-name="lessequal" unicode="&#x2264;" horiz-adv-x="461" 
d="M386 57h-342l6 47h343zM406 200l-323 132l5 39l361 132l-7 -48l-285 -103l256 -103z" />
    <glyph glyph-name="greaterequal" unicode="&#x2265;" horiz-adv-x="445" 
d="M50 104h343l-7 -47h-342zM425 332l-361 -132l7 49l285 103l-256 103l6 48l324 -132z" />
    <glyph glyph-name="triangle" unicode="&#x25b3;" horiz-adv-x="224" 
d="M212 292l-168 -98l27 196z" />
    <glyph glyph-name="circle" unicode="&#x25cb;" horiz-adv-x="257" 
d="M71 277q0 43 33.5 76t76.5 33q36 0 60 -23t24 -59q0 -43 -33.5 -76t-76.5 -33q-35 0 -59.5 23.5t-24.5 58.5z" />
    <glyph glyph-name="f_f_i" unicode="&#xfb03;" horiz-adv-x="688" 
d="M668 509l-71 -509h-49l65 464h-155l-89 -645h-49l90 645h-68h-1h-157l-90 -645h-48l90 645h-69l6 45h69q11 79 56 138t119 59q48 -2 77 -24l-23 -38q-18 16 -58 16q-37 0 -64 -25.5t-39.5 -57t-17.5 -68.5h155h1h68q11 80 56 138.5t119 58.5q46 -2 76 -24l-22 -38
q-20 16 -59 16q-37 0 -64 -25.5t-39.5 -57t-17.5 -68.5h154h2h47z" />
    <glyph glyph-name="A.sc" horiz-adv-x="447" 
d="M335 146h-202l-71 -147h-53l250 511h53l106 -511h-53zM327 190l-52 253l-121 -253h173z" />
    <glyph glyph-name="AE.001" horiz-adv-x="602" 
d="M238 190l35 249l-121 -249h86zM582 466h-258l-25 -175h209l-5 -42h-210l-29 -205h258l-6 -44h-305l21 147h-100l-71 -147h-52l249 510h330z" />
    <glyph glyph-name="AEacute.001" horiz-adv-x="602" 
d="M238 190l35 249l-121 -249h86zM582 466h-258l-25 -175h209l-5 -42h-210l-29 -205h258l-6 -44h-305l21 147h-100l-71 -147h-52l249 510h330zM380 581h-46l59 110h59z" />
    <glyph glyph-name="Aacute.001" horiz-adv-x="445" 
d="M152 190h175l-52 254zM310 510l106 -510h-51l-31 147h-202l-71 -147h-52l249 510h52zM334 613h-45l59 110h59z" />
    <glyph glyph-name="Abreve.001" horiz-adv-x="442" 
d="M346 652h40q-5 -35 -31 -58.5t-62 -23.5q-30 0 -50 19t-20 49q0 10 1 14h40v-8q0 -15 10 -25.5t25 -10.5q16 0 30.5 13.5t16.5 30.5zM364 0l-30 148h-205l-72 -148h-48l248 509h50l105 -509h-48zM147 188h180l-53 262z" />
    <glyph glyph-name="Acircumflex.001" horiz-adv-x="442" 
d="M257 580h-39l68 116h50l35 -116h-40l-25 79zM364 0l-30 148h-205l-72 -148h-48l248 509h50l105 -509h-48zM147 188h180l-53 262z" />
    <glyph glyph-name="Adieresis.001" horiz-adv-x="431" 
d="M383 580q-13 0 -22 8.5t-9 21.5q0 16 12.5 28t28.5 12q13 0 22 -9t9 -22q0 -16 -12.5 -28t-28.5 -11zM206 580q-14 0 -22.5 8t-8.5 21q0 16 12 28.5t28 12.5q13 0 22 -9t9 -22q0 -16 -12 -28t-28 -11zM364 0l-30 148h-205l-72 -148h-48l248 509h50l105 -509h-48zM147 188
h180l-53 262z" />
    <glyph glyph-name="Agrave.001" horiz-adv-x="442" 
d="M307 509l105 -509h-48l-30 148h-205l-72 -148h-48l248 509h50zM147 188h180l-53 262zM227 690h59l28 -109h-45z" />
    <glyph glyph-name="Amacron.001" horiz-adv-x="452" 
d="M452 584h-315l5 39h315zM364 0l-30 148h-205l-72 -148h-48l248 509h50l105 -509h-48zM147 188h180l-53 262z" />
    <glyph glyph-name="Aogonek.001" horiz-adv-x="472" 
d="M331 -75q0 45 32 75l-29 146h-202l-71 -146h-51l248 509h52l106 -510q-18 -10 -31 -29t-13 -38q0 -33 36 -33q14 0 28 12l13 -28q-22 -19 -55 -19q-27 0 -45 17t-18 44zM152 189h175l-52 254z" />
    <glyph glyph-name="Aring.001" horiz-adv-x="436" 
d="M260 622q0 -14 10.5 -25t24.5 -11q17 0 31.5 14t14.5 31q0 14 -10.5 24t-24.5 10q-18 0 -32 -13t-14 -30zM291 551q-29 0 -48 18.5t-19 46.5q0 34 26.5 59.5t61.5 25.5q28 0 47 -18t19 -46q0 -34 -26.5 -60t-60.5 -26zM364 0l-30 148h-205l-72 -148h-48l248 509h50
l105 -509h-48zM147 188h180l-53 262z" />
    <glyph glyph-name="Atilde.001" horiz-adv-x="445" 
d="M307 509l105 -509h-48l-30 148h-205l-72 -148h-48l248 509h50zM147 188h180l-53 262zM182 573l-34 20q38 58 104 58q20 0 54.5 -13t53.5 -13q37 0 55 30l35 -19q-38 -53 -90 -53q-20 0 -56 13.5t-55 13.5q-15 0 -25 -3.5t-14.5 -7t-13 -12.5t-14.5 -14z" />
    <glyph glyph-name="B.sc" horiz-adv-x="431" 
d="M247 -1h-203l72 511h170q47 0 78.5 -29t31.5 -75q0 -71 -62 -119q34 -14 53 -46.5t19 -70.5q0 -64 -48 -117.5t-111 -53.5zM279 470h-121l-24 -173h121q37 0 66.5 32t29.5 70q0 31 -20.5 51t-51.5 20zM280 255h-152l-30 -215h152q41 0 74 40t33 82q0 36 -21.5 64.5
t-55.5 28.5z" />
    <glyph glyph-name="C.sc" horiz-adv-x="494" 
d="M404 84l17 -40q-60 -53 -153 -53q-95 0 -157 63.5t-62 159.5q0 119 87 211t206 92q39 0 78.5 -13.5t59.5 -39.5l-28 -40q-45 48 -115 48q-96 0 -167 -76.5t-71 -174.5q0 -79 49.5 -131.5t127.5 -52.5q34 0 70 12.5t58 34.5z" />
    <glyph glyph-name="Cacute.001" horiz-adv-x="493" 
d="M403 84l17 -40q-26 -24 -69.5 -38t-82.5 -14q-95 0 -157 63.5t-62 159.5q0 119 87 210.5t206 91.5q38 0 77.5 -13.5t59.5 -39.5l-28 -40q-19 22 -51 35t-63 13q-97 0 -168 -76t-71 -174q0 -79 49.5 -132t128.5 -53q31 0 68.5 13.5t58.5 33.5zM357 581h-46l59 110h60z" />
    <glyph glyph-name="Ccaron.001" horiz-adv-x="493" 
d="M403 84l17 -40q-26 -24 -69.5 -38t-82.5 -14q-95 0 -157 63.5t-62 159.5q0 119 87 210.5t206 91.5q38 0 77.5 -13.5t59.5 -39.5l-28 -40q-19 22 -51 35t-63 13q-97 0 -168 -76t-71 -174q0 -79 49.5 -132t128.5 -53q31 0 68.5 13.5t58.5 33.5zM327 616l49 81h39l-68 -117
h-50l-36 117h40z" />
    <glyph glyph-name="Ccedilla.001" horiz-adv-x="493" 
d="M205 0q-71 20 -113.5 78.5t-42.5 136.5t39.5 147.5t107.5 112t146 42.5q38 0 77.5 -13.5t59.5 -39.5l-28 -40q-19 22 -51 35t-63 13q-97 0 -168 -76t-71 -174q0 -79 49.5 -132t128.5 -53q31 0 68.5 13.5t58.5 33.5l17 -40q-26 -24 -69.5 -38t-82.5 -14h-15l-65 -106
l-47 1z" />
    <glyph glyph-name="Ccircumflex.001" horiz-adv-x="493" 
d="M403 84l17 -40q-26 -24 -69.5 -38t-82.5 -14q-95 0 -157 63.5t-62 159.5q0 119 87 210.5t206 91.5q38 0 77.5 -13.5t59.5 -39.5l-28 -40q-19 22 -51 35t-63 13q-97 0 -168 -76t-71 -174q0 -79 49.5 -132t128.5 -53q31 0 68.5 13.5t58.5 33.5zM343 659l-48 -79h-40l68 116
h50l36 -116h-41z" />
    <glyph glyph-name="Cdotaccent.001" horiz-adv-x="493" 
d="M403 84l17 -40q-26 -24 -69.5 -38t-82.5 -14q-95 0 -157 63.5t-62 159.5q0 119 87 210.5t206 91.5q38 0 77.5 -13.5t59.5 -39.5l-28 -40q-19 22 -51 35t-63 13q-97 0 -168 -76t-71 -174q0 -79 49.5 -132t128.5 -53q31 0 68.5 13.5t58.5 33.5zM319 572q-16 0 -26.5 10.5
t-10.5 26.5q0 19 15 34t34 15q16 0 26.5 -11t10.5 -27q0 -19 -15 -33.5t-34 -14.5z" />
    <glyph glyph-name="D.sc" horiz-adv-x="458" 
d="M193 -1h-149l72 511h149q84 0 131.5 -63.5t47.5 -150.5q0 -68 -31.5 -136t-90.5 -114.5t-129 -46.5zM259 466h-101l-60 -422h69h36q55 2 100 43t67.5 96.5t22.5 109.5q0 70 -34 121.5t-100 51.5z" />
    <glyph glyph-name="DEL" horiz-adv-x="488" 
d="M467 200h-423l7 47h423z" />
    <glyph glyph-name="Dcaron.001" horiz-adv-x="457" 
d="M393 292q0 70 -32.5 121t-98.5 53h-36h-69l-60 -422h69h36q82 3 136.5 82.5t54.5 165.5zM192 0h-148l72 510h148q84 0 131.5 -63.5t47.5 -150.5q0 -68 -31.5 -135.5t-90.5 -114t-129 -46.5zM273 616l49 81h39l-69 -117h-49l-36 117h40z" />
    <glyph glyph-name="E.sc" horiz-adv-x="436" 
d="M158 465l-25 -173h210l-6 -44h-210l-29 -204h259l-7 -45h-306l72 511h306l-6 -45h-258z" />
    <glyph glyph-name="Eacute.001" horiz-adv-x="435" 
d="M116 510h305l-6 -44h-258l-25 -175h209l-5 -43h-210l-29 -204h259l-6 -44h-306zM370 696l-72 -110h-46l59 110h59z" />
    <glyph glyph-name="Ebreve.001" horiz-adv-x="435" 
d="M415 466h-258l-25 -175h209l-5 -43h-210l-29 -204h259l-6 -44h-306l72 510h305zM331 651h40q-5 -35 -30.5 -59t-61.5 -24q-30 0 -50.5 19.5t-20.5 49.5q0 10 1 14h41q-1 -2 -1 -8q0 -15 10 -25.5t25 -10.5q17 0 31 13.5t16 30.5z" />
    <glyph glyph-name="Ecaron.001" horiz-adv-x="435" 
d="M415 466h-258l-25 -175h209l-5 -43h-210l-29 -204h259l-6 -44h-306l72 510h305zM285 616l49 81h39l-67 -116h-51l-35 116h39z" />
    <glyph glyph-name="Ecircumflex.001" horiz-adv-x="435" 
d="M415 466h-258l-25 -175h209l-5 -43h-210l-29 -204h259l-6 -44h-306l72 510h305zM297 659l-47 -79h-41l69 117h50l35 -117h-40z" />
    <glyph glyph-name="Edieresis.001" horiz-adv-x="435" 
d="M415 466h-258l-25 -175h209l-5 -43h-210l-29 -204h259l-6 -44h-306l72 510h305zM370 577q-13 0 -22.5 8.5t-9.5 21.5q0 16 12.5 28t29.5 12q13 0 21.5 -9t8.5 -22q0 -16 -12 -27.5t-28 -11.5zM192 577q-13 0 -21.5 8t-8.5 21q0 16 12 28.5t28 12.5q14 0 22.5 -8.5
t8.5 -22.5q0 -16 -12 -27.5t-29 -11.5z" />
    <glyph glyph-name="Edotaccent.001" horiz-adv-x="435" 
d="M415 466h-258l-25 -175h209l-5 -43h-210l-29 -204h259l-6 -44h-306l72 510h305zM271 573q-15 0 -26 10.5t-11 26.5q0 19 15 33.5t35 14.5q16 0 26.5 -10.5t10.5 -26.5q0 -19 -15.5 -33.5t-34.5 -14.5z" />
    <glyph glyph-name="Egrave.001" horiz-adv-x="435" 
d="M116 510h305l-6 -44h-258l-25 -175h209l-5 -43h-210l-29 -204h259l-6 -44h-306zM278 691l29 -110h-46l-42 110h59z" />
    <glyph glyph-name="Emacron.001" horiz-adv-x="461" 
d="M415 466h-258l-25 -175h209l-5 -43h-210l-29 -204h259l-6 -44h-306l72 510h305zM447 623l-5 -39h-316l6 39h315z" />
    <glyph glyph-name="Eogonek.001" horiz-adv-x="435" 
d="M354 -107l14 -29q-19 -18 -57 -18q-17 0 -31 7.5t-22.5 21.5t-8.5 31q0 60 49 94h-254l72 510h305l-6 -44h-258l-25 -175h209l-5 -43h-210l-29 -204h259l-6 -44h-1q-59 -34 -59 -87q0 -33 35 -33q12 0 29 13z" />
    <glyph glyph-name="Euro.001" horiz-adv-x="393" 
d="M235 280q-57 0 -97 34t-48 90h-48l5 32h41l5 33h-42l5 31h46q23 57 73 93.5t110 36.5q23 0 56 -10.5t38 -27.5l-21 -29l-4 -3q-35 33 -74 33q-43 0 -79.5 -26t-55.5 -67h126l-4 -31h-134q-4 -22 -4 -33h133l-4 -31h-125q9 -41 38 -65t70 -24q38 0 82 32l4 1l14 -32
q-9 -16 -45 -26.5t-61 -10.5z" />
    <glyph glyph-name="F.sc" horiz-adv-x="436" 
d="M134 294h209l-6 -45h-210l-35 -250h-48l72 512h310l-7 -45h-261z" />
    <glyph glyph-name="G.sc" horiz-adv-x="507" 
d="M413 246h48l-26 -181q-1 -7 -10 -16q-64 -58 -156 -58q-96 0 -158 64t-62 161q0 119 88 210.5t207 91.5q95 0 149 -57l-30 -41q-51 53 -122 53q-96 0 -168.5 -76t-72.5 -173q0 -80 51 -134t130 -54q66 0 109 45z" />
    <glyph glyph-name="Gbreve.001" horiz-adv-x="505" 
d="M413 246h47l-26 -181q-1 -6 -10 -15q-28 -27 -70.5 -42.5t-84.5 -15.5q-96 0 -158 64t-62 160q0 119 88 210t206 91q96 0 148 -56l-29 -40q-17 22 -54 37t-68 15q-96 0 -168.5 -76t-72.5 -173q0 -80 51 -134t130 -54q67 0 110 45zM332 620q18 0 31.5 13.5t15.5 30.5h40
q-4 -35 -30.5 -59t-61.5 -24q-31 0 -51 19.5t-20 49.5q0 2 0.5 7t0.5 8h41q-2 -18 7 -31.5t27 -13.5z" />
    <glyph glyph-name="Gcircumflex.001" horiz-adv-x="505" 
d="M269 -8q-96 0 -158 64t-62 160q0 119 88 210t206 91q96 0 148 -56l-29 -40q-49 52 -122 52q-97 0 -169 -76t-72 -174q0 -79 50.5 -133t129.5 -54q68 0 111 45l23 165h47l-26 -181q0 -5 -12 -16q-62 -57 -153 -57zM334 659l-47 -79h-41l68 116h51l35 -116h-40z" />
    <glyph glyph-name="Gcommaaccent.001" horiz-adv-x="505" 
d="M269 -8q-96 0 -158 64t-62 160q0 119 88 210t206 91q96 0 148 -56l-29 -40q-49 52 -122 52q-97 0 -169 -76t-72 -174q0 -79 50.5 -133t129.5 -54q68 0 111 45l23 165h47l-26 -181q0 -5 -12 -16q-62 -57 -153 -57zM200 -202h-1l-6 29q38 12 46 48q-2 -1 -7 -1
q-15 0 -24 9.5t-9 27.5q0 15 11.5 26t28.5 11q18 0 28 -13.5t10 -32.5q0 -32 -23 -65.5t-54 -38.5z" />
    <glyph glyph-name="Gdotaccent.001" horiz-adv-x="505" 
d="M269 -8q-96 0 -158 64t-62 160q0 119 88 210t206 91q96 0 148 -56l-29 -40q-49 52 -122 52q-97 0 -169 -76t-72 -174q0 -79 50.5 -133t129.5 -54q68 0 111 45l23 165h47l-26 -181q0 -5 -12 -16q-62 -57 -153 -57zM320 573q-16 0 -26.5 11t-10.5 26q0 19 15 34t34 15
q16 0 26.5 -11t10.5 -26q0 -19 -15 -34t-34 -15z" />
    <glyph glyph-name="H.sc" 
d="M463 510l-72 -511h-49l35 250h-250l-35 -250h-48l72 511h48l-30 -216h250l30 216h49z" />
    <glyph glyph-name="Hbar.001" horiz-adv-x="507" 
d="M494 420l-6 -36h-43l-53 -384h-45l35 251h-255l-35 -251h-43l54 384h-51l5 36h51l12 89h44l-13 -89h255l13 89h44l-12 -89h43zM388 291l13 93h-255l-13 -93h255z" />
    <glyph glyph-name="Hcircumflex.001" horiz-adv-x="475" 
d="M415 510h46l-71 -510h-47l35 249h-252l-35 -249h-47l72 510h47l-31 -217h252zM309 659l-47 -79h-40l68 117h50l35 -117h-39z" />
    <glyph glyph-name="I.sc" horiz-adv-x="178" 
d="M164 510l-72 -511h-48l72 511h48z" />
    <glyph glyph-name="Iacute.001" horiz-adv-x="191" 
d="M163 510l-72 -510h-47l72 510h47zM245 691l-72 -110h-46l59 110h59z" />
    <glyph glyph-name="Ibreve.001" horiz-adv-x="193" 
d="M163 510l-72 -510h-47l72 510h47zM202 660h40q-5 -35 -31 -58.5t-61 -23.5q-31 0 -51.5 19t-20.5 49q0 9 1 14h41q-1 -3 -1 -8q0 -15 10 -25.5t25 -10.5q18 0 32 13t16 31z" />
    <glyph glyph-name="Icircumflex.001" horiz-adv-x="176" 
d="M163 510l-72 -510h-47l72 510h47zM161 659l-48 -79h-40l68 117h50l35 -117h-40z" />
    <glyph glyph-name="Idieresis.001" horiz-adv-x="238" 
d="M178 510l-72 -510h-47l72 510h47zM252 577q-13 0 -22.5 8.5t-9.5 21.5q0 16 13 28t29 12q13 0 21.5 -9t8.5 -22q0 -16 -12 -27.5t-28 -11.5zM75 577q-13 0 -21.5 8t-8.5 21q0 17 12 29t28 12q13 0 21.5 -8.5t8.5 -22.5q0 -16 -12 -27.5t-28 -11.5z" />
    <glyph glyph-name="Idotaccent.001" horiz-adv-x="171" 
d="M163 510l-72 -510h-47l72 510h47zM148 572q-16 0 -26.5 10.5t-10.5 26.5q0 19 15 34t34 15q16 0 26.5 -11t10.5 -27q0 -19 -15 -33.5t-34 -14.5z" />
    <glyph glyph-name="Igrave.001" horiz-adv-x="188" 
d="M163 510l-72 -510h-47l72 510h47zM145 691l29 -110h-45l-43 110h59z" />
    <glyph glyph-name="Imacron.001" horiz-adv-x="209" 
d="M149 510l-72 -510h-46l71 510h47zM298 620l-5 -39h-316l6 39h315z" />
    <glyph glyph-name="Iogonek.001" horiz-adv-x="215" 
d="M150 -90l12 -28q-22 -19 -54 -19q-27 0 -45 17t-18 44q0 21 11 43.5t27 32.5l71 509h47l-71 -509q-43 -25 -43 -68q0 -33 34 -33q13 0 29 11z" />
    <glyph glyph-name="Itilde.001" horiz-adv-x="256" 
d="M194 510l-72 -510h-48l72 510h48zM34 591q14 25 45 41.5t60 16.5q20 0 54.5 -13t52.5 -13q37 0 56 29l36 -19q-13 -23 -38.5 -38t-51.5 -15q-21 0 -57 13.5t-55 13.5q-14 0 -24.5 -3.5t-15 -7t-13.5 -12.5t-15 -14z" />
    <glyph glyph-name="J.sc" horiz-adv-x="383" 
d="M45 32l27 43l3 -2q39 -36 82 -36q50 0 78.5 37.5t36.5 91.5l48 343h49l-34 -244q-10 -70 -16 -106q-11 -71 -54.5 -120.5t-111.5 -49.5q-27 0 -60.5 12t-47.5 31z" />
    <glyph glyph-name="Jcircumflex.001" horiz-adv-x="438" 
d="M320 508h48l-38 -266q-11 -79 -12 -83q-12 -72 -54.5 -120.5t-111.5 -48.5q-28 0 -59.5 11t-47.5 30l27 44q38 -38 84 -38q50 0 79 37.5t37 91.5zM365 659l-48 -79h-40l68 116h51l34 -116h-39z" />
    <glyph glyph-name="K.sc" horiz-adv-x="431" 
d="M378 -1h-59l-191 253l-36 -253h-48l72 511h48l-29 -206l229 206h59l-249 -230z" />
    <glyph glyph-name="Kcommaaccent.001" horiz-adv-x="429" 
d="M172 281l205 -281h-58l-192 253l-36 -253h-47l72 510h47l-29 -206l230 206h57zM158 -202h-2l-5 29q38 12 46 48q-2 -1 -7 -1q-15 0 -24 9.5t-9 27.5q0 15 11.5 26t28.5 11q18 0 28 -13.5t10 -32.5q0 -32 -23 -65.5t-54 -38.5z" />
    <glyph glyph-name="L.sc" horiz-adv-x="285" 
d="M265 -1h-221l72 511h48l-66 -466h173z" />
    <glyph glyph-name="Lacute.001" horiz-adv-x="285" 
d="M246 691l-73 -110h-45l58 110h60zM269 44l-6 -44h-219l72 510h47l-66 -466h172z" />
    <glyph glyph-name="Lcaron.001" horiz-adv-x="283" 
d="M269 44l-6 -44h-219l72 510h47l-66 -466h172zM158 616l49 80h39l-68 -116h-50l-35 116h39z" />
    <glyph glyph-name="Lcaron.2" horiz-adv-x="342" 
d="M163 510l-66 -466h172l-6 -44h-219l72 510h47zM359 560l-74 -110h-46l60 110h60z" />
    <glyph glyph-name="Lcommaaccent.001" horiz-adv-x="318" 
d="M265 -1h-221l72 511h48l-66 -466h173zM122 -202h-2l-5 29q38 12 46 48q-2 -1 -7 -1q-15 0 -24 9.5t-9 27.5q0 15 11.5 26t28.5 11q18 0 28 -13.5t10 -32.5q0 -32 -23 -65.5t-54 -38.5z" />
    <glyph glyph-name="Ldot.001" horiz-adv-x="312" 
d="M269 44l-6 -44h-219l72 510h47l-66 -466h172zM250 217q-16 0 -26.5 10.5t-10.5 26.5q0 19 15 34t34 15q16 0 26.5 -11t10.5 -27q0 -19 -15 -33.5t-34 -14.5z" />
    <glyph glyph-name="Lslash.001" horiz-adv-x="376" 
d="M172 44h172l-6 -44h-219l34 242l-109 -69l7 49l109 68l31 220h47l-27 -191l151 95l-7 -47l-151 -96z" />
    <glyph glyph-name="M.sc" horiz-adv-x="583" 
d="M497 -1h-47l61 438l-210 -224l-147 223l-61 -437h-49l72 511h50l145 -224l209 224h49z" />
    <glyph glyph-name="N.sc" 
d="M391 -1h-51l-188 417l-59 -417h-49l72 511h50l190 -420l59 420h48z" />
    <glyph glyph-name="Nacute.001" 
d="M261 578l61 112h63l-75 -112h-49zM391 -1h-51l-188 417l-59 -417h-49l72 511h50l190 -420l59 420h48z" />
    <glyph glyph-name="Ncaron.001" 
d="M353 696h42l-69 -119h-52l-36 119h43l25 -78zM391 -1h-51l-188 417l-59 -417h-49l72 511h50l190 -420l59 420h48z" />
    <glyph glyph-name="Ncommaaccent.001" 
d="M391 -1h-51l-188 417l-59 -417h-49l72 511h50l190 -420l59 420h48zM183 -202h-2l-5 29q38 12 46 48q-2 -1 -7 -1q-15 0 -24 9.5t-9 27.5q0 15 11.5 26t28.5 11q18 0 28 -13.5t10 -32.5q0 -32 -23 -65.5t-54 -38.5z" />
    <glyph glyph-name="Ntilde.001" horiz-adv-x="479" 
d="M391 -1h-51l-188 417l-59 -417h-49l72 511h50l190 -420l59 420h48zM190 577l-34 20q16 27 44.5 42.5t59.5 15.5q19 0 54 -13t54 -13q36 0 55 30l35 -19q-29 -53 -90 -53q-20 0 -55.5 13.5t-54.5 13.5t-28.5 -3.5t-22.5 -17t-17 -16.5z" />
    <glyph glyph-name="O.sc" horiz-adv-x="507" 
d="M235 -9q-90 0 -138 60.5t-48 152.5q0 75 30.5 146t91.5 120t138 49q88 0 135.5 -62.5t47.5 -153.5q0 -76 -29.5 -146t-90 -118t-137.5 -48zM241 35q64 0 111.5 43t68.5 102t21 121q0 75 -34 124t-105 49q-65 0 -112.5 -43.5t-68.5 -102.5t-21 -121q0 -74 34.5 -123
t105.5 -49z" />
    <glyph glyph-name="OE.001" horiz-adv-x="795" 
d="M301 483q-64 0 -112 -43.5t-69 -103t-21 -121.5q0 -74 34.5 -123.5t105.5 -49.5q64 0 112 43t69 102t21 122q0 74 -34.5 124t-105.5 50zM775 466h-259l-25 -175h210l-6 -42h-210l-29 -205h260l-7 -44h-306l14 101q-72 -102 -188 -102q-87 0 -133.5 61t-46.5 151
q0 75 30 146t90.5 120t137.5 49q54 0 94.5 -27.5t61.5 -77.5l12 89h306z" />
    <glyph glyph-name="Oacute.001" horiz-adv-x="506" 
d="M302 475q-64 0 -112 -43.5t-69.5 -103t-21.5 -121.5q0 -74 34.5 -123t106.5 -49q64 0 112 43t69 102t21 121q0 74 -34.5 123.5t-105.5 50.5zM308 518q88 0 135.5 -62.5t47.5 -153.5q0 -119 -71.5 -214.5t-185.5 -95.5q-89 0 -137 60.5t-48 152.5q0 74 30 144.5t91 119.5
t138 49zM333 581h-46l60 110h59z" />
    <glyph glyph-name="Obreve.001" horiz-adv-x="507" 
d="M370 658h40q-5 -36 -31 -59.5t-62 -23.5q-30 0 -50 19.5t-20 49.5q0 10 1 14h40v-8q0 -15 10 -25.5t25 -10.5q16 0 30.5 13.5t16.5 30.5zM235 -9q-90 0 -138 60.5t-48 152.5q0 75 30.5 146t91.5 120t138 49q88 0 135.5 -62.5t47.5 -153.5q0 -76 -29.5 -146t-90 -118
t-137.5 -48zM241 35q64 0 111.5 43t68.5 102t21 121q0 75 -34 124t-105 49q-65 0 -112.5 -43.5t-68.5 -102.5t-21 -121q0 -74 34.5 -123t105.5 -49z" />
    <glyph glyph-name="Ocircumflex.001" horiz-adv-x="507" 
d="M328 657l-47 -79h-40l68 116h49l36 -116h-39zM235 -9q-90 0 -138 60.5t-48 152.5q0 75 30.5 146t91.5 120t138 49q88 0 135.5 -62.5t47.5 -153.5q0 -76 -29.5 -146t-90 -118t-137.5 -48zM241 35q64 0 111.5 43t68.5 102t21 121q0 75 -34 124t-105 49q-65 0 -112.5 -43.5
t-68.5 -102.5t-21 -121q0 -74 34.5 -123t105.5 -49z" />
    <glyph glyph-name="Odieresis.001" horiz-adv-x="507" 
d="M407 585q-13 0 -22 8.5t-9 21.5q0 16 12.5 28.5t28.5 12.5q13 0 21.5 -9t8.5 -22q0 -16 -12 -28t-28 -12zM229 585q-13 0 -21.5 8.5t-8.5 21.5q0 16 12 28.5t28 12.5q13 0 22 -9t9 -22q0 -16 -12.5 -28t-28.5 -12zM235 -9q-90 0 -138 60.5t-48 152.5q0 75 30.5 146
t91.5 120t138 49q88 0 135.5 -62.5t47.5 -153.5q0 -76 -29.5 -146t-90 -118t-137.5 -48zM241 35q64 0 111.5 43t68.5 102t21 121q0 75 -34 124t-105 49q-65 0 -112.5 -43.5t-68.5 -102.5t-21 -121q0 -74 34.5 -123t105.5 -49z" />
    <glyph glyph-name="Ograve.001" horiz-adv-x="507" 
d="M261 692h60l29 -110h-46zM235 -9q-90 0 -138 60.5t-48 152.5q0 75 30.5 146t91.5 120t138 49q88 0 135.5 -62.5t47.5 -153.5q0 -76 -29.5 -146t-90 -118t-137.5 -48zM241 35q64 0 111.5 43t68.5 102t21 121q0 75 -34 124t-105 49q-65 0 -112.5 -43.5t-68.5 -102.5
t-21 -121q0 -74 34.5 -123t105.5 -49z" />
    <glyph glyph-name="Ohungarumlaut.001" horiz-adv-x="512" 
d="M410 581h-46l54 110h65zM256 581h-45l54 110h64zM235 -9q-90 0 -138 60.5t-48 152.5q0 75 30.5 146t91.5 120t138 49q88 0 135.5 -62.5t47.5 -153.5q0 -76 -29.5 -146t-90 -118t-137.5 -48zM241 35q64 0 111.5 43t68.5 102t21 121q0 75 -34 124t-105 49
q-65 0 -112.5 -43.5t-68.5 -102.5t-21 -121q0 -74 34.5 -123t105.5 -49z" />
    <glyph glyph-name="Omacron.001" horiz-adv-x="509" 
d="M481 623l-6 -39h-315l6 39h315zM235 -9q-90 0 -138 60.5t-48 152.5q0 75 30.5 146t91.5 120t138 49q88 0 135.5 -62.5t47.5 -153.5q0 -76 -29.5 -146t-90 -118t-137.5 -48zM241 35q64 0 111.5 43t68.5 102t21 121q0 75 -34 124t-105 49q-65 0 -112.5 -43.5t-68.5 -102.5
t-21 -121q0 -74 34.5 -123t105.5 -49z" />
    <glyph glyph-name="Oslash.001" horiz-adv-x="510" 
d="M427 476q66 -59 66 -173q0 -76 -30 -146t-90.5 -117.5t-137.5 -47.5q-51 0 -91 24l-48 -77h-42l60 97q-63 59 -63 169q0 74 30 144.5t90.5 119.5t137.5 49q51 0 87 -21l53 84h43zM303 475q-64 0 -111.5 -43t-69 -102.5t-21.5 -121.5q0 -82 39 -128l233 377q-29 18 -70 18
zM241 35q64 0 111.5 42.5t69 101t21.5 120.5q0 87 -42 133l-233 -376q29 -21 73 -21z" />
    <glyph glyph-name="Otilde.001" horiz-adv-x="508" 
d="M203 574l-32 19q39 58 104 58q20 0 54.5 -13t53.5 -13q36 0 55 30l36 -19q-36 -53 -90 -53q-21 0 -57 13t-55 13q-41 0 -67 -36zM235 -9q-90 0 -138 60.5t-48 151.5q0 75 30.5 146t91.5 120t138 49q88 0 135.5 -62.5t47.5 -153.5q0 -76 -29.5 -146t-90 -117.5
t-137.5 -47.5zM241 34q64 0 111.5 43.5t68.5 102.5t21 121q0 74 -34 123.5t-105 49.5q-65 0 -112.5 -43.5t-68.5 -102.5t-21 -122q0 -74 34.5 -123t105.5 -49z" />
    <glyph glyph-name="P.sc" horiz-adv-x="449" 
d="M121 204l-29 -205h-48l72 511h202q51 0 83.5 -39.5t32.5 -91.5q0 -26 -12 -59q-10 -26 -24 -45.5t-28.5 -32.5t-35 -21t-36.5 -12t-41.5 -5.5t-42.5 -1.5t-46.5 1t-46.5 1zM310 466h-152l-31 -217h152q41 0 74.5 39.5t33.5 81.5q0 36 -21 66t-56 30z" />
    <glyph glyph-name="Q.sc" horiz-adv-x="506" 
d="M327 11l77 -112h-60l-68 98q-19 -5 -46 -5q-88 0 -134.5 60t-46.5 151q0 75 30 146.5t91 120.5t138 49q88 0 135.5 -61.5t47.5 -152.5q0 -92 -43 -175.5t-121 -118.5zM440 301q0 74 -34 123t-105 49q-63 0 -110.5 -43t-68.5 -102t-21 -120q0 -74 34.5 -123t104.5 -49
q64 0 111 43t68 101.5t21 120.5z" />
    <glyph glyph-name="R.sc" horiz-adv-x="451" 
d="M303 232l111 -233h-58l-107 230h-125l-32 -230h-48l72 511h206q50 0 82 -34t32 -84q0 -56 -39.5 -105t-93.5 -55zM313 468h-155l-28 -196h156q40 0 70.5 35.5t30.5 76.5q0 35 -20 59.5t-54 24.5z" />
    <glyph glyph-name="Racute.001" horiz-adv-x="450" 
d="M157 468l-28 -197h157q40 0 70.5 36.5t30.5 76.5q0 34 -20.5 59t-53.5 25h-156zM356 0l-108 230h-125l-32 -230h-47l72 510h205q50 0 82 -34.5t32 -84.5q0 -55 -39.5 -103.5t-93.5 -54.5l110 -233h-56zM303 581h-45l59 110h60z" />
    <glyph glyph-name="Rcaron.001" horiz-adv-x="450" 
d="M157 468l-28 -197h157q40 0 70.5 36.5t30.5 76.5q0 34 -20.5 59t-53.5 25h-156zM356 0l-108 230h-125l-32 -230h-47l72 510h205q50 0 82 -34.5t32 -84.5q0 -55 -39.5 -103.5t-93.5 -54.5l110 -233h-56zM278 616l48 80h39l-67 -116h-51l-35 116h40z" />
    <glyph glyph-name="Rcommaaccent.001" horiz-adv-x="450" 
d="M157 468l-28 -197h157q40 0 70.5 36.5t30.5 76.5q0 34 -20.5 59t-53.5 25h-156zM356 0l-108 230h-125l-32 -230h-47l72 510h205q50 0 82 -34.5t32 -84.5q0 -55 -39.5 -103.5t-93.5 -54.5l110 -233h-56zM173 -202h-1l-6 29q38 12 47 48q-3 -1 -8 -1q-15 0 -24 9.5t-9 27.5
q0 15 11.5 26t29.5 11t27.5 -13.5t9.5 -32.5q0 -32 -23 -65.5t-54 -38.5z" />
    <glyph glyph-name="S.sc" horiz-adv-x="424" 
d="M42 44l31 43q65 -50 122 -50q53 0 93 31.5t40 83.5q0 30 -23 51.5t-56 35t-65.5 28t-55.5 39t-23 60.5q0 71 56.5 112t129.5 41q33 0 67.5 -10.5t51.5 -31.5l-23 -41q-34 37 -98 37q-50 0 -92 -26t-42 -73q0 -25 23 -43t55.5 -31t65 -28.5t55.5 -43t23 -66.5
q0 -74 -54.5 -122.5t-129.5 -48.5q-33 0 -85 16t-66 37z" />
    <glyph glyph-name="Sacute.001" horiz-adv-x="422" 
d="M43 45l29 41l3 -2q68 -47 120 -47t92.5 32t40.5 83q0 30 -23 51.5t-56 35t-66 28t-56 39.5t-23 61q0 70 56.5 110.5t129.5 40.5q82 0 118 -41l-21 -39l-4 1q-49 35 -94 35q-50 0 -93 -26t-43 -74q0 -25 23 -43t55.5 -31t65.5 -28t56 -43t23 -67q0 -74 -54.5 -122
t-129.5 -48q-33 0 -82.5 16t-66.5 37zM296 579h-46l60 109h59z" />
    <glyph glyph-name="Scaron.001" horiz-adv-x="422" 
d="M43 45l29 41l3 -2q68 -47 120 -47t92.5 32t40.5 83q0 30 -23 51.5t-56 35t-66 28t-56 39.5t-23 61q0 70 56.5 110.5t129.5 40.5q82 0 118 -41l-21 -39l-4 1q-49 35 -94 35q-50 0 -93 -26t-43 -74q0 -25 23 -43t55.5 -31t65.5 -28t56 -43t23 -67q0 -74 -54.5 -122
t-129.5 -48q-33 0 -82.5 16t-66.5 37zM285 616l49 81h39l-68 -117h-50l-35 117h39z" />
    <glyph glyph-name="Scedilla.001" horiz-adv-x="422" 
d="M167 -6q-36 5 -73 19t-51 32l29 41l3 -2q68 -47 120 -47t92.5 32t40.5 83q0 30 -23 51.5t-56 35t-66 28t-56 39.5t-23 61q0 70 56.5 110.5t129.5 40.5q82 0 118 -41l-21 -39l-4 1q-49 35 -94 35q-50 0 -93 -26t-43 -74q0 -25 23 -43t55.5 -31t65.5 -28t56 -43t23 -67
q0 -69 -48.5 -116t-116.5 -53l-56 -107l-58 1z" />
    <glyph glyph-name="Scircumflex.001" horiz-adv-x="422" 
d="M43 45l29 41l3 -2q68 -47 120 -47t92.5 32t40.5 83q0 30 -23 51.5t-56 35t-66 28t-56 39.5t-23 61q0 70 56.5 110.5t129.5 40.5q82 0 118 -41l-21 -39l-4 1q-49 35 -94 35q-50 0 -93 -26t-43 -74q0 -25 23 -43t55.5 -31t65.5 -28t56 -43t23 -67q0 -74 -54.5 -122
t-129.5 -48q-33 0 -82.5 16t-66.5 37zM292 659l-49 -79h-39l67 117h51l34 -117h-39z" />
    <glyph glyph-name="Scommaaccent.001" horiz-adv-x="422" 
d="M43 45l29 41l3 -2q68 -47 120 -47t92.5 32t40.5 83q0 30 -23 51.5t-56 35t-66 28t-56 39.5t-23 61q0 70 56.5 110.5t129.5 40.5q82 0 118 -41l-21 -39l-4 1q-49 35 -94 35q-50 0 -93 -26t-43 -74q0 -25 23 -43t55.5 -31t65.5 -28t56 -43t23 -67q0 -74 -54.5 -122
t-129.5 -48q-33 0 -82.5 16t-66.5 37zM172 -202h-2l-6 29q39 12 47 48q-2 -1 -7 -1q-15 0 -24.5 10t-9.5 27q0 15 12 26t29 11q18 0 28 -13.5t10 -32.5q0 -32 -23.5 -65.5t-53.5 -38.5z" />
    <glyph glyph-name="T.sc" 
d="M482 510l-6 -44h-172l-65 -467h-48l66 467h-173l6 44h392z" />
    <glyph glyph-name="Tbar.001" 
d="M477 467h-172l-20 -146h133l-5 -38h-134l-39 -283h-47l39 283h-134l5 38h135l20 146h-173l6 43h392z" />
    <glyph glyph-name="Tcaron.001" horiz-adv-x="474" 
d="M303 467l-65 -467h-48l66 467h-172l6 43h391l-6 -43h-172zM300 616l50 81h39l-69 -117h-49l-36 117h40z" />
    <glyph glyph-name="Tcommaaccent.001" horiz-adv-x="474" 
d="M303 467l-65 -467h-48l66 467h-172l6 43h391l-6 -43h-172zM175 -202h-2l-6 29q38 12 47 48q-3 -1 -7 -1q-34 0 -34 37q0 15 11.5 26t29.5 11t27.5 -13.5t9.5 -32.5q0 -32 -23 -65.5t-53 -38.5z" />
    <glyph glyph-name="U.sc" horiz-adv-x="455" 
d="M196 -9q-65 0 -107.5 42.5t-42.5 107.5q0 14 7 65l43 304h49l-49 -342q0 -3 -0.5 -9.5t-0.5 -9.5q0 -46 30.5 -78t76.5 -32q53 0 94.5 38.5t48.5 90.5l49 342h47l-48 -342q-11 -73 -67.5 -125t-129.5 -52z" />
    <glyph glyph-name="Uacute.001" horiz-adv-x="454" 
d="M440 510l-43 -304q-1 -7 -3 -21.5t-3 -21.5q-12 -72 -67.5 -121.5t-127.5 -49.5q-65 0 -107.5 42.5t-42.5 106.5q0 16 7 65l43 304h47l-48 -342q0 -2 -0.5 -8t-0.5 -8q0 -48 30 -80.5t78 -32.5q52 0 94 38.5t49 90.5l48 342h47zM372 691l-73 -110h-45l59 110h59z" />
    <glyph glyph-name="Ubreve.001" horiz-adv-x="454" 
d="M393 510h47l-43 -304q-1 -7 -3 -21.5t-3 -21.5q-12 -72 -67.5 -121.5t-127.5 -49.5q-65 0 -107.5 42.5t-42.5 106.5q0 16 7 65l43 303h47l-42 -303q-7 -44 -7 -57q0 -46 31 -78t77 -32q53 0 94.5 38.5t48.5 90.5zM329 654h41q-6 -36 -31.5 -59.5t-61.5 -23.5
q-30 0 -50.5 19.5t-20.5 49.5q0 4 2 14h39v-8q0 -15 10 -26t25 -11q18 0 31.5 13.5t15.5 31.5z" />
    <glyph glyph-name="Ucircumflex.001" horiz-adv-x="454" 
d="M393 510h47l-43 -304q-1 -7 -3 -21.5t-3 -21.5q-12 -72 -67.5 -121.5t-127.5 -49.5q-65 0 -107.5 42.5t-42.5 106.5q0 16 7 65l43 303h47l-42 -303q-7 -44 -7 -57q0 -46 31 -78t77 -32q53 0 94.5 38.5t48.5 90.5zM289 659l-48 -79h-39l67 117h50l36 -117h-40z" />
    <glyph glyph-name="Udieresis.001" horiz-adv-x="454" 
d="M393 510h47l-43 -304q-1 -7 -3 -21.5t-3 -21.5q-12 -72 -67.5 -121.5t-127.5 -49.5q-65 0 -107.5 42.5t-42.5 106.5q0 16 7 65l43 303h47l-42 -303q-7 -44 -7 -57q0 -46 31 -78t77 -32q53 0 94.5 38.5t48.5 90.5zM366 575q-13 0 -22 9t-9 22q0 16 12.5 28t28.5 12
q14 0 22.5 -9t8.5 -22q0 -16 -12.5 -28t-28.5 -12zM189 575q-13 0 -22 8.5t-9 21.5q0 17 12 29t29 12q13 0 21.5 -9t8.5 -22q0 -16 -12 -28t-28 -12z" />
    <glyph glyph-name="Ugrave.001" horiz-adv-x="454" 
d="M440 510l-43 -304q-1 -7 -3 -21.5t-3 -21.5q-12 -72 -67.5 -121.5t-127.5 -49.5q-65 0 -107.5 42.5t-42.5 106.5q0 16 7 65l43 304h47l-48 -342q0 -2 -0.5 -8t-0.5 -8q0 -48 30 -80.5t78 -32.5q52 0 94 38.5t49 90.5l48 342h47zM285 691l29 -110h-46l-43 110h60z" />
    <glyph glyph-name="Uhungarumlaut.001" horiz-adv-x="460" 
d="M393 510h47l-48 -342q-11 -73 -67 -124.5t-129 -51.5q-66 0 -108 42.5t-42 108.5q0 9 2 25l48 342h47l-48 -342q0 -3 -0.5 -9t-0.5 -9q0 -48 30.5 -79.5t77.5 -31.5q53 0 94.5 38.5t48.5 90.5zM447 691l-74 -110h-45l54 110h65zM293 691l-73 -110h-45l53 110h65z" />
    <glyph glyph-name="Umacron.001" horiz-adv-x="456" 
d="M393 510h47l-43 -304q-1 -7 -3 -21.5t-3 -21.5q-12 -72 -67.5 -121.5t-127.5 -49.5q-65 0 -107.5 42.5t-42.5 106.5q0 16 7 65l43 303h47l-42 -303q-7 -44 -7 -57q0 -46 31 -78t77 -32q53 0 94.5 38.5t48.5 90.5zM436 584h-315l6 39h314z" />
    <glyph glyph-name="Uogonek.001" horiz-adv-x="454" 
d="M393 509h47l-43 -304q-1 -7 -3 -21.5t-3 -21.5q-10 -55 -47 -99t-90 -62q-4 -4 -14.5 -14t-14.5 -15.5t-8 -16.5t-4 -24q0 -34 36 -34q9 0 29 12l12 -28q-18 -19 -58 -19q-26 0 -43 17t-17 43q0 34 28 69q-67 0 -110.5 41t-43.5 108q0 16 7 65l43 304h47l-48 -342
q0 -3 -0.5 -9t-0.5 -9q0 -47 30.5 -79t77.5 -32q52 0 93.5 38t49.5 91l3 19z" />
    <glyph glyph-name="Uring.001" horiz-adv-x="454" 
d="M393 510h47l-43 -304q-1 -7 -3 -21.5t-3 -21.5q-12 -72 -67.5 -121.5t-127.5 -49.5q-65 0 -107.5 42.5t-42.5 106.5q0 16 7 65l43 303h47l-42 -303q-7 -44 -7 -57q0 -46 31 -78t77 -32q53 0 94.5 38.5t48.5 90.5zM247 638q0 -14 10 -24.5t24 -10.5q17 0 31.5 14t14.5 31
q0 15 -10 24.5t-25 9.5q-17 0 -31 -13.5t-14 -30.5zM276 567q-28 0 -46.5 18.5t-18.5 46.5q0 34 26 59.5t61 25.5q28 0 47 -18t19 -46q0 -34 -26.5 -60t-61.5 -26z" />
    <glyph glyph-name="Utilde.001" horiz-adv-x="457" 
d="M393 510h47l-43 -304q-1 -7 -3 -21.5t-3 -21.5q-12 -72 -67.5 -121.5t-127.5 -49.5q-65 0 -107.5 42.5t-42.5 106.5q0 16 7 65l43 303h47l-42 -303q-7 -44 -7 -57q0 -46 31 -78t77 -32q53 0 94.5 38.5t48.5 90.5zM133 593q39 58 105 58q20 0 54 -13t53 -13q38 0 55 29
l36 -19l-2 -2q-37 -50 -88 -50q-21 0 -56.5 13t-54.5 13q-14 0 -24.5 -3.5t-15 -7t-13.5 -12.5t-15 -14z" />
    <glyph glyph-name="V.sc" horiz-adv-x="479" 
d="M490 510l-251 -511h-51l-105 511h53l90 -426l210 426h54z" />
    <glyph glyph-name="W.sc" horiz-adv-x="833" 
d="M844 510l-250 -511h-50l-92 429l-212 -429h-51l-107 511h53l90 -429l212 425h51l93 -425l210 429h53z" />
    <glyph glyph-name="Wacute.001" horiz-adv-x="832" 
d="M792 510h51l-249 -510h-50l-92 436l-213 -436h-50l-107 510h51l92 -433l211 429h52l91 -429zM570 692l-74 -109h-45l59 109h60z" />
    <glyph glyph-name="Wcircumflex.001" horiz-adv-x="832" 
d="M792 510h51l-249 -510h-50l-92 436l-213 -436h-50l-107 510h51l92 -433l211 429h52l91 -429zM485 658l-48 -79h-39l67 116h50l35 -116h-39z" />
    <glyph glyph-name="Wdieresis.001" horiz-adv-x="832" 
d="M792 510h51l-249 -510h-50l-92 436l-213 -436h-50l-107 510h51l92 -433l211 429h52l91 -429zM572 646q13 0 21.5 -9t8.5 -22q0 -16 -12 -28t-28 -12q-13 0 -22.5 8.5t-9.5 21.5q0 16 13 28.5t29 12.5zM395 646q13 0 22 -9t9 -22q0 -16 -12.5 -28t-28.5 -12
q-13 0 -21.5 8.5t-8.5 21.5q0 16 12 28.5t28 12.5z" />
    <glyph glyph-name="Wgrave.001" horiz-adv-x="832" 
d="M792 510h51l-249 -510h-50l-92 436l-213 -436h-50l-107 510h51l92 -433l211 429h52l91 -429zM464 691l29 -110h-46l-43 110h60z" />
    <glyph glyph-name="X.sc" horiz-adv-x="513" 
d="M448 -1h-55l-123 239l-190 -239h-54l219 277l-123 234h54l105 -197l164 197h55l-194 -234z" />
    <glyph glyph-name="Y.sc" horiz-adv-x="429" 
d="M440 510l-209 -264l-34 -247h-49l35 247l-135 264h53l112 -214l176 214h51z" />
    <glyph glyph-name="Yacute.001" horiz-adv-x="428" 
d="M387 510h52l-209 -264l-35 -246h-47l35 246l-135 264h51l114 -215zM348 691l-73 -109h-46l60 109h59z" />
    <glyph glyph-name="Ycircumflex.001" horiz-adv-x="428" 
d="M387 510h52l-209 -264l-35 -246h-47l35 246l-136 264h52l114 -215zM264 659l-48 -79h-39l67 116h51l34 -116h-39z" />
    <glyph glyph-name="Ydieresis.001" horiz-adv-x="428" 
d="M387 510h52l-209 -264l-35 -246h-47l35 246l-136 264h52l114 -215zM164 577q-13 0 -21.5 8t-8.5 21q0 17 12 29t28 12q14 0 22.5 -8.5t8.5 -22.5q0 -16 -12.5 -27.5t-28.5 -11.5zM341 577q-13 0 -22.5 8.5t-9.5 21.5q0 16 12.5 28t29.5 12q13 0 21.5 -9t8.5 -22
q0 -16 -12 -27.5t-28 -11.5z" />
    <glyph glyph-name="Ygrave.001" horiz-adv-x="428" 
d="M387 510h52l-209 -264l-35 -246h-47l35 246l-135 264h51l114 -215zM207 691h60l28 -110h-46z" />
    <glyph glyph-name="Z.sc" horiz-adv-x="475" 
d="M455 470l-344 -427h284l-6 -44h-345l6 42l345 427h-271l6 42h331z" />
    <glyph glyph-name="Zacute.001" horiz-adv-x="474" 
d="M460 510l-6 -40l-345 -428h285l-6 -42h-344l6 41l345 427h-271l6 42h330zM393 691l-73 -110h-46l60 110h59z" />
    <glyph glyph-name="Zcaron.001" horiz-adv-x="474" 
d="M460 510l-6 -40l-345 -428h285l-6 -42h-344l6 41l345 427h-271l6 42h330zM312 616l49 81h39l-68 -117h-50l-35 117h39z" />
    <glyph glyph-name="Zdotaccent.001" horiz-adv-x="474" 
d="M460 510l-6 -40l-345 -428h285l-6 -42h-344l6 41l345 427h-271l6 42h330zM300 572q-16 0 -26.5 10.5t-10.5 26.5q0 19 15 34t34 15q16 0 26.5 -11t10.5 -27q0 -19 -15 -33.5t-34 -14.5z" />
    <glyph glyph-name="ampersand.001" horiz-adv-x="499" 
d="M200 39q67 0 132 65q-73 100 -115 179q-50 -19 -86 -57.5t-36 -87.5q0 -43 30.5 -71t74.5 -28zM200 323q-18 43 -18 76q0 55 47 89t104 34q55 0 95 -32q-6 -6 -27 -37q-4 9 -32 16t-43 7q-34 0 -63 -21t-29 -54q0 -69 135 -258q54 74 64 154h49q-15 -107 -84 -193
q46 -64 82 -106h-67q-11 12 -29.5 36.5t-24.5 31.5q-75 -75 -164 -75q-62 0 -105.5 38.5t-43.5 99.5q0 64 44.5 115.5t109.5 78.5z" />
    <glyph glyph-name="cent.001" horiz-adv-x="345" 
d="M277 362l18 -33q-40 -35 -98 -42l-8 -57h-42l8 57q-50 8 -77 46.5t-27 90.5q0 70 42 128.5t109 67.5l8 55h42l-8 -54q57 -7 86 -43l-27 -33q-8 16 -34.5 26.5t-46.5 10.5q-52 0 -89.5 -47t-37.5 -100q0 -43 24.5 -76.5t65.5 -33.5q21 0 50.5 11.5t41.5 25.5z" />
    <glyph glyph-name="check" horiz-adv-x="600" 
d="M607 650l-403 -660l-140 301h54l95 -207l341 566h53z" />
    <glyph glyph-name="circle.001" horiz-adv-x="257" 
d="M178 363q-31 0 -55.5 -24.5t-24.5 -56.5q0 -26 17 -43t43 -17q32 0 56 24t24 56q0 26 -17.5 43.5t-42.5 17.5zM85 278q0 39 28 68t67 29q32 0 51.5 -21t19.5 -53q0 -36 -29 -64t-65 -28q-30 0 -51 19.5t-21 49.5z" />
    <glyph glyph-name="commaaccent" horiz-adv-x="158" 
d="M57 -114q0 19 14.5 33.5t33.5 14.5q37 0 37 -51q0 -38 -26 -75.5t-62 -43.5l-4 29q45 11 54 63q-6 -3 -14 -3q-14 0 -23.5 9t-9.5 24z" />
    <glyph glyph-name="copyright.001" horiz-adv-x="466" 
d="M277 651q74 0 124 -49.5t50 -123.5q0 -90 -70 -159t-160 -69q-75 0 -125 49t-50 124q0 90 70.5 159t160.5 69zM224 273q81 0 143 61t62 141q0 66 -44.5 109t-110.5 43q-81 0 -142.5 -60t-61.5 -141q0 -66 44 -109.5t110 -43.5zM240 357q43 0 69 26l13 -23
q-40 -30 -87 -30q-44 0 -70 28t-26 72q0 56 37.5 99t93.5 43q18 0 42.5 -9t34.5 -22q-10 -10 -19 -22q-23 26 -61 26q-39 0 -69 -33.5t-30 -73.5q0 -33 20 -57t52 -24z" />
    <glyph glyph-name="currency.001" horiz-adv-x="392" 
d="M118 440q0 -35 24.5 -60t59.5 -25q44 0 76 34t32 78q0 36 -22.5 59.5t-58.5 23.5q-42 0 -76.5 -34t-34.5 -76zM352 330l-35 -30l-39 44q-35 -26 -81 -26q-47 0 -75 25l-49 -43l-27 30l50 44q-15 26 -15 58q0 53 35 98l-36 42l35 31l36 -41q37 26 83 26t77 -27l49 42
l26 -31l-50 -44q13 -23 13 -54q0 -55 -36 -99z" />
    <glyph glyph-name="d.001" horiz-adv-x="376" 
d="M300 591l19 138h42l-62 -442h-42l3 19q-39 -25 -86 -25q-61 0 -92 41t-31 104q0 78 46.5 135t122.5 57q43 0 80 -27zM267 357l26 187q-28 34 -77 34q-55 0 -88 -46.5t-33 -103.5q0 -46 21 -77.5t64 -31.5q51 0 87 38z" />
    <glyph glyph-name="dollar.001" horiz-adv-x="307" 
d="M171 286l-6 -38h-33l5 35q-22 1 -52 12t-41 26l24 29q14 -14 37.5 -24t42.5 -10q33 0 58.5 21t25.5 54q0 24 -23 40t-50 24.5t-50 28t-23 48.5q0 40 29 67t71 33l5 37h34l-5 -36q52 -2 73 -29l-21 -29q-8 11 -27.5 17.5t-36.5 6.5q-32 0 -58.5 -16.5t-26.5 -46.5
q0 -18 23 -32t50.5 -22.5t50.5 -30t23 -53.5q0 -42 -28.5 -73t-70.5 -39z" />
    <glyph glyph-name="doublecheck" horiz-adv-x="827" 
d="M781 612h52l-376 -613l-111 232l-142 -232l-140 300h54l95 -206l315 519h51l-201 -332l88 -187z" />
    <glyph glyph-name="eight.tx" horiz-adv-x="450" 
d="M347 345q40 -20 62 -58t22 -83q0 -89 -64.5 -151.5t-153.5 -62.5q-73 0 -120 43.5t-47 115.5q0 63 37 117t95 79q-54 35 -54 106t53 122t125 51q58 0 96 -35.5t38 -93.5q0 -46 -24.5 -87t-64.5 -63zM296 581q-49 0 -86 -36t-37 -85q0 -41 26 -66.5t67 -25.5q49 0 85 37
t36 86q0 40 -25.5 65t-65.5 25zM219 37q64 0 113 47t49 110q0 50 -36 87.5t-86 37.5q-60 0 -111.5 -50.5t-51.5 -110.5q0 -54 34.5 -87.5t88.5 -33.5z" />
    <glyph glyph-name="five.tx" horiz-adv-x="466" 
d="M44 -52l33 42q27 -23 64.5 -38t71.5 -15q71 0 123.5 52.5t52.5 123.5q0 27 -8 47.5t-19.5 33.5t-32.5 22t-37.5 13.5t-44.5 6.5t-44 2t-45 -0.5t-39 -0.5l46 272h287l-6 -46h-242l-31 -177l73 1q87 0 142 -40t55 -124q0 -97 -69.5 -166.5t-166.5 -69.5q-41 0 -86.5 17
t-76.5 44z" />
    <glyph glyph-name="four.tx" horiz-adv-x="510" 
d="M496 105l-7 -46h-99l-22 -162h-53l23 162h-294l6 43l346 407h58l-57 -404h99zM109 105h236l46 331z" />
    <glyph glyph-name="franc.001" horiz-adv-x="350" 
d="M160 524l-12 -91h133l-5 -37h-134l-9 -68h79l-5 -36h-79l-8 -57h-41l9 57h-44l6 36h43l33 234h214l-5 -38h-175z" />
    <glyph glyph-name="h.001" horiz-adv-x="331" 
d="M313 479l-27 -191h-41l23 167q4 30 4 46q0 75 -66 75q-41 0 -65.5 -37t-30.5 -84l-24 -167h-42l62 442h42l-22 -156q37 45 93 45q48 0 72.5 -27.5t24.5 -75.5q0 -18 -3 -37z" />
    <glyph glyph-name="lira.001" horiz-adv-x="317" 
d="M254 470l-5 -34h-79q-17 -78 -43 -114h141l-4 -35h-210l5 35q51 0 73 114h-57l5 34h57q8 60 41 105.5t88 45.5q41 0 64 -31l-22 -31q-23 25 -49 25q-35 0 -55.5 -36t-26.5 -78h77z" />
    <glyph glyph-name="n.001" horiz-adv-x="331" 
d="M313 481l-27 -193h-41l23 168q4 28 4 43q0 77 -66 77q-43 0 -66.5 -36t-29.5 -84l-24 -168h-42l45 325h43l-6 -39q37 45 92 45q98 0 98 -102q0 -18 -3 -36z" />
    <glyph glyph-name="nine.tx" horiz-adv-x="458" 
d="M214 128q-73 -1 -120.5 45t-47.5 119q0 93 66.5 157.5t159.5 64.5q76 0 124 -44.5t48 -119.5q0 -70 -50 -141q-75 -105 -225 -317h-57l179 251q-36 -15 -77 -15zM266 467q-68 0 -118.5 -49.5t-50.5 -117.5q0 -57 35.5 -92t91.5 -35q69 0 119.5 50.5t50.5 118.5
q0 56 -36 90.5t-92 34.5z" />
    <glyph glyph-name="one.tx" horiz-adv-x="341" 
d="M218 44h115l-6 -46h-283l6 46h115l57 405l-120 -52l-7 46q121 54 150 64h38z" />
    <glyph glyph-name="quadrate" horiz-adv-x="259" 
d="M44 200l25 178h178l-25 -178h-178z" />
    <glyph glyph-name="quadrate.001" horiz-adv-x="259" 
d="M217 361h-125l-18 -125h125zM247 387l-25 -178h-178l25 178h178z" />
    <glyph glyph-name="r.001" horiz-adv-x="207" 
d="M105 454l-23 -165h-43l46 324h42l-5 -38q38 45 90 45q30 0 39 -8l-18 -30q-4 -2 -7.5 -3t-8.5 -1t-9 -1l-1 -2l-7 1q-42 0 -65 -37t-30 -85z" />
    <glyph glyph-name="registered.001" horiz-adv-x="464" 
d="M276 649q75 0 125 -49t50 -123q0 -91 -70 -160t-161 -69q-74 0 -124 49.5t-50 123.5q0 90 70 159t160 69zM223 271q81 0 143 60.5t62 141.5q0 66 -44.5 109.5t-110.5 43.5q-80 0 -142 -61t-62 -141q0 -66 44 -109.5t110 -43.5zM330 501q0 -23 -15.5 -43.5t-38.5 -25.5
l46 -97h-31q-3 5 -45 95h-45l-13 -95h-28l30 219h90q22 0 36 -15t14 -38zM204 455l61 -1q14 0 26 14t12 29q0 13 -8 22.5t-20 9.5h-60z" />
    <glyph glyph-name="s.001" horiz-adv-x="306" 
d="M44 318l26 37q38 -34 79 -34q29 0 52.5 18t23.5 46q0 21 -22 36.5t-48.5 24t-48.5 27.5t-22 45q0 45 38.5 73t84.5 28q20 0 50.5 -9t34.5 -23l-23 -32q-32 27 -67 27q-25 0 -49.5 -17t-24.5 -41q0 -17 22 -30.5t49 -23t49 -30t22 -48.5q0 -50 -36.5 -80t-87.5 -30
q-10 0 -19.5 1.5t-16 3t-16.5 6t-14 6.5t-16 8.5t-16 8.5z" />
    <glyph glyph-name="seven.tx" horiz-adv-x="378" 
d="M65 463l7 46h331l-6 -45l-324 -567h-55l324 566h-277z" />
    <glyph glyph-name="six.tx" horiz-adv-x="456" 
d="M275 377q74 0 121.5 -45t47.5 -119q0 -93 -66.5 -158t-159.5 -65q-76 0 -124 44.5t-48 119.5q0 72 50 141q121 173 225 317h57l-180 -251q35 16 77 16zM225 37q68 0 118.5 50t50.5 118q0 56 -36 91.5t-92 35.5q-68 0 -118.5 -50.5t-50.5 -118.5q0 -57 35.5 -91.5
t92.5 -34.5z" />
    <glyph glyph-name="sterling.001" horiz-adv-x="325" 
d="M246 470l-5 -33h-79q-17 -78 -43 -114h141l-5 -36h-209l5 36h13q19 0 36.5 41t23.5 73h-57l5 33h57q8 60 41 105t88 45q63 0 63 -29q0 -1 -5 -8t-10 -14.5t-6 -9.5q-25 25 -49 25q-35 0 -55.5 -35.5t-27.5 -78.5h78z" />
    <glyph glyph-name="t.001" horiz-adv-x="245" 
d="M135 281q-38 0 -55 25.5t-17 65.5q0 11 2 31l24 170h-43l6 38h42l13 90h41l-12 -90h94l-5 -38h-94q-2 -13 -9.5 -58t-12 -79t-4.5 -59q0 -57 38 -57q28 0 41 14l11 -35q-29 -18 -60 -18z" />
    <glyph glyph-name="three.tx" horiz-adv-x="488" 
d="M278 260q75 0 123 -38t48 -110q0 -95 -69.5 -160t-164.5 -65q-45 0 -93 19.5t-78 51.5l31 39q26 -27 66.5 -43.5t77.5 -16.5q75 0 126.5 46t51.5 120q0 31 -13.5 52.5t-31.5 32.5t-48 17t-50.5 7t-51.5 1l6 45l202 205h-266l6 46h328l-6 -46z" />
    <glyph glyph-name="triangle.001" horiz-adv-x="224" 
d="M91 338l-13 -97l83 49zM71 388l141 -98l-168 -98z" />
    <glyph glyph-name="two.tx" horiz-adv-x="463" 
d="M395 392q0 41 -30.5 60t-74.5 19q-40 0 -87 -15t-81 -39l-13 42q84 61 190 61q62 0 106 -33t44 -95q0 -49 -31.5 -86t-77.5 -62t-93 -49t-85 -61t-47 -85h310l-7 -49h-374l5 37q9 64 47.5 111.5t88 74t97.5 49.5t80.5 52t32.5 68z" />
    <glyph glyph-name="yen.001" horiz-adv-x="334" 
d="M275 455l-4 -32h-65l-1 -12h64l-4 -31h-65l-13 -92h-39l13 92h-64l4 31h65l1 12h-64l4 32h58l-82 159h41l70 -131l108 131h43l-128 -159h58z" />
    <glyph glyph-name="zero.tx" horiz-adv-x="485" 
d="M231 38q59 0 103.5 44t64.5 102t20 115q0 71 -30.5 121.5t-96.5 50.5q-60 0 -105 -44t-65 -102t-20 -116q0 -71 31.5 -121t97.5 -50zM297 520q84 0 128 -64.5t44 -152.5q0 -71 -28 -141.5t-86.5 -121t-131.5 -50.5q-85 0 -128.5 62.5t-43.5 151.5q0 71 28 142.5
t86.5 122.5t131.5 51z" />
    </font>
</defs>
</svg>
